<svg xmlns="http://www.w3.org/2000/svg" width="70" height="70" xml:space="preserve"><path d="M24.417 31.823c1.453.699 3.018 1.153 4.594 1.492 1.688.362 3.483.218 5.195.2 1.879-.02 3.731.229 5.597-.081 1.568-.261 3.228-.59 4.728-1.115 2.401-.842 5.101-2.676 5.194-5.394.011-.321-.625-.228-.635.048-.094 2.691-2.947 4.407-5.319 5.14-1.17.361-2.419.562-3.617.814-1.544.327-3.085.206-4.648.155-2.761-.09-5.332.099-8.026-.661-1.14-.322-2.369-.702-3.331-1.405-.5-.365-.848-1.104-1.074-1.653-.145-.349-.371-1.575.125-1.833.378-.198.037-.523-.276-.36-.734.382-.713 1.352-.568 2.06.225 1.102 1.056 2.11 2.061 2.593z"/><path d="M24.058 26.475c.418-.787 1.479-1.072 2.24-1.431.992-.469 1.938-.978 2.976-1.348 2.371-.846 4.795-.78 7.271-.709 2.404.069 4.778.063 7.162.444.9.143 1.784.351 2.622.714 1.055.458 1.392 1.513 1.772 2.496.072.184.689-.005.627-.166-.371-.957-.678-1.879-1.591-2.444-.775-.48-1.751-.657-2.637-.825-2.922-.555-5.897-.466-8.855-.554-2.541-.076-4.911.184-7.292 1.101-1.06.408-2.048.982-3.084 1.449-.694.313-1.466.673-1.835 1.367-.072.135.531.08.624-.094z"/><path d="M40.66 25.21c-.275-1.677-2.92-1.445-4.121-1.366-1.797.118-3.816.299-5.225 1.528-1.644 1.434-1.725 4.036-3.054 5.708-.175.221.458.175.585.016.814-1.024 1.211-2.208 1.671-3.411.306-.8.712-1.575 1.302-2.208.662-.711 1.778-.935 2.697-1.079 1.494-.234 3.56-.57 4.97.119.686.334.702 1.394.385 1.958-.35.617-1.254.896-1.866 1.171-.397.178-.033.386.249.26 1.209-.542 2.663-1.135 2.407-2.696zM41.943 31.489c1.522-.506 2.21-1.264 1.72-2.894-.422-1.402-2.782-1.216-3.943-1.148-.187.011-.68.309-.262.285.712-.042 1.387.021 2.09.108.896.112 1.304.307 1.565 1.176.313 1.044-.007 1.755-1.072 2.184-.781.315-1.677.387-2.508.5-1.812.248-3.548-.027-5.334-.289-1.468-.214-2.978-.244-4.46-.253-.191-.001-.682.282-.263.285 4.127.026 8.418 1.392 12.467.046z"/><path d="M33.522 30.941c1.342.042 2.678.164 4.019.053.914-.075 2.565-.363 3.185-1.125.543-.67-.057-1.156-.731-1.375-.795-.257-1.769-.101-2.566.061-.39.079-.283.444.1.366a6.408 6.408 0 0 1 1.681-.121c.206.013 1.785.359.833 1.044-.42.302-.98.453-1.473.589-1.071.297-2.219.256-3.348.187.49-.101.969-.268 1.433-.543.345-.204.809-.913.367-1.269-.381-.306-.823-.301-1.287-.261 1.107-.494 2.979-1.11 3.091-2.368.081-.917-1.167-1.078-1.806-1.089a6.294 6.294 0 0 0-3.457 1.008 8.66 8.66 0 0 0-1.823 1.597c-.592.693-.86 1.582-1.532 2.225-.304.292.185.531.422.304.633-.606.993-1.349 1.459-2.078.72-1.129 2.035-1.977 3.304-2.365.68-.208 1.561-.31 2.251-.135 1.248.314-.088 1.436-.648 1.721-.452.23-.905.458-1.358.686a.853.853 0 0 0 .156-.467c.005-.441-.544-.501-.862-.493-1.396.034-2.704 1.458-3.606 2.345-.271.267.342.315.515.145.569-.561 1.147-1.103 1.808-1.559.361-.249.774-.464 1.214-.53.761-.114-.118.816-.235.91-.331.265.185.411.403.236l.003-.002a.32.32 0 0 0 .292.087c-.067.104-.025.213.221.191.773-.071 1.796.449.263 1.207-.587.291-1.321.284-1.96.284-.743 0-1.484-.081-2.227-.093-.247-.003-.665.361-.24.367.662.011 1.325.061 1.979.075-.058.093-.034.179.16.185zM28.482 28.218c-.364 1.054-1.067 2.213-2.266 2.439-.287.054-.522.409-.09.327 1.532-.289 2.496-1.438 2.982-2.849.07-.199-.556-.116-.626.083zM28.473 32.071c.748-.003 1.507-.046 2.227.193.279.093.737-.303.358-.429-.822-.274-1.679-.237-2.534-.234-.365.002-.477.471-.051.47zM45.542 26.814c-.724-.448-1.633-.593-2.507-.521.336-.229.598-.533.676-.975.024-.141-.592-.037-.618.11-.083.471-.359.753-.726.963a4.923 4.923 0 0 0-.528.14c-.37.121-.281.477.097.354.996-.325 2.206-.312 3.113.251.198.123.768-.151.493-.322zM41.418 43.722c3.434-1.521 5.151-5.151 6.261-8.497.038-.117-.567-.045-.618.11-1.063 3.205-2.699 6.845-6.003 8.311-.377.167.215.141.36.076zM27.244 40.631c-.145-.225-.746.004-.575.267.9 1.386 1.935 2.408 3.567 2.88.256.074.742-.293.366-.401-1.554-.45-2.506-1.434-3.358-2.746zM25.43 35.875c-.024-.171-.655-.034-.627.166.115.823.244 1.652.577 2.421.081.188.695-.01.627-.166-.332-.769-.462-1.598-.577-2.421z"/><path d="M55.479 43.37c1.768-.213 3.32-1.238 4.771-2.212.099-.065.087-.113-.032-.121-.279-.019-.578-.027-.875-.057a.303.303 0 0 0-.141-.046l-.42-.05a1.766 1.766 0 0 1-.795-.415c1.455-.162 2.925-.922 3.954-1.833.261.229.48.513.648.873.062.132.472.015.471-.125-.008-1.622.601-3.275-.448-4.722-.434-.6-1.317-.519-1.73-1.193-.367-.6-.252-1.453-.54-2.104-.629-1.422-2.946-2.956-4.62-2.358a.208.208 0 0 0 .048-.081c.088-.293-.057-.513-.319-.635-.233-.107-.299-.319-.337-.545a.391.391 0 0 0 .222-.171c.117-.199.246-.39.374-.582.048.425.188.831.593.852.492.026.683-.74.778-1.25.334.396.698.917 1.203.427.489-.474-1.194-1.084.244-1.495.253-.072.44-.188.601-.344 1.721-.358 4.489-.083 4.941 1.899.183.803-.021 1.636-.341 2.454.234-.915-.139-1.66-1.002-2.196-.422-.262-.914-.368-1.393-.473-1.065-.234-1.848-.518-2.779-1.073-.131-.078-.543.11-.439.172.969.577 1.81.903 2.923 1.128.287.058.566.141.827.248a.13.13 0 0 0-.006.068c.322 1.598.671 3.18.7 4.816.005.225.403.183.464.009.568-1.657 2.389-4.228 1.259-6-.92-1.442-3.178-1.693-4.846-1.44a.52.52 0 0 1 .02-.03c.03-.049-.008-.083-.054-.098-.245-.079-.209-.067-.479-.089.004.001-.887.063-.684-.136.302-.294.592-.415.659-.85.005-.039-.027-.066-.063-.073-.316-.058-.3-.055-.631-.028-.174.014-.853.342-.6-.02.211-.303.6-.625.481-1.025.251-.383.496-.77.739-1.158.854 1.189 2.127 1.356 3.646.888.894-.274 2.823-1.306 2.604.321-.085.635-.345 1.232-.376 1.877-.005.094.432-.008.468-.102.319-.848 1.041-1.697 1.104-2.619.05-.716-.063-1.657-.87-1.86-.888-.224-2.064-.369-2.969-.2-1.181.222-2.142.964-3.302 1.203l.091-.147c.294-.474.561-1.078.906-1.571a.694.694 0 0 0 .266-.051l.288-.178c.029-.018.055-.048.052-.083a.32.32 0 0 0-.108-.285c-.074-.112-.339-.029-.419.041-.407.354-.629.799-.882 1.266-.065.121-.137.238-.205.358.332-1.61.085-3.189-.694-4.656-.691-1.3-2.316-2.067-3.297-3.157-.084-.093-.431-.003-.454.12-.338 1.736.06 3.469.725 5.084.613 1.492 1.477 2.236 2.999 2.749.053.018.155-.005.246-.041-.013.061-.024.124-.039.183-.023.102.181.099.328.044l-.113.182c-.145.024-.314.108-.287.159.028.056.06.106.09.159-.292.463-.594.92-.893 1.374-.339.087-.83.395-1.114.583-.116-.489-.233-.827-.754-1.055a.254.254 0 0 0-.054-.012c-.572-1.026-1.87-2.163-2.995-2.574-.36-.132-.739-.224-1.109-.055-.895.41-1.719.563-2.676.738-.084.016-.317.192-.147.263.842.352 1.771.468 2.563.928.539.313.936.862 1.294 1.428-.12.027-.237.083-.229.146.141 1.057.304 2.099.252 3.169-.004.074.464.016.471-.125l.001-.039a.415.415 0 0 0 .124.023c.256.01.497-.009.75-.058.341-.066.43-.244.226.008-.176.216-.165.298-.213.555-.011.055.055.076.098.078.517.022.962-.188 1.392-.441-.004.057-.01.113-.022.17-.016.071.029.111.102.128v.017a.396.396 0 0 0-.251.179c-.153.26-.326.507-.492.76-.138-.159-.373-.218-.58-.261-.57-.12-1.006.233-1.332.646-.011-.007-.022-.017-.034-.023.253-.331.289-.733.378-1.172.039-.191-.438-.118-.472.053-.07.345-.078.751-.29 1.042-.294.041-.565.292-.716.622-.283-.016-.577-.076-.789-.268-.066-.061-.17-.068-.269-.044-.217-1.844-1.216-3.311-2.747-4.362.017-.023.026-.046.016-.07-.209-.451-.182-.939-.181-1.424.001-.135-.47-.051-.471.125-.001.338-.012.678.051 1.006-2.714-1.561-6.088-1.707-9.14-1.715-3.027-.008-6.047.26-8.984 1.003-2.972.751-9.129 2.584-8.484 6.634 0 .017.001.034.006.052.023.083.053.162.08.243a8.552 8.552 0 0 0-5.604 1.425c-2.168 1.477-2.655 4.009-2.372 6.451.1.857.332 1.729.689 2.548a.227.227 0 0 0-.11.077c-.661 1.079-1.445 2.196-1.644 3.471-.256 1.646.178 3.209.975 4.654 1.387 2.518 3.257 4.415 5.942 5.542 5.628 2.361 11.617 3.374 17.696 3.438 2.982.031 5.859-.532 8.779-1.107 2.533-.499 4.901-1.725 6.855-3.373 1.926-1.624 3.472-3.554 3.771-6.096.126-1.069-.083-2.027-.487-2.907zm6.918-15.75c.752.482 1.176 1.246.762 2.3-.042.108.281.084.416-.01-.19.439-.401.873-.596 1.293-.104-1.207-.341-2.392-.582-3.583zM55.87 17.416c-.625-1.4-.977-2.989-.804-4.519.891.854 1.957 1.516 2.731 2.477.994 1.235 1.16 3.145.886 4.673-1.449-.507-2.18-1.209-2.813-2.631zm9.146 2.564c.95.133.847 1.682.66 2.299a3.5 3.5 0 0 1-.138.37c.108-.619.066-1.181-.538-1.292-.638-.117-1.408.241-1.98.452-1.734.637-2.999.567-3.868-.855a6.746 6.746 0 0 0 1.52-.565c1.485-.735 2.797-.627 4.344-.409zm-12.95 1.126c-.704-.525-1.53-.674-2.339-.941.358-.04.716-.075 1.071-.162.729-.179.967-.856 1.973-.288 1.016.574 2.036 1.323 2.605 2.346.025.046.083.065.147.064-.2.569-.207 1.159-.148 1.757-.526-.093-1.014-.305-1.532-.423-.548-.779-1.002-1.774-1.777-2.353zm1.173 4.121c-.011-.718-.099-1.427-.195-2.139.102.167.204.33.307.482-.113.479.478.716.85.891.322.15.24.024-.109.21a4.548 4.548 0 0 0-.853.556zm1.564.288c.079-.098-.128-.102-.171-.093l-.343.071c-.392.21-.59.087-.592-.371.3-.221.652-.385.995-.531.048-.021.15-.109.06-.151-.282-.129-.904-.315-1.061-.655a.383.383 0 0 0 .185-.09c.537.145 1.051.355 1.612.412.076.007.228-.041.217-.137a5.783 5.783 0 0 1 .008-1.493c.109-.783.598.577.625.695.022.099.205.043.256.012.332-.202.646-.422.997-.593.368-.181-.178.734-.154.703-.104.137-.205.26-.277.417-.04.087.063.105.128.101.068-.004 1.438-.11 1.045.288-.22.223-.459.359-.633.626-.039.061.034.103.089.103.088.001.176 0 .265-.003l.256-.021c.467-.117.443.09-.07.622-.168.048-.361.113-.491.238-.176.167-.129.282-.089.481l.012.021c.2.208.163.412-.113.613-.179-.174-.223-.392-.431-.56-.076-.063-.279-.032-.302.08-.024.118-.341 1.457-.581 1.246-.211-.186-.243-.634-.245-1l.039-.063c.046-.076.018-.145-.036-.194l.001-.11c.106-.037.194-.098.211-.173.024-.106.026-.211.026-.32.002-.139-.16-.15-.271-.137a.82.82 0 0 0-.167.043.208.208 0 0 0-.083.025 6.779 6.779 0 0 1-.715.405c-.426-.128-.494-.296-.202-.507zm3.465 16.608c-.875.53-1.837 1.007-2.883 1.044-.344-.689-.806-1.332-1.32-1.947.062.043.15.065.269.039.152-.035.306-.063.46-.086.448.412.79.884 1.359 1.155.262.125.722-.249.36-.421-.382-.183-.663-.499-.95-.805 1.139-.045 2.298.148 3.419.275a.423.423 0 0 0 .335-.132l.285.016c-.264-.016-1.085.712-1.334.862zm-3.241-1.417-.031.004a6.89 6.89 0 0 0-.775.131c-.21.048-.271.189-.225.297-.139-.164-.28-.327-.425-.487.5-.421 1.046-.779 1.595-1.137.217.186.398.393.615.563-.146.115-.305.213-.439.341-.109.104.095.144.159.143a.633.633 0 0 0 .417-.159c.051-.049.107-.092.164-.134.084.041.173.079.274.105.348.091.707.13 1.07.13-.074.042-.119.087-.091.116.039.042.08.081.123.117-.81-.081-1.625-.119-2.431-.03zm-2.111-.762a13.931 13.931 0 0 0-.856-.827c.296-.076.601-.117.909-.121.146-.002.329-.042.413-.175.002-.004.002-.008.005-.012.501.178 1.048.23 1.505.508-.529.346-1.062.685-1.559 1.072-.139-.149-.278-.299-.417-.445zm-3.483-2.487c-.054-.021-.138-.009-.226.017.123-.414.239-.829.348-1.243.263.225.526.211.879.106.443 1.138 1.404 1.792 2.509 2.289a5.037 5.037 0 0 0-1.207.214c-.695-.57-1.46-1.053-2.303-1.383zm1.038-5.027c.354.093.597.258.493.712-.068.297-.408.383-.301.746.069.227.685.101.57.527-.033.125-.138.263-.188.383-.069.164-.004.221-.049.357-.088.008-.176.014-.263.026-.062.008-.412.092-.368.209.047.114.086.23.115.35-.18.379-.34.421-.481.126-.05-.06-.209-.043-.352.004l.026-.104c.276-1.086.568-2.205.798-3.336zm2.118 5.498c-.745-.47-1.324-1.097-1.602-1.977a.71.71 0 0 0 .08-.389c.419.076.818.209 1.212.36-.072.027-.129.065-.132.114-.043.652-.013 1.393.442 1.892zm-1.546-2.533.011-.001-.01.004-.001-.003zm10.471 3.17c-.796.743-1.771 1.259-2.822 1.557-1.381.39-2.162-.096-3.108-.952-.331-.299-.826-.44-1.319-.568.067-.036.109-.083.086-.125-.315-.547-.434-1.16-.596-1.762-.042-.155-.512-.03-.471.124.151.559.266 1.128.534 1.646a3.876 3.876 0 0 1-.598-.21 5.784 5.784 0 0 1-.333-.171c.158-.02.373-.132.313-.18-.563-.445-.623-1.202-.589-1.872.466.187.932.377 1.421.503.72.183 1.456.245 2.195.266.139 1.059.731 2.137 1.495 2.872.158.152.56-.084.359-.276a4.838 4.838 0 0 1-1.365-2.586h.005c.094.001.282-.089.314-.152 1.391.966 3.425.86 4.708 1.802a.54.54 0 0 0-.229.084zm1.072.108a.46.46 0 0 0 .053-.015l-.007.065-.046-.05zm-.142-3.403c.498.932.355 1.986.236 3.019-.447-.685-.78-1.426-1.365-2.019a2.6 2.6 0 0 0-.345-.287c.245.072.481.171.713.284.087.043.219.003.304-.027.013-.005.216-.093.141-.13-.354-.172-.719-.322-1.111-.384a.593.593 0 0 0-.328.06l-.011.005c-.212-.129-.429-.251-.627-.383a2.17 2.17 0 0 1-.291-.238c.016-.105-.065-.162-.167-.173a4.066 4.066 0 0 1-.316-.419c.826.001 1.636.027 2.437.258.075.022.188-.013.27-.065.183.13.346.287.46.499zm-1.135-.873c-.63-.106-1.267-.123-1.915-.124a.388.388 0 0 0-.241.109c-.084-.135-.165-.273-.245-.408-.212-.356-.415-.702-.622-1.037.664.053 1.289.209 1.865.592.055.036.15.029.237 0 .009.021.015.042.022.062.156.406.515.612.899.806zm-2.149-3.982c.826.811.835 1.752 1.104 2.723-.669-.366-1.405-.488-2.173-.507a9.574 9.574 0 0 0-.837-1.132c.75-.107 1.676-.205 2.158.448.074.1.526-.051.442-.166-.598-.805-1.889-.571-2.752-.448a5.494 5.494 0 0 0-1.771-1.275c.062-.107.105-.236.125-.391.012-.093.021-.184.034-.276 1.004-.761 2.942.309 3.67 1.024zm-4.71-2.768c.073.293.077.544.254.802.034.049.189.103.241.122.371.14.174.444.009.622-.177.191.012.986-.388.963-.215-.012-.676.292-.254.316.311.018.578-.029.778-.161.614.31 1.112.703 1.54 1.155a.148.148 0 0 0-.046.052c-.363.794-.752 1.782-.434 2.649.059.157.524.021.472-.125-.27-.732-.015-1.551.288-2.261.264.315.504.651.732 1.004-.04.06-.03.115.079.126.146.23.289.466.433.707-.089-.002-.183.026-.235.091-.483.611-1.134 1.575-.794 2.379.091.216.559.085.471-.124-.299-.706.283-1.552.709-2.093l.283.48c.208.349.432.626.683.87-.158.477-.294.952-.256 1.46.019.256.494.192.479-.029-.028-.385.042-.746.148-1.105.219.171.459.333.729.501.852.531 1.239 1.403 1.742 2.21-1.247-.867-3.12-.822-4.478-1.623-1.838-1.083-3.15-3.979-2.854-6.04.021-.148-.448-.06-.467.071-.229 1.601.406 3.239 1.369 4.567a.431.431 0 0 0-.215.105 4.599 4.599 0 0 0-.667.83c-.053.083.171.072.194.068.1-.015.217-.052.271-.141a4.23 4.23 0 0 1 .547-.684c.243.318.504.618.776.892.113.114.235.218.361.312a.18.18 0 0 0-.034-.003c-.077 0-.155-.003-.233-.005-.002-.019-.007-.038-.008-.057-.019-.195-.377-.133-.456.04-.847-.045-1.673-.165-2.491-.438l-.003-.001a.345.345 0 0 0 .146-.079c.335-.329.692-.634 1.028-.962.071-.07.051-.157-.05-.181a.38.38 0 0 0-.332.088c-.336.328-.693.633-1.028.961a.127.127 0 0 0-.038.077c-.714-.264-1.381-.591-2.146-.719a.56.56 0 0 0 .226-.129c.198-.201.093-.42.198-.668.071-.169.173-.262.131-.45-.015-.066-.079-.135-.158-.194.958.076 1.875.301 2.81.554.159.043.556-.19.285-.263-1.147-.31-2.267-.578-3.461-.595-.01 0-.021 0-.03.002.005-.221.289-.609.321-.749a.413.413 0 0 0-.058-.341.113.113 0 0 0 .04-.056c.175-.733 1.029-1.233 1.543-1.731.082-.079-.025-.1-.101-.102.126-.076.19-.163.013-.189-.444-.063-.486-.261-.554-.629-.068-.362.364-.482.165-.81-.176-.289-.292-.422-.245-.772.017-.131.066-.259.13-.376.07.072.132.15.178.239.093.142.514-.01.582-.119.092-.148.185-.293.282-.437.26-.375.746-.285.848.126zm-2.666.876c-.008.136.007.301.079.402.155.213.225.439.058.662-.044.058-.082.151-.067.223.111.549.209.824.785.918-.018.012-.037.022-.052.037-.447.433-1.145.873-1.461 1.455a2.776 2.776 0 0 0-.326-.082c-.059-.011-.172.017-.282.058.251-1.285.412-2.583.365-3.865.271.134.594.178.901.192zM30.075 22.59c2.697-.644 5.47-.822 8.236-.831 3.244-.011 6.698.25 9.469 2.09 1.465.973 2.146 2.372 2.369 3.913-.702 3.304-4.336 4.832-7.143 5.931-2.182.854-4.575.843-6.885.817a43.099 43.099 0 0 1-6.057-.486c-.146-.022-.681.21-.517.235 2.203.334 4.322.476 6.55.501 2.133.024 4.355-.013 6.399-.684 1.74-.571 3.592-1.202 5.083-2.278.987-.711 2.02-1.688 2.657-2.811.001.483-.03.973-.089 1.461-.336 2.801-1.075 5.679-1.97 8.352-.965 2.88-2.46 5.7-5.184 7.286-2.61 1.521-5.609 1.518-8.533 1.375-2.226-.108-4.308-.006-6.2-1.371-1.574-1.136-2.62-3.283-3.444-4.965-.917-1.872-1.545-3.879-2.016-5.901-.264-1.136-.154-2.292-.239-3.445l-.006-.054c1.493 1.384 3.834 2.113 5.74 2.38.145.02.726-.223.402-.268-2.203-.309-5.081-1.305-6.33-3.232-.024-.037-.073-.053-.134-.055-.235-.571-.536-1.125-.7-1.709-.679-3.929 5.723-5.576 8.542-6.251zm-8.466 11.135c-1.826.508-3.886 1.598-4.938 3.238-.177-1.037-.022-2.24.234-3.103.295-.992 1.209-1.754 2.188-2.027.762-.212 1.944-.26 2.431.468.06.09.28.066.438-.007.021.38.012.764.011 1.144-.005 1.517.421 2.973.867 4.414.284.917.624 1.828 1.014 2.72a.497.497 0 0 0-.072-.005c-2.327 0-5.472-.244-6.747-2.509a2.969 2.969 0 0 1-.253-.617c.128-.02.256-.074.297-.151.89-1.637 2.859-2.739 4.621-3.228.376-.107.287-.442-.091-.337zm-7.157-1.58c1.281-2.076 4.014-2.931 6.349-2.621a.704.704 0 0 0 .258-.056c.187.51.424.999.634 1.502.118.283.187.576.228.873-.869-.85-2.681-.414-3.657-.033-1.948.76-2.303 2.893-2.218 4.706.177 3.772 4.414 4.376 7.485 4.376a.646.646 0 0 0 .382-.182c.434.977.93 1.926 1.49 2.832-.157.068-.303.16-.418.282a.278.278 0 0 0-.047.017c-1.165.546-2.722-.045-3.958-.102-1.368-.063-2.729-.375-3.936-1.018-1.808-.964-2.8-3.006-3.25-4.896-.445-1.857-.365-4.022.658-5.68zm39.863 17.359c-1.524 2.544-4.445 4.536-7.186 5.553-1.482.551-3.066.676-4.607.985-1.736.35-3.384.591-5.163.576-3.085-.026-6.138-.158-9.169-.769-2.843-.573-5.709-1.475-8.412-2.51-2.731-1.047-4.578-2.854-6.056-5.328-.776-1.299-1.243-2.69-1.231-4.204.011-1.358.719-2.556 1.42-3.688.745 1.465 1.917 2.7 3.507 3.257 1.537.538 3.079.526 4.668.771.961.147 1.881.231 2.784-.063.068.15.44.15.561-.016a.472.472 0 0 1 .154-.145c-.025.017.021-.008.051-.023.295.458.604.907.933 1.339 1.606 2.104 4.048 2.577 6.571 2.633 2.64.059 5.156.271 7.737-.445 4.712-1.308 6.918-5.365 8.236-9.647a9.034 9.034 0 0 1 2.084 1.298c-.05.051-.077.114-.024.173.068.076.189.077.296.055.51.444.987.935 1.434 1.449-.034.055.007.084.082.094.582.68 1.115 1.396 1.609 2.099.091.129.171.261.245.397-.054.036-.06.064.032.065.973 1.871.476 4.374-.556 6.094z"/><path d="M53.584 30.022a.284.284 0 0 1-.008.165c-.016.042-.02.042-.039.067l-.017.017c-.015.01-.071.045-.031.024-.106.056-.247.187-.149.314.092.12.305.107.425.043.303-.16.523-.443.446-.796-.061-.282-.69-.121-.627.166zM53.439 29.507c.095.074.416-.044.545-.132a.36.36 0 0 1 .033.167c.003.133.291.093.356.076.118-.031.274-.103.271-.242-.006-.292-.246-.41-.517-.416a.62.62 0 0 0-.274.061c-.045-.239.091-.513.19-.742.041-.092-.216-.047-.245-.042-.09.017-.327.058-.371.158-.161.371-.374.809.012 1.112zM55.487 37.088c-.055-.173-.524-.044-.472.124.157.501.148 1.034.559 1.42.126.117.57-.06.437-.187-.391-.364-.377-.881-.524-1.357zM58.802 39.028c.098.193.561.055.472-.123-.169-.337-.319-.681-.487-1.017-.098-.192-.561-.054-.472.125.169.336.319.68.487 1.015zM56.138 25.005a.751.751 0 0 0 .62-.158c.089-.078.034-.217-.004-.304-.038-.089-.227-.074-.389-.021a.465.465 0 0 1-.044-.086c-.066-.166-.683.028-.628.166.072.179.252.358.445.403zM48.075 21.478c.023-1.137.314-2.209.666-3.281.243.479.455.971.774 1.409.081.111.503-.079.47-.124-.402-.552-.634-1.193-.974-1.781-.064-.111-.506.063-.471.125l.002.002c-.086.027-.162.075-.183.138-.392 1.166-.732 2.324-.758 3.561-.004.215.471.128.474-.049zM69.987 46.192c-.781-.412-1.283-.693-2.176-.509-.568.117-1.1.397-1.601.71.261-.289.475-.625.646-.971.351-.707.758-1.83.399-2.6-.04-.084-.23-.005-.279.028-.566.382-1.008.873-1.435 1.388.07-.381.051-.787-.398-.771-.438.017-.636.479-.818.889-.063-.511-.188-1.022-.542-1.405-.053-.058-.286.004-.303.079-.102.459-.2.912-.33 1.356.033-.426.059-.848-.007-1.278-.012-.081-.281.033-.311.069-.299.352-.422.776-.616 1.177-.404-.798-.525-1.667-.769-2.528-.02-.071-.268.019-.298.054-.832.96-.371 2.128-.31 3.263-.736-.662-1.632-1.584-2.521-1.804-.054-.013-.291.021-.286.102.055.978.439 1.907.412 2.884-.366-.24-.635-.593-1.01-.841-.045-.031-.331.027-.305.093.213.529.557.982.786 1.502-.484.01-.972.046-1.435.194-.419.134-.356.579.131.571.506-.008.992.169 1.445.365.332.144.13.065-.154.13a3.763 3.763 0 0 0-.956.348c-.835.443-1.044 1.533-1.221 2.359-.018.081.263-.008.295-.041.931-.916 1.488-1.694 3.079-1.654.718.018 1.44.176 2.137.368l.004.023c.014.063.074.084.14.078a10.84 10.84 0 0 0-1.246.965c-.039-.069-.169-.098-.248-.022-.229.215-.405.46-.526.725a21.72 21.72 0 0 1-1.063.925c-.208-.986.006-2.092.936-2.652.181-.109.015-.283-.141-.188-1.102.665-1.383 1.944-1.06 3.126.029.108.195.082.262.032a15.2 15.2 0 0 0 .912-.766 2.11 2.11 0 0 0 .017.84c.013.061.091.084.145.08.728-.063 1.411-.157 1.992-.634.488-.401.727-1.05.983-1.602.078-.167-.239-.179-.301-.044-.218.466-.415.945-.75 1.344-.438.523-1.127.623-1.771.681a1.89 1.89 0 0 1 .119-1.061c.626-.575 1.25-1.152 1.972-1.616.066-.044.071-.088.045-.12a.504.504 0 0 0 .175-.05c.175.076.37.161.395.177.182.109.334.279.447.453.168.257.236.618.336.905.132.383.271.877.731.938.403.055.433-.459.42-.717-.034-.679-.133-1.341-.143-2.01.457.822 1.122 1.484 1.781 2.163.073.076.298.05.302-.08.026-.801-.221-1.492-.586-2.138.173.076.352.143.522.209.92.354 1.854.65 2.808.902.062.018.296-.008.284-.106-.144-1.196-1.146-1.949-2.28-2.272.046-.02.092-.039.137-.065 1.012-.598 1.86-1.364 2.945-1.862.018-.009.102-.065.056-.088zm-1.934.986c-.464.317-.927.777-1.487.957a4.74 4.74 0 0 0-.917-.109c-.041-.001-.313.101-.191.139.312.101.646.177.97.15.263.079.52.187.767.289.88.366 1.418.865 1.588 1.762a31.052 31.052 0 0 1-2.097-.66c-.472-.166-1.087-.34-1.462-.708-.29-.438-.62-.86-.938-1.287-.084-.113-.383.007-.287.136.223.299.454.597.672.899.06.129.14.238.233.333.443.656.797 1.351.868 2.151-.629-.648-1.24-1.309-1.617-2.14-.021-.046-.069-.064-.122-.066a4.82 4.82 0 0 1 .053-.473c.026-.162-.295-.125-.319.021-.012.069-.019.139-.027.207-.554-.046-1.085.364-1.368.804-.088.137.231.126.297.024.199-.31.586-.667.985-.622a.15.15 0 0 0 .063-.008c-.066.756.021 1.501.089 2.261.005.052.063.966-.197.632-.199-.257-.285-.639-.388-.941-.166-.492-.326-.828-.751-1.153-.265-.202-.839-.454-1.161-.282a.22.22 0 0 0-.054.041c-.964-.254-2.018-.442-2.979-.268-.982.18-1.527.736-2.162 1.389.296-1.242.723-2.121 2.298-2.282.021-.002.278-.077.216-.112-.416-.236-1.032-.551-1.524-.543l-.285-.438c.176-.029.353-.049.53-.061.222-.018.446-.019.669-.02.032 0 .285-.037.26-.103-.141-.347-.336-.661-.52-.982.203.188.413.363.683.471.064.025.296-.006.305-.094.104-1-.281-1.943-.38-2.929.896.376 1.807 1.391 2.491 1.954.053.043.303-.019.306-.094.041-1.073-.485-2.262.048-3.238.221.861.361 1.721.828 2.502.044.073.275-.015.312-.069.224-.336.339-.714.516-1.063.026.521-.048 1.034-.069 1.561-.001.017.042.021.096.017a5.21 5.21 0 0 1-.131.287c-.033.066.269.038.312-.049.315-.641.481-1.313.635-1.999.252.446.308.997.352 1.495.007.091.269-.01.3-.047.18-.219.285-.473.404-.727.188-.398.527-.392.476.143-.018.183-.078.366-.133.542-.03.1.264.014.299-.029.502-.605.971-1.225 1.595-1.705.535 1.449-.92 3.418-2.005 4.154-.138.093.181.068.245.026.982-.646 2.31-1.771 3.598-1.385 1.378.415-.274.988-.788 1.339z"/><path d="M65.723 45.165c-1.078.233-1.916.92-2.675 1.676-.159-.521-.222-1.063-.337-1.596-.013-.056-.22.016-.246.027-.79.357-1.013 1.401-.501 2.085.053.069.331-.061.314-.083-.389-.519-.382-1.407.142-1.835.114.561.181 1.128.374 1.669.023.064.267-.024.298-.058.389-.4.792-.781 1.235-1.125.166-.127.341-.241.522-.346a.869.869 0 0 1 .585-.199c-.226.296-.499.557-.761.82-.685.69-1.433 1.407-1.592 2.402-.003.023.3.006.314-.083.228-1.424 1.627-2.252 2.449-3.335.033-.038-.113-.021-.121-.019zM62.504 49.041a2.67 2.67 0 0 0-.31-.081c.059-.026.102-.068.084-.119-.279-.789-1.187-.909-1.922-1.017-.524-.076-1.086-.108-1.553-.381-.252-.147 1.033-.556 1.146-.574.511-.084.986.064 1.4.352.1.068.382-.07.245-.165-.995-.689-2.265-.415-3.182.272-.032.023-.087.083-.043.124.668.634 1.999.41 2.866.752-.54-.007-1.096.255-1.39.706-.029.044.005.092.052.099.804.121 1.636-.045 2.417.214.112.035.371-.122.19-.182zm-1.234-.637c.057.008.154-.034.21-.079.216.132.387.32.484.598-.58-.073-1.172-.014-1.758-.083.248-.307.668-.498 1.064-.436zM2.813 40.028c.477.233.999.168 1.515.133.299-.021-.264.761-.319.886-.167.379-.215.785-.222 1.193-.002.144.226.076.287.02a6.264 6.264 0 0 1 1.039-.751c-.298.437-.38.912-.098 1.47.046.092.186.064.257.018.261-.173.463-.388.671-.609.133.388.411.768.881.558.543-.244.803-1.084 1.036-1.618.27.38.515.867.977.623.229-.121.326-.46.283-.696-.05-.272-.237-.891.26-.57.224.145.39.262.638.354.081.03.269-.027.25-.136a2.037 2.037 0 0 0-.171-.659c-.11-.313 1.075-.164 1.147-.16.062.004.251-.043.214-.142-.215-.571-.571-.688-1.11-.921-.378-.162.705-1.198.75-1.475.013-.076-.088-.088-.14-.085-.572.028-1.059.246-1.565.478.134-.567.741-1.748-.087-1.644-.769.098-1.475.945-2.061 1.496-.168-.676.418-1.278.246-1.981-.018-.072-.129-.063-.182-.051-.583.139-.768.546-.951 1.003a2.54 2.54 0 0 0-.057-.347c-.023-.118-.235-.042-.286.005-.387.364-.3.813-.481 1.239-.429-.364-.904-.665-1.461-.799-.07-.018-.286.021-.25.137.13.414 1.095 1.795.576 1.96a4.086 4.086 0 0 0-1.593.953c-.034.032-.044.093.007.118zm.737-.451c.363-.265.788-.292 1.14-.51l.528.104a.286.286 0 0 0 .222-.059c.051-.042.036-.09-.027-.103l-.541-.106c-.007-.002-.015-.001-.022-.002.204-.411-.327-1.255-.587-1.729.434.175.813.454 1.161.772.083.075.234.03.293-.054.218-.313.197-.694.32-1.029.022.193.045.409.061.525.016.126.267.039.305-.03.075-.138.136-.259.19-.407.069-.204.148-.403.236-.6.376-.151.485-.079.328.214-.144.56-.419.936-.157 1.5.051.109.217.052.286-.005.457-.378.873-.797 1.339-1.164.405-.317.855-.396.661.23-.104.333-.239.665-.231 1.02.002.108.153.095.224.063.183-.081.364-.164.545-.25.183-.086 1.041-.266.611.142-.202.191-.391.353-.518.601-.056.109-.025.293.052.385.359.426.807.201 1.105.776-.4-.029-.791-.063-1.196-.016-.064.008-.195.055-.174.142.059.244.133.476.192.714-.333-.183-.612-.406-1.024-.465-.063-.009-.214.034-.215.116-.002.218.135 1.726-.264 1.156-.184-.262-.323-.521-.61-.684-.105-.06-.388.084-.246.165a.693.693 0 0 1 .159.129.143.143 0 0 0-.076.063c-.123.257-.24.517-.364.773-.218.451-.907.868-1.062.121-.024-.116-.235-.045-.285.006-.219.221-.413.455-.651.652-.223-.573-.038-1.04.392-1.492.701-.015 1.27-.438 1.733-.937.146.178.301.358.492.44.152.066.496-.004.546-.181.056-.195-.426-.645-.283-.741.429-.289.634-.729.654-1.237.001-.048-.31-.009-.313.083-.019.476-.208.949-.655 1.184-.014.008-.078.035-.066.063.052.123.132.233.203.346.036.059.122.341.174.363-.271-.117-.485-.488-.686-.697-.055-.057-.344.055-.295.106.036.037.072.079.107.122a.16.16 0 0 0-.069.038c-.378.427-.841.852-1.437.874-.038-.045-.162-.054-.215-.026-.505.267-.979.544-1.419.892a3.27 3.27 0 0 1 .785-1.845c.056-.066.015-.136-.071-.137a6.73 6.73 0 0 0-.724.026c-.439.173-.625.039-.561-.4z"/><path d="M7.636 39.531c.075-.322.184-.637.252-.961.021-.1-.292-.048-.312.045-.069.324-.177.639-.253.962-.022.097.291.047.313-.046zM7.034 39.669c.126-.151-.173-.196-.262-.09-.102.123-.454-.186-.542-.257-.105-.086-.38.064-.242.178.274.223.747.529 1.046.169zM6.988 39.157a4.286 4.286 0 0 0-.253-.713c-.043-.089-.347.016-.313.083.112.228.183.47.252.712.025.087.338.002.314-.082zM2.195 50.384a3.5 3.5 0 0 1-1.192-.184 2.454 2.454 0 0 1-.54-.263c-.224-.14-.052-.281.074-.415.432-.459 1.247-.554 1.84-.647.161-.025.249-.234.035-.2-.826.129-2.061.304-2.402 1.193-.008.022-.02.055.004.075.585.492 1.393.664 2.146.642.169-.005.25-.208.035-.201z"/><path d="M10.549 46.97c-.23-.251-.781-.104-1.055-.039a4.726 4.726 0 0 0-.582.171c.231-.378.386-.781.312-1.253-.01-.063-.14-.042-.177-.032a2.783 2.783 0 0 0-.873.442c.183-.635.262-1.294.33-1.951.007-.073-.084-.086-.14-.081-.709.065-1.592.603-1.882 1.312-.027-.033-.052-.067-.082-.099-.07-.073-.238-.003-.291.059-.424.484-.538 1.061-.705 1.654-.297-.179-.578-.376-.87-.539.034-.03.051-.069.025-.111-.335-.539-.501-1.423-.231-2.044.409.447.791.982.977 1.546.042.127.354.041.313-.083-.218-.659-.686-1.276-1.168-1.769-.079-.081-.235-.027-.292.054-.428.599-.321 1.564.003 2.227a2.067 2.067 0 0 0-.803-.164c-.053 0-.215.028-.218.105-.005.115.001.225.01.334-.445-.566-.99-1.066-1.676-1.317-.097-.034-.224.018-.249.119-.271 1.075.244 2.202.99 2.977.101.106.397-.022.287-.139-.673-.699-1.152-1.677-1-2.652.735.342 1.286.99 1.723 1.652.02.029.052.044.088.048.091.228.216.444.378.654.018.023.056.03.098.028v.28c-.863.015-2.046.906-1.625 1.801.027.057.129.032.174.022.058-.013.111-.022.164-.05-.088.046.464-.141.841-.271a1.399 1.399 0 0 0-.425.31 4.794 4.794 0 0 0-.41.479c-.002-.006-.001-.012-.006-.018-.048-.058-.152-.043-.211-.015-.316.146-.474.449-.623.744-.076.15.241.135.297.024.106-.208.219-.479.439-.596-.445.629-.808 1.418-.781 2.085.004.101.27-.015.301-.045a9.808 9.808 0 0 1 1.182-1.021c-.189.497-.225 1.115-.003 1.6.036.079.233.002.278-.03.504-.365.941-.811 1.379-1.25.07.19.135.381.218.533.051.093.274.007.313-.065.319-.595.504-1.243.978-1.737.23.064.407.226.459.558.033.208.045.386.2.537.19.185.608-.093.755-.181.028-.017.069-.047.061-.085-.085-.355-.128-.718-.242-1.063.313.072.593.078.94-.045.039-.014.131-.069.084-.12-.066-.073-.164-.153-.26-.236.718.067 1.624.166 2.184-.264.018-.014.053-.042.025-.064-.474-.415-1.044-.798-1.693-.828.041-.028.083-.054.124-.083.119-.084.528-.472.304-.643.59-.222 1.768-.905 1.339-1.372zm-2.372-2.525c-.076.723-.171 1.447-.41 2.137-.172.146-.343.296-.524.44-.181-.391-.318-.8-.535-1.165.084-.68.803-1.279 1.469-1.412zm-3.509 7.507c-.424.419-.839.854-1.306 1.229-.164-.481-.108-1.053.09-1.51.011-.025-.024-.036-.075-.036.052-.033.101-.069.154-.101.699-.412.965-.054 1.155.406-.006.004-.014.007-.018.012zm2.399-.45-.052-.339c-.043-.276-.257-.622-.584-.617-.653.011-1.177.393-.869-.615.114-.297.292-.55.532-.759 1.047.049 1.383.289 1.005.72a1.3 1.3 0 0 0-.246.612c-.012.093.174.078.265.02.138.324.191.659.254 1.005-.207.201-.309.192-.305-.027zm.322-1.127a.457.457 0 0 0-.208.021c.047-.211.175-.394.283-.577.253.257 1.213.973-.075.556zm2.305-.749c.109.07.211.151.313.23.241.188-.034.202-.225.231-.532.083-1.091.008-1.625-.029a.184.184 0 0 0-.058.01c-.187-.19-.285-.393.023-.58.155-.094.309-.189.46-.287.413.006.778.21 1.112.425zm-1.375-.459c-.255.164-.521.308-.768.483a.663.663 0 0 0 .043-.496c-.107-.33-.704-.418-.985-.382-.961.125-1.616 1.22-1.415 2.109.015.063.136.043.177.032.213-.055.444-.097.654-.091-.415.428-.624.95-.874 1.478a4.866 4.866 0 0 1-.4-1.181c-.009-.047-.103-.034-.131-.031-1.085.111-1.906.732-2.667 1.446.116-.938.941-2.577 1.856-2.65.057-.006.337-.136.163-.151-.462-.041-.79.013-1.233.153-.058.019-.293.121-.298.11-.322-.685.9-1.582 1.407-1.468.054.013.249-.021.255-.098.034-.405.035-.252 0-.659-.004-.05-.128-.045-.219-.01-.245-.438-.79-1.546.152-1.15.473.198.882.568 1.336.813.076.041.254-.006.282-.094.175-.561.26-1.13.584-1.617.055.072.106.146.152.221-.002.039-.006.077-.005.115.002.06.054.083.116.084.185.361.314.754.498 1.117.049.095.221.025.282-.018.237-.172.45-.355.666-.552.001-.002.002-.004.004-.004.056-.019.106-.05.121-.09l.006-.019c.351-.282.992-.685.785.058a2.253 2.253 0 0 1-.321.648 1.783 1.783 0 0 0-.187.124c-.083.066-.06.117-.001.141-.218.286-.454.562-.623.843-.047.079.069.094.123.085l.443-.077.596.324a2.222 2.222 0 0 1-.574.454zm1.622-1.477c-.25.202-.601.47-.929.522a.263.263 0 0 0-.058.019.784.784 0 0 0-.344-.032c-.623.06-.542.074-.174-.422.089-.12.179-.24.266-.361.406-.25 1.071-.451 1.485-.352.384.093-.141.541-.246.626zM13.204 49.079c-.118 0-.334.177-.122.177.117-.001.334-.177.122-.177zM16.012 53.723c-.187.015-1.601.281-1.532.062.145-.462.13-.932.063-1.401-.013-.095-.212-.039-.255-.009a2.334 2.334 0 0 0-.665.726c-.264-.485-.96-.78-1.486-.852-.06-.008-.288.021-.252.128.113.341.273.657.412.988.027.064.049.134.066.203-.461.007-.968-.063-1.372.17-.236.136-.137.277.054.407.373.255.777.469.894.938.017.07.332-.01.313-.082-.078-.313-.274-.514-.525-.705-.113-.086-.625-.321-.566-.486.056-.157.611-.117.743-.118.16-.003.322.005.481-.004.073.428.003.904.039 1.332a.135.135 0 0 0-.043.035c-.195.253-.618.246-.945.238-.057-.052-.198-.028-.26.03-.006.004-.011.011-.016.015v.001c-.043.042-.054.1-.014.136v.386c0 .104.158.09.223.057.464-.242.924-.17 1.354.062.08.274.147.565.249.834a.214.214 0 0 0-.113.026c-.27.166-.417.471-.696.587.096-.227.267-.416.31-.668.023-.134-.201-.113-.263-.061a1.346 1.346 0 0 1-.953.314c.16-.146.335-.272.495-.42.171-.158.295-.359.46-.523.139-.139-.163-.193-.263-.094-.207.205-.364.446-.59.635-.169.141-.342.271-.492.434-.047.051-.03.133.041.151.372.099.784.045 1.137-.118-.091.17-.208.329-.25.523-.017.078.089.106.146.104.565-.031.69-.439 1.109-.707.043.092.09.181.147.262.061.086.279.006.303-.08.056-.2.104-.403.151-.606.319.164.568.434.791.705.057.069.299.018.302-.08.019-.558-.034-.956-.486-1.315-.441-.351.66-.043.796-.013.212.045.351.022.559-.006.066-.009.218-.062.166-.152a1.344 1.344 0 0 0-.508-.526c-.603-.351-.451-.378.153-.688.315-.162.641-.342.727-.701.015-.074-.096-.077-.139-.074zm-.557.546c-.356.234-.761.355-1.086.638-.034.028-.048.084.002.105.394.166.769.349 1.022.683-.529-.011-1.007-.244-1.551-.111-.056.013-.173.071-.123.144.315.459.588.618.679 1.061a2.021 2.021 0 0 0-.763-.48c-.075-.024-.231.02-.252.106l-.085.354c-.09-.228-.155-.482-.22-.723.071-.037.115-.095.044-.14-.032-.021-.066-.037-.099-.056a3.944 3.944 0 0 0-.066-.208c-.034-.097-.26-.047-.306.036a1.756 1.756 0 0 0-1.19-.005v-.167c.421-.001.92-.03 1.181-.369.022-.029.027-.052.024-.072.045-.024.079-.059.075-.1-.044-.466-.011-.926-.052-1.392.002-.005.002-.008 0-.012l-.001-.021c-.034-.352-.255-.703-.406-1.043.531.162 1.158.543 1.138 1.085-.005.139.285.063.314-.037.098-.337.272-.631.521-.873.045.517-.026.953-.186 1.462-.017.053.061.072.097.073.333.008.284.013.618-.045.116-.021.229-.051.341-.089.279-.188.39-.122.33.196zM53.808 49.489c-1.274 1.62-2.917 2.762-4.687 3.804-1.938 1.142-4.461 2.241-6.737 2.365-.104.005-.337.168-.127.157 2.182-.118 4.452-1.065 6.361-2.063 2.063-1.077 4.037-2.436 5.479-4.267.079-.1-.233-.068-.289.004zM23.964 53.644c-.946-.222-1.769-.729-2.672-1.067-1.108-.414-2.157-.834-3.182-1.432-1.893-1.104-3.292-2.83-4.054-4.852-.104-.276-.728-.101-.627.166a10.004 10.004 0 0 0 3.671 4.72c.859.598 1.848 1.068 2.822 1.451 1.199.47 2.424 1.13 3.679 1.424.263.062.742-.321.363-.41z"/></svg>