  <svg fill= "#795F46" xmlns="http://www.w3.org/2000/svg" xmlns:xlink="http://www.w3.org/1999/xlink" id="Layer_1" x="0px" y="0px" width="70px" height="70px" viewBox="0 0 70 70" xml:space="preserve"><g>	<path d="M24.417,31.823c1.453,0.699,3.018,1.153,4.594,1.492c1.688,0.362,3.483,0.218,5.195,0.2  c1.879-0.02,3.731,0.229,5.597-0.081c1.568-0.261,3.228-0.59,4.728-1.115c2.401-0.842,5.101-2.676,5.194-5.394  c0.011-0.321-0.625-0.228-0.635,0.048c-0.094,2.691-2.947,4.407-5.319,5.14c-1.17,0.361-2.419,0.562-3.617,0.814  c-1.544,0.327-3.085,0.206-4.648,0.155c-2.761-0.09-5.332,0.099-8.026-0.661c-1.14-0.322-2.369-0.702-3.331-1.405  c-0.5-0.365-0.848-1.104-1.074-1.653c-0.145-0.349-0.371-1.575,0.125-1.833c0.378-0.198,0.037-0.523-0.276-0.36  c-0.734,0.382-0.713,1.352-0.568,2.06C22.581,30.332,23.412,31.34,24.417,31.823z"></path>	<path d="M24.058,26.475c0.418-0.787,1.479-1.072,2.24-1.431c0.992-0.469,1.938-0.978,2.976-1.348  c2.371-0.846,4.795-0.78,7.271-0.709c2.404,0.069,4.778,0.063,7.162,0.444c0.9,0.143,1.784,0.351,2.622,0.714  c1.055,0.458,1.392,1.513,1.772,2.496c0.072,0.184,0.689-0.005,0.627-0.166c-0.371-0.957-0.678-1.879-1.591-2.444  c-0.775-0.48-1.751-0.657-2.637-0.825c-2.922-0.555-5.897-0.466-8.855-0.554c-2.541-0.076-4.911,0.184-7.292,1.101  c-1.06,0.408-2.048,0.982-3.084,1.449c-0.694,0.313-1.466,0.673-1.835,1.367C23.362,26.704,23.965,26.649,24.058,26.475z"></path>	<path d="M40.66,25.21c-0.275-1.677-2.92-1.445-4.121-1.366c-1.797,0.118-3.816,0.299-5.225,1.528  c-1.644,1.434-1.725,4.036-3.054,5.708c-0.175,0.221,0.458,0.175,0.585,0.016c0.814-1.024,1.211-2.208,1.671-3.411  c0.306-0.8,0.712-1.575,1.302-2.208c0.662-0.711,1.778-0.935,2.697-1.079c1.494-0.234,3.56-0.57,4.97,0.119  c0.686,0.334,0.702,1.394,0.385,1.958c-0.35,0.617-1.254,0.896-1.866,1.171c-0.397,0.178-0.033,0.386,0.249,0.26  C39.462,27.364,40.916,26.771,40.66,25.21z"></path>	<path d="M41.943,31.489c1.522-0.506,2.21-1.264,1.72-2.894c-0.422-1.402-2.782-1.216-3.943-1.148  c-0.187,0.011-0.68,0.309-0.262,0.285c0.712-0.042,1.387,0.021,2.09,0.108c0.896,0.112,1.304,0.307,1.565,1.176  c0.313,1.044-0.007,1.755-1.072,2.184c-0.781,0.315-1.677,0.387-2.508,0.5c-1.812,0.248-3.548-0.027-5.334-0.289  c-1.468-0.214-2.978-0.244-4.46-0.253c-0.191-0.001-0.682,0.282-0.263,0.285C33.603,31.469,37.894,32.835,41.943,31.489z"></path>	<path d="M33.522,30.941c1.342,0.042,2.678,0.164,4.019,0.053c0.914-0.075,2.565-0.363,3.185-1.125  c0.543-0.67-0.057-1.156-0.731-1.375c-0.795-0.257-1.769-0.101-2.566,0.061c-0.39,0.079-0.283,0.444,0.1,0.366  c0.557-0.113,1.113-0.156,1.681-0.121c0.206,0.013,1.785,0.359,0.833,1.044c-0.42,0.302-0.98,0.453-1.473,0.589  c-1.071,0.297-2.219,0.256-3.348,0.187c0.49-0.101,0.969-0.268,1.433-0.543c0.345-0.204,0.809-0.913,0.367-1.269  c-0.381-0.306-0.823-0.301-1.287-0.261c1.107-0.494,2.979-1.11,3.091-2.368c0.081-0.917-1.167-1.078-1.806-1.089  c-1.19-0.021-2.475,0.359-3.457,1.008c-0.684,0.452-1.292,0.977-1.823,1.597c-0.592,0.693-0.86,1.582-1.532,2.225  c-0.304,0.292,0.185,0.531,0.422,0.304c0.633-0.606,0.993-1.349,1.459-2.078c0.72-1.129,2.035-1.977,3.304-2.365  c0.68-0.208,1.561-0.31,2.251-0.135c1.248,0.314-0.088,1.436-0.648,1.721c-0.452,0.23-0.905,0.458-1.358,0.686  c0.093-0.139,0.153-0.292,0.156-0.467c0.005-0.441-0.544-0.501-0.862-0.493c-1.396,0.034-2.704,1.458-3.606,2.345  c-0.271,0.267,0.342,0.315,0.515,0.145c0.569-0.561,1.147-1.103,1.808-1.559c0.361-0.249,0.774-0.464,1.214-0.53  c0.761-0.114-0.118,0.816-0.235,0.91c-0.331,0.265,0.185,0.411,0.403,0.236c0.001,0,0.002-0.001,0.003-0.002  c0.063,0.068,0.172,0.109,0.292,0.087c-0.067,0.104-0.025,0.213,0.221,0.191c0.773-0.071,1.796,0.449,0.263,1.207  c-0.587,0.291-1.321,0.284-1.96,0.284c-0.743,0-1.484-0.081-2.227-0.093c-0.247-0.003-0.665,0.361-0.24,0.367  c0.662,0.011,1.325,0.061,1.979,0.075C33.304,30.849,33.328,30.935,33.522,30.941z"></path>	<path d="M28.482,28.218c-0.364,1.054-1.067,2.213-2.266,2.439c-0.287,0.054-0.522,0.409-0.09,0.327  c1.532-0.289,2.496-1.438,2.982-2.849C29.178,27.936,28.552,28.019,28.482,28.218z"></path>	<path d="M28.473,32.071c0.748-0.003,1.507-0.046,2.227,0.193c0.279,0.093,0.737-0.303,0.358-0.429  c-0.822-0.274-1.679-0.237-2.534-0.234C28.159,31.603,28.047,32.072,28.473,32.071z"></path>	<path d="M45.542,26.814c-0.724-0.448-1.633-0.593-2.507-0.521c0.336-0.229,0.598-0.533,0.676-0.975  c0.024-0.141-0.592-0.037-0.618,0.11c-0.083,0.471-0.359,0.753-0.726,0.963c-0.181,0.038-0.358,0.084-0.528,0.14  c-0.37,0.121-0.281,0.477,0.097,0.354c0.996-0.325,2.206-0.312,3.113,0.251C45.247,27.259,45.817,26.985,45.542,26.814z"></path>	<path d="M41.418,43.722c3.434-1.521,5.151-5.151,6.261-8.497c0.038-0.117-0.567-0.045-0.618,0.11  c-1.063,3.205-2.699,6.845-6.003,8.311C40.681,43.813,41.273,43.787,41.418,43.722z"></path>	<path d="M27.244,40.631c-0.145-0.225-0.746,0.004-0.575,0.267c0.9,1.386,1.935,2.408,3.567,2.88  c0.256,0.074,0.742-0.293,0.366-0.401C29.048,42.927,28.096,41.943,27.244,40.631z"></path>	<path d="M25.43,35.875c-0.024-0.171-0.655-0.034-0.627,0.166c0.115,0.823,0.244,1.652,0.577,2.421  c0.081,0.188,0.695-0.01,0.627-0.166C25.675,37.527,25.545,36.698,25.43,35.875z"></path>	<path d="M55.479,43.37c1.768-0.213,3.32-1.238,4.771-2.212c0.099-0.065,0.087-0.113-0.032-0.121  c-0.279-0.019-0.578-0.027-0.875-0.057c-0.032-0.022-0.077-0.039-0.141-0.046c-0.141-0.016-0.28-0.033-0.42-0.05  c-0.297-0.077-0.571-0.202-0.795-0.415c1.455-0.162,2.925-0.922,3.954-1.833c0.261,0.229,0.48,0.513,0.648,0.873  c0.062,0.132,0.472,0.015,0.471-0.125c-0.008-1.622,0.601-3.275-0.448-4.722c-0.434-0.6-1.317-0.519-1.73-1.193  c-0.367-0.6-0.252-1.453-0.54-2.104c-0.629-1.422-2.946-2.956-4.62-2.358c0.021-0.024,0.039-0.049,0.048-0.081  c0.088-0.293-0.057-0.513-0.319-0.635c-0.233-0.107-0.299-0.319-0.337-0.545c0.092-0.03,0.172-0.086,0.222-0.171  c0.117-0.199,0.246-0.39,0.374-0.582c0.048,0.425,0.188,0.831,0.593,0.852c0.492,0.026,0.683-0.74,0.778-1.25  c0.334,0.396,0.698,0.917,1.203,0.427c0.489-0.474-1.194-1.084,0.244-1.495c0.253-0.072,0.44-0.188,0.601-0.344  c1.721-0.358,4.489-0.083,4.941,1.899c0.183,0.803-0.021,1.636-0.341,2.454c0.234-0.915-0.139-1.66-1.002-2.196  c-0.422-0.262-0.914-0.368-1.393-0.473c-1.065-0.234-1.848-0.518-2.779-1.073c-0.131-0.078-0.543,0.11-0.439,0.172  c0.969,0.577,1.81,0.903,2.923,1.128c0.287,0.058,0.566,0.141,0.827,0.248c-0.007,0.021-0.011,0.044-0.006,0.068  c0.322,1.598,0.671,3.18,0.7,4.816c0.005,0.225,0.403,0.183,0.464,0.009c0.568-1.657,2.389-4.228,1.259-6  c-0.92-1.442-3.178-1.693-4.846-1.44c0.006-0.01,0.013-0.02,0.02-0.03c0.03-0.049-0.008-0.083-0.054-0.098  c-0.245-0.079-0.209-0.067-0.479-0.089c0.004,0.001-0.887,0.063-0.684-0.136c0.302-0.294,0.592-0.415,0.659-0.85  c0.005-0.039-0.027-0.066-0.063-0.073c-0.316-0.058-0.3-0.055-0.631-0.028c-0.174,0.014-0.853,0.342-0.6-0.02  c0.211-0.303,0.6-0.625,0.481-1.025c0.251-0.383,0.496-0.77,0.739-1.158c0.854,1.189,2.127,1.356,3.646,0.888  c0.894-0.274,2.823-1.306,2.604,0.321c-0.085,0.635-0.345,1.232-0.376,1.877c-0.005,0.094,0.432-0.008,0.468-0.102  c0.319-0.848,1.041-1.697,1.104-2.619c0.05-0.716-0.063-1.657-0.87-1.86c-0.888-0.224-2.064-0.369-2.969-0.2  c-1.181,0.222-2.142,0.964-3.302,1.203c0.03-0.049,0.061-0.098,0.091-0.147c0.294-0.474,0.561-1.078,0.906-1.571  c0.101-0.003,0.22-0.023,0.266-0.051c0.096-0.06,0.192-0.119,0.288-0.178c0.029-0.018,0.055-0.048,0.052-0.083  c0.013-0.112-0.024-0.207-0.108-0.285c-0.074-0.112-0.339-0.029-0.419,0.041c-0.407,0.354-0.629,0.799-0.882,1.266  c-0.065,0.121-0.137,0.238-0.205,0.358c0.332-1.61,0.085-3.189-0.694-4.656c-0.691-1.3-2.316-2.067-3.297-3.157  c-0.084-0.093-0.431-0.003-0.454,0.12c-0.338,1.736,0.06,3.469,0.725,5.084c0.613,1.492,1.477,2.236,2.999,2.749  c0.053,0.018,0.155-0.005,0.246-0.041c-0.013,0.061-0.024,0.124-0.039,0.183c-0.023,0.102,0.181,0.099,0.328,0.044  c-0.037,0.061-0.076,0.121-0.113,0.182c-0.145,0.024-0.314,0.108-0.287,0.159c0.028,0.056,0.06,0.106,0.09,0.159  c-0.292,0.463-0.594,0.92-0.893,1.374c-0.339,0.087-0.83,0.395-1.114,0.583c-0.116-0.489-0.233-0.827-0.754-1.055  c-0.015-0.006-0.034-0.009-0.054-0.012c-0.572-1.026-1.87-2.163-2.995-2.574c-0.36-0.132-0.739-0.224-1.109-0.055  c-0.895,0.41-1.719,0.563-2.676,0.738c-0.084,0.016-0.317,0.192-0.147,0.263c0.842,0.352,1.771,0.468,2.563,0.928  c0.539,0.313,0.936,0.862,1.294,1.428c-0.12,0.027-0.237,0.083-0.229,0.146c0.141,1.057,0.304,2.099,0.252,3.169  c-0.004,0.074,0.464,0.016,0.471-0.125c0-0.013,0-0.026,0.001-0.039c0.036,0.013,0.077,0.021,0.124,0.023  c0.256,0.01,0.497-0.009,0.75-0.058c0.341-0.066,0.43-0.244,0.226,0.008c-0.176,0.216-0.165,0.298-0.213,0.555  c-0.011,0.055,0.055,0.076,0.098,0.078c0.517,0.022,0.962-0.188,1.392-0.441c-0.004,0.057-0.01,0.113-0.022,0.17  c-0.016,0.071,0.029,0.111,0.102,0.128c0,0.005,0,0.012,0,0.017c-0.103,0.025-0.196,0.086-0.251,0.179  c-0.153,0.26-0.326,0.507-0.492,0.76c-0.138-0.159-0.373-0.218-0.58-0.261c-0.57-0.12-1.006,0.233-1.332,0.646  c-0.011-0.007-0.022-0.017-0.034-0.023c0.253-0.331,0.289-0.733,0.378-1.172c0.039-0.191-0.438-0.118-0.472,0.053  c-0.07,0.345-0.078,0.751-0.29,1.042c-0.294,0.041-0.565,0.292-0.716,0.622c-0.283-0.016-0.577-0.076-0.789-0.268  c-0.066-0.061-0.17-0.068-0.269-0.044c-0.217-1.844-1.216-3.311-2.747-4.362c0.017-0.023,0.026-0.046,0.016-0.07  c-0.209-0.451-0.182-0.939-0.181-1.424c0.001-0.135-0.47-0.051-0.471,0.125c-0.001,0.338-0.012,0.678,0.051,1.006  c-2.714-1.561-6.088-1.707-9.14-1.715c-3.027-0.008-6.047,0.26-8.984,1.003c-2.972,0.751-9.129,2.584-8.484,6.634  c0,0.017,0.001,0.034,0.006,0.052c0.023,0.083,0.053,0.162,0.08,0.243c-1.972-0.186-3.968,0.311-5.604,1.425  c-2.168,1.477-2.655,4.009-2.372,6.451c0.1,0.857,0.332,1.729,0.689,2.548c-0.05,0.02-0.091,0.046-0.11,0.077  c-0.661,1.079-1.445,2.196-1.644,3.471c-0.256,1.646,0.178,3.209,0.975,4.654c1.387,2.518,3.257,4.415,5.942,5.542  c5.628,2.361,11.617,3.374,17.696,3.438c2.982,0.031,5.859-0.532,8.779-1.107c2.533-0.499,4.901-1.725,6.855-3.373  c1.926-1.624,3.472-3.554,3.771-6.096C56.092,45.208,55.883,44.25,55.479,43.37z M62.397,27.62c0.752,0.482,1.176,1.246,0.762,2.3  c-0.042,0.108,0.281,0.084,0.416-0.01c-0.19,0.439-0.401,0.873-0.596,1.293C62.875,29.996,62.638,28.811,62.397,27.62z   M55.87,17.416c-0.625-1.4-0.977-2.989-0.804-4.519c0.891,0.854,1.957,1.516,2.731,2.477c0.994,1.235,1.16,3.145,0.886,4.673  C57.234,19.54,56.503,18.838,55.87,17.416z M65.016,19.98c0.95,0.133,0.847,1.682,0.66,2.299c-0.038,0.126-0.086,0.249-0.138,0.37  c0.108-0.619,0.066-1.181-0.538-1.292c-0.638-0.117-1.408,0.241-1.98,0.452c-1.734,0.637-2.999,0.567-3.868-0.855  c0.537-0.122,1.021-0.318,1.52-0.565C62.157,19.654,63.469,19.762,65.016,19.98z M52.066,21.106  c-0.704-0.525-1.53-0.674-2.339-0.941c0.358-0.04,0.716-0.075,1.071-0.162c0.729-0.179,0.967-0.856,1.973-0.288  c1.016,0.574,2.036,1.323,2.605,2.346c0.025,0.046,0.083,0.065,0.147,0.064c-0.2,0.569-0.207,1.159-0.148,1.757  c-0.526-0.093-1.014-0.305-1.532-0.423C53.295,22.68,52.841,21.685,52.066,21.106z M53.239,25.227  c-0.011-0.718-0.099-1.427-0.195-2.139c0.102,0.167,0.204,0.33,0.307,0.482c-0.113,0.479,0.478,0.716,0.85,0.891  c0.322,0.15,0.24,0.024-0.109,0.21C53.787,24.833,53.498,25.004,53.239,25.227z M54.803,25.515  c0.079-0.098-0.128-0.102-0.171-0.093c-0.114,0.023-0.229,0.047-0.343,0.071c-0.392,0.21-0.59,0.087-0.592-0.371  c0.3-0.221,0.652-0.385,0.995-0.531c0.048-0.021,0.15-0.109,0.06-0.151c-0.282-0.129-0.904-0.315-1.061-0.655  c0.071-0.015,0.142-0.047,0.185-0.09c0.537,0.145,1.051,0.355,1.612,0.412c0.076,0.007,0.228-0.041,0.217-0.137  c-0.058-0.506-0.063-0.991,0.008-1.493c0.109-0.783,0.598,0.577,0.625,0.695c0.022,0.099,0.205,0.043,0.256,0.012  c0.332-0.202,0.646-0.422,0.997-0.593c0.368-0.181-0.178,0.734-0.154,0.703c-0.104,0.137-0.205,0.26-0.277,0.417  c-0.04,0.087,0.063,0.105,0.128,0.101c0.068-0.004,1.438-0.11,1.045,0.288c-0.22,0.223-0.459,0.359-0.633,0.626  c-0.039,0.061,0.034,0.103,0.089,0.103c0.088,0.001,0.176,0,0.265-0.003c0.085-0.007,0.171-0.014,0.256-0.021  c0.467-0.117,0.443,0.09-0.07,0.622c-0.168,0.048-0.361,0.113-0.491,0.238c-0.176,0.167-0.129,0.282-0.089,0.481  c0.004,0.007,0.008,0.014,0.012,0.021c0.2,0.208,0.163,0.412-0.113,0.613c-0.179-0.174-0.223-0.392-0.431-0.56  c-0.076-0.063-0.279-0.032-0.302,0.08c-0.024,0.118-0.341,1.457-0.581,1.246c-0.211-0.186-0.243-0.634-0.245-1  c0.014-0.021,0.026-0.042,0.039-0.063c0.046-0.076,0.018-0.145-0.036-0.194c0.001-0.04,0.001-0.077,0.001-0.11  c0.106-0.037,0.194-0.098,0.211-0.173c0.024-0.106,0.026-0.211,0.026-0.32c0.002-0.139-0.16-0.15-0.271-0.137  c-0.038,0.004-0.103,0.02-0.167,0.043c-0.031,0.004-0.061,0.011-0.083,0.025c-0.229,0.149-0.468,0.284-0.715,0.405  C54.579,25.894,54.511,25.726,54.803,25.515z M58.268,42.123c-0.875,0.53-1.837,1.007-2.883,1.044  c-0.344-0.689-0.806-1.332-1.32-1.947c0.062,0.043,0.15,0.065,0.269,0.039c0.152-0.035,0.306-0.063,0.46-0.086  c0.448,0.412,0.79,0.884,1.359,1.155c0.262,0.125,0.722-0.249,0.36-0.421c-0.382-0.183-0.663-0.499-0.95-0.805  c1.139-0.045,2.298,0.148,3.419,0.275c0.125,0.015,0.254-0.049,0.335-0.132c0.097,0.006,0.192,0.01,0.285,0.016  C59.338,41.245,58.517,41.973,58.268,42.123z M55.027,40.706c-0.01,0.001-0.021,0.003-0.031,0.004  c-0.259,0.03-0.518,0.071-0.775,0.131c-0.21,0.048-0.271,0.189-0.225,0.297c-0.139-0.164-0.28-0.327-0.425-0.487  c0.5-0.421,1.046-0.779,1.595-1.137c0.217,0.186,0.398,0.393,0.615,0.563c-0.146,0.115-0.305,0.213-0.439,0.341  c-0.109,0.104,0.095,0.144,0.159,0.143c0.15-0.004,0.309-0.055,0.417-0.159c0.051-0.049,0.107-0.092,0.164-0.134  c0.084,0.041,0.173,0.079,0.274,0.105c0.348,0.091,0.707,0.13,1.07,0.13c-0.074,0.042-0.119,0.087-0.091,0.116  c0.039,0.042,0.08,0.081,0.123,0.117C56.648,40.655,55.833,40.617,55.027,40.706z M52.916,39.944  c-0.272-0.287-0.559-0.563-0.856-0.827c0.296-0.076,0.601-0.117,0.909-0.121c0.146-0.002,0.329-0.042,0.413-0.175  c0.002-0.004,0.002-0.008,0.005-0.012c0.501,0.178,1.048,0.23,1.505,0.508c-0.529,0.346-1.062,0.685-1.559,1.072  C53.194,40.24,53.055,40.09,52.916,39.944z M49.433,37.457c-0.054-0.021-0.138-0.009-0.226,0.017  c0.123-0.414,0.239-0.829,0.348-1.243c0.263,0.225,0.526,0.211,0.879,0.106c0.443,1.138,1.404,1.792,2.509,2.289  c-0.411,0.023-0.815,0.093-1.207,0.214C51.041,38.27,50.276,37.787,49.433,37.457z M50.471,32.43  c0.354,0.093,0.597,0.258,0.493,0.712c-0.068,0.297-0.408,0.383-0.301,0.746c0.069,0.227,0.685,0.101,0.57,0.527  c-0.033,0.125-0.138,0.263-0.188,0.383c-0.069,0.164-0.004,0.221-0.049,0.357c-0.088,0.008-0.176,0.014-0.263,0.026  c-0.062,0.008-0.412,0.092-0.368,0.209c0.047,0.114,0.086,0.23,0.115,0.35c-0.18,0.379-0.34,0.421-0.481,0.126  c-0.05-0.06-0.209-0.043-0.352,0.004c0.009-0.035,0.018-0.069,0.026-0.104C49.949,34.68,50.241,33.561,50.471,32.43z   M52.589,37.928c-0.745-0.47-1.324-1.097-1.602-1.977c0.062-0.117,0.09-0.247,0.08-0.389c0.419,0.076,0.818,0.209,1.212,0.36  c-0.072,0.027-0.129,0.065-0.132,0.114C52.104,36.688,52.134,37.429,52.589,37.928z M51.043,35.395  c0.003,0,0.007-0.001,0.011-0.001c-0.004,0.001-0.007,0.003-0.01,0.004C51.044,35.396,51.043,35.396,51.043,35.395z M61.514,38.565  c-0.796,0.743-1.771,1.259-2.822,1.557c-1.381,0.39-2.162-0.096-3.108-0.952c-0.331-0.299-0.826-0.44-1.319-0.568  c0.067-0.036,0.109-0.083,0.086-0.125c-0.315-0.547-0.434-1.16-0.596-1.762c-0.042-0.155-0.512-0.03-0.471,0.124  c0.151,0.559,0.266,1.128,0.534,1.646c-0.215-0.06-0.419-0.126-0.598-0.21c-0.114-0.054-0.225-0.111-0.333-0.171  c0.158-0.02,0.373-0.132,0.313-0.18c-0.563-0.445-0.623-1.202-0.589-1.872c0.466,0.187,0.932,0.377,1.421,0.503  c0.72,0.183,1.456,0.245,2.195,0.266c0.139,1.059,0.731,2.137,1.495,2.872c0.158,0.152,0.56-0.084,0.359-0.276  c-0.688-0.663-1.206-1.633-1.365-2.586c0.002,0,0.003,0,0.005,0c0.094,0.001,0.282-0.089,0.314-0.152  c1.391,0.966,3.425,0.86,4.708,1.802C61.643,38.5,61.55,38.531,61.514,38.565z M62.586,38.673c0.018-0.004,0.036-0.009,0.053-0.015  c-0.002,0.021-0.004,0.043-0.007,0.065C62.618,38.707,62.602,38.69,62.586,38.673z M62.444,35.27  c0.498,0.932,0.355,1.986,0.236,3.019c-0.447-0.685-0.78-1.426-1.365-2.019c-0.104-0.105-0.221-0.199-0.345-0.287  c0.245,0.072,0.481,0.171,0.713,0.284c0.087,0.043,0.219,0.003,0.304-0.027c0.013-0.005,0.216-0.093,0.141-0.13  c-0.354-0.172-0.719-0.322-1.111-0.384c-0.108-0.018-0.23,0.015-0.328,0.06c-0.003,0.001-0.007,0.003-0.011,0.005  c-0.212-0.129-0.429-0.251-0.627-0.383c-0.106-0.071-0.201-0.152-0.291-0.238c0.016-0.105-0.065-0.162-0.167-0.173  c-0.114-0.132-0.219-0.272-0.316-0.419c0.826,0.001,1.636,0.027,2.437,0.258c0.075,0.022,0.188-0.013,0.27-0.065  C62.167,34.901,62.33,35.058,62.444,35.27z M61.309,34.397c-0.63-0.106-1.267-0.123-1.915-0.124c-0.083,0-0.178,0.05-0.241,0.109  c-0.084-0.135-0.165-0.273-0.245-0.408c-0.212-0.356-0.415-0.702-0.622-1.037c0.664,0.053,1.289,0.209,1.865,0.592  c0.055,0.036,0.15,0.029,0.237,0c0.009,0.021,0.015,0.042,0.022,0.062C60.566,33.997,60.925,34.203,61.309,34.397z M59.16,30.415  c0.826,0.811,0.835,1.752,1.104,2.723c-0.669-0.366-1.405-0.488-2.173-0.507c-0.26-0.403-0.531-0.783-0.837-1.132  c0.75-0.107,1.676-0.205,2.158,0.448c0.074,0.1,0.526-0.051,0.442-0.166c-0.598-0.805-1.889-0.571-2.752-0.448  c-0.477-0.508-1.041-0.944-1.771-1.275c0.062-0.107,0.105-0.236,0.125-0.391c0.012-0.093,0.021-0.184,0.034-0.276  C56.494,28.63,58.432,29.7,59.16,30.415z M54.45,27.647c0.073,0.293,0.077,0.544,0.254,0.802c0.034,0.049,0.189,0.103,0.241,0.122  c0.371,0.14,0.174,0.444,0.009,0.622c-0.177,0.191,0.012,0.986-0.388,0.963c-0.215-0.012-0.676,0.292-0.254,0.316  c0.311,0.018,0.578-0.029,0.778-0.161c0.614,0.31,1.112,0.703,1.54,1.155c-0.021,0.016-0.037,0.033-0.046,0.052  c-0.363,0.794-0.752,1.782-0.434,2.649c0.059,0.157,0.524,0.021,0.472-0.125c-0.27-0.732-0.015-1.551,0.288-2.261  c0.264,0.315,0.504,0.651,0.732,1.004c-0.04,0.06-0.03,0.115,0.079,0.126c0.146,0.23,0.289,0.466,0.433,0.707  c-0.089-0.002-0.183,0.026-0.235,0.091c-0.483,0.611-1.134,1.575-0.794,2.379c0.091,0.216,0.559,0.085,0.471-0.124  c-0.299-0.706,0.283-1.552,0.709-2.093c0.094,0.159,0.188,0.318,0.283,0.48c0.208,0.349,0.432,0.626,0.683,0.87  c-0.158,0.477-0.294,0.952-0.256,1.46c0.019,0.256,0.494,0.192,0.479-0.029c-0.028-0.385,0.042-0.746,0.148-1.105  c0.219,0.171,0.459,0.333,0.729,0.501c0.852,0.531,1.239,1.403,1.742,2.21c-1.247-0.867-3.12-0.822-4.478-1.623  c-1.838-1.083-3.15-3.979-2.854-6.04c0.021-0.148-0.448-0.06-0.467,0.071c-0.229,1.601,0.406,3.239,1.369,4.567  c-0.08,0.017-0.16,0.05-0.215,0.105c-0.252,0.251-0.479,0.527-0.667,0.83c-0.053,0.083,0.171,0.072,0.194,0.068  c0.1-0.015,0.217-0.052,0.271-0.141c0.154-0.247,0.345-0.474,0.547-0.684c0.243,0.318,0.504,0.618,0.776,0.892  c0.113,0.114,0.235,0.218,0.361,0.312c-0.011-0.002-0.021-0.003-0.034-0.003c-0.077,0-0.155-0.003-0.233-0.005  c-0.002-0.019-0.007-0.038-0.008-0.057c-0.019-0.195-0.377-0.133-0.456,0.04c-0.847-0.045-1.673-0.165-2.491-0.438  c-0.002,0-0.002,0-0.003-0.001c0.056-0.016,0.108-0.042,0.146-0.079c0.335-0.329,0.692-0.634,1.028-0.962  c0.071-0.07,0.051-0.157-0.05-0.181c-0.108-0.027-0.252,0.009-0.332,0.088c-0.336,0.328-0.693,0.633-1.028,0.961  c-0.025,0.025-0.035,0.052-0.038,0.077c-0.714-0.264-1.381-0.591-2.146-0.719c0.088-0.029,0.166-0.069,0.226-0.129  c0.198-0.201,0.093-0.42,0.198-0.668c0.071-0.169,0.173-0.262,0.131-0.45c-0.015-0.066-0.079-0.135-0.158-0.194  c0.958,0.076,1.875,0.301,2.81,0.554c0.159,0.043,0.556-0.19,0.285-0.263c-1.147-0.31-2.267-0.578-3.461-0.595  c-0.01,0-0.021,0-0.03,0.002c0.005-0.221,0.289-0.609,0.321-0.749c0.032-0.139,0.004-0.25-0.058-0.341  c0.021-0.018,0.035-0.036,0.04-0.056c0.175-0.733,1.029-1.233,1.543-1.731c0.082-0.079-0.025-0.1-0.101-0.102  c0.126-0.076,0.19-0.163,0.013-0.189c-0.444-0.063-0.486-0.261-0.554-0.629c-0.068-0.362,0.364-0.482,0.165-0.81  c-0.176-0.289-0.292-0.422-0.245-0.772c0.017-0.131,0.066-0.259,0.13-0.376c0.07,0.072,0.132,0.15,0.178,0.239  c0.093,0.142,0.514-0.01,0.582-0.119c0.092-0.148,0.185-0.293,0.282-0.437C53.862,27.146,54.348,27.236,54.45,27.647z   M51.784,28.523c-0.008,0.136,0.007,0.301,0.079,0.402c0.155,0.213,0.225,0.439,0.058,0.662c-0.044,0.058-0.082,0.151-0.067,0.223  c0.111,0.549,0.209,0.824,0.785,0.918c-0.018,0.012-0.037,0.022-0.052,0.037c-0.447,0.433-1.145,0.873-1.461,1.455  c-0.113-0.037-0.229-0.063-0.326-0.082c-0.059-0.011-0.172,0.017-0.282,0.058c0.251-1.285,0.412-2.583,0.365-3.865  C51.154,28.465,51.477,28.509,51.784,28.523z M30.075,22.59c2.697-0.644,5.47-0.822,8.236-0.831c3.244-0.011,6.698,0.25,9.469,2.09  c1.465,0.973,2.146,2.372,2.369,3.913c-0.702,3.304-4.336,4.832-7.143,5.931c-2.182,0.854-4.575,0.843-6.885,0.817  c-2.054-0.023-4.026-0.178-6.057-0.486c-0.146-0.022-0.681,0.21-0.517,0.235c2.203,0.334,4.322,0.476,6.55,0.501  c2.133,0.024,4.355-0.013,6.399-0.684c1.74-0.571,3.592-1.202,5.083-2.278c0.987-0.711,2.02-1.688,2.657-2.811  c0.001,0.483-0.03,0.973-0.089,1.461c-0.336,2.801-1.075,5.679-1.97,8.352c-0.965,2.88-2.46,5.7-5.184,7.286  c-2.61,1.521-5.609,1.518-8.533,1.375c-2.226-0.108-4.308-0.006-6.2-1.371c-1.574-1.136-2.62-3.283-3.444-4.965  c-0.917-1.872-1.545-3.879-2.016-5.901c-0.264-1.136-0.154-2.292-0.239-3.445c-0.001-0.018-0.004-0.036-0.006-0.054  c1.493,1.384,3.834,2.113,5.74,2.38c0.145,0.02,0.726-0.223,0.402-0.268c-2.203-0.309-5.081-1.305-6.33-3.232  c-0.024-0.037-0.073-0.053-0.134-0.055c-0.235-0.571-0.536-1.125-0.7-1.709C20.854,24.912,27.256,23.265,30.075,22.59z   M21.609,33.725c-1.826,0.508-3.886,1.598-4.938,3.238c-0.177-1.037-0.022-2.24,0.234-3.103c0.295-0.992,1.209-1.754,2.188-2.027  c0.762-0.212,1.944-0.26,2.431,0.468c0.06,0.09,0.28,0.066,0.438-0.007c0.021,0.38,0.012,0.764,0.011,1.144  c-0.005,1.517,0.421,2.973,0.867,4.414c0.284,0.917,0.624,1.828,1.014,2.72c-0.021-0.003-0.044-0.005-0.072-0.005  c-2.327,0-5.472-0.244-6.747-2.509c-0.106-0.188-0.188-0.397-0.253-0.617c0.128-0.02,0.256-0.074,0.297-0.151  c0.89-1.637,2.859-2.739,4.621-3.228C22.076,33.955,21.987,33.62,21.609,33.725z M14.452,32.145  c1.281-2.076,4.014-2.931,6.349-2.621c0.053,0.007,0.155-0.019,0.258-0.056c0.187,0.51,0.424,0.999,0.634,1.502  c0.118,0.283,0.187,0.576,0.228,0.873c-0.869-0.85-2.681-0.414-3.657-0.033c-1.948,0.76-2.303,2.893-2.218,4.706  c0.177,3.772,4.414,4.376,7.485,4.376c0.117,0,0.301-0.094,0.382-0.182c0.434,0.977,0.93,1.926,1.49,2.832  c-0.157,0.068-0.303,0.16-0.418,0.282c-0.018,0.005-0.035,0.011-0.047,0.017c-1.165,0.546-2.722-0.045-3.958-0.102  c-1.368-0.063-2.729-0.375-3.936-1.018c-1.808-0.964-2.8-3.006-3.25-4.896C13.349,35.968,13.429,33.803,14.452,32.145z   M54.315,49.504c-1.524,2.544-4.445,4.536-7.186,5.553c-1.482,0.551-3.066,0.676-4.607,0.985c-1.736,0.35-3.384,0.591-5.163,0.576  c-3.085-0.026-6.138-0.158-9.169-0.769c-2.843-0.573-5.709-1.475-8.412-2.51c-2.731-1.047-4.578-2.854-6.056-5.328  c-0.776-1.299-1.243-2.69-1.231-4.204c0.011-1.358,0.719-2.556,1.42-3.688c0.745,1.465,1.917,2.7,3.507,3.257  c1.537,0.538,3.079,0.526,4.668,0.771c0.961,0.147,1.881,0.231,2.784-0.063c0.068,0.15,0.44,0.15,0.561-0.016  c0.054-0.075,0.082-0.097,0.154-0.145c-0.025,0.017,0.021-0.008,0.051-0.023c0.295,0.458,0.604,0.907,0.933,1.339  c1.606,2.104,4.048,2.577,6.571,2.633c2.64,0.059,5.156,0.271,7.737-0.445c4.712-1.308,6.918-5.365,8.236-9.647  c0.755,0.331,1.445,0.776,2.084,1.298c-0.05,0.051-0.077,0.114-0.024,0.173c0.068,0.076,0.189,0.077,0.296,0.055  c0.51,0.444,0.987,0.935,1.434,1.449c-0.034,0.055,0.007,0.084,0.082,0.094c0.582,0.68,1.115,1.396,1.609,2.099  c0.091,0.129,0.171,0.261,0.245,0.397c-0.054,0.036-0.06,0.064,0.032,0.065C55.844,45.281,55.347,47.784,54.315,49.504z"></path>	<path d="M53.584,30.022c0.013,0.06,0.011,0.118-0.008,0.165c-0.016,0.042-0.02,0.042-0.039,0.067  c-0.009,0.009-0.014,0.014-0.017,0.017c-0.015,0.01-0.071,0.045-0.031,0.024c-0.106,0.056-0.247,0.187-0.149,0.314  c0.092,0.12,0.305,0.107,0.425,0.043c0.303-0.16,0.523-0.443,0.446-0.796C54.15,29.574,53.521,29.735,53.584,30.022z"></path>	<path d="M53.439,29.507c0.095,0.074,0.416-0.044,0.545-0.132c0.027,0.044,0.032,0.114,0.033,0.167  c0.003,0.133,0.291,0.093,0.356,0.076c0.118-0.031,0.274-0.103,0.271-0.242c-0.006-0.292-0.246-0.41-0.517-0.416  c-0.086-0.002-0.188,0.019-0.274,0.061c-0.045-0.239,0.091-0.513,0.19-0.742c0.041-0.092-0.216-0.047-0.245-0.042  c-0.09,0.017-0.327,0.058-0.371,0.158C53.266,28.766,53.053,29.204,53.439,29.507z"></path>	<path d="M55.487,37.088c-0.055-0.173-0.524-0.044-0.472,0.124c0.157,0.501,0.148,1.034,0.559,1.42  c0.126,0.117,0.57-0.06,0.437-0.187C55.62,38.081,55.634,37.564,55.487,37.088z"></path>	<path d="M58.802,39.028c0.098,0.193,0.561,0.055,0.472-0.123c-0.169-0.337-0.319-0.681-0.487-1.017  c-0.098-0.192-0.561-0.054-0.472,0.125C58.484,38.349,58.634,38.693,58.802,39.028z"></path>	<path d="M56.138,25.005c0.205,0.048,0.465-0.022,0.62-0.158c0.089-0.078,0.034-0.217-0.004-0.304  c-0.038-0.089-0.227-0.074-0.389-0.021c-0.018-0.027-0.032-0.056-0.044-0.086c-0.066-0.166-0.683,0.028-0.628,0.166  C55.765,24.781,55.945,24.96,56.138,25.005z"></path>	<path d="M48.075,21.478c0.023-1.137,0.314-2.209,0.666-3.281c0.243,0.479,0.455,0.971,0.774,1.409  c0.081,0.111,0.503-0.079,0.47-0.124c-0.402-0.552-0.634-1.193-0.974-1.781c-0.064-0.111-0.506,0.063-0.471,0.125  c0.001,0.001,0.001,0.001,0.002,0.002c-0.086,0.027-0.162,0.075-0.183,0.138c-0.392,1.166-0.732,2.324-0.758,3.561  C47.597,21.742,48.072,21.655,48.075,21.478z"></path>	<path d="M69.987,46.192c-0.781-0.412-1.283-0.693-2.176-0.509c-0.568,0.117-1.1,0.397-1.601,0.71  c0.261-0.289,0.475-0.625,0.646-0.971c0.351-0.707,0.758-1.83,0.399-2.6c-0.04-0.084-0.23-0.005-0.279,0.028  c-0.566,0.382-1.008,0.873-1.435,1.388c0.07-0.381,0.051-0.787-0.398-0.771c-0.438,0.017-0.636,0.479-0.818,0.889  c-0.063-0.511-0.188-1.022-0.542-1.405c-0.053-0.058-0.286,0.004-0.303,0.079c-0.102,0.459-0.2,0.912-0.33,1.356  c0.033-0.426,0.059-0.848-0.007-1.278c-0.012-0.081-0.281,0.033-0.311,0.069c-0.299,0.352-0.422,0.776-0.616,1.177  c-0.404-0.798-0.525-1.667-0.769-2.528c-0.02-0.071-0.268,0.019-0.298,0.054c-0.832,0.96-0.371,2.128-0.31,3.263  c-0.736-0.662-1.632-1.584-2.521-1.804c-0.054-0.013-0.291,0.021-0.286,0.102c0.055,0.978,0.439,1.907,0.412,2.884  c-0.366-0.24-0.635-0.593-1.01-0.841c-0.045-0.031-0.331,0.027-0.305,0.093c0.213,0.529,0.557,0.982,0.786,1.502  c-0.484,0.01-0.972,0.046-1.435,0.194c-0.419,0.134-0.356,0.579,0.131,0.571c0.506-0.008,0.992,0.169,1.445,0.365  c0.332,0.144,0.13,0.065-0.154,0.13c-0.342,0.078-0.647,0.184-0.956,0.348c-0.835,0.443-1.044,1.533-1.221,2.359  c-0.018,0.081,0.263-0.008,0.295-0.041c0.931-0.916,1.488-1.694,3.079-1.654c0.718,0.018,1.44,0.176,2.137,0.368  c0.002,0.008,0.003,0.016,0.004,0.023c0.014,0.063,0.074,0.084,0.14,0.078c-0.444,0.288-0.852,0.619-1.246,0.965  c-0.039-0.069-0.169-0.098-0.248-0.022c-0.229,0.215-0.405,0.46-0.526,0.725c-0.347,0.317-0.696,0.631-1.063,0.925  c-0.208-0.986,0.006-2.092,0.936-2.652c0.181-0.109,0.015-0.283-0.141-0.188c-1.102,0.665-1.383,1.944-1.06,3.126  c0.029,0.108,0.195,0.082,0.262,0.032c0.316-0.242,0.617-0.501,0.912-0.766c-0.05,0.269-0.046,0.551,0.017,0.84  c0.013,0.061,0.091,0.084,0.145,0.08c0.728-0.063,1.411-0.157,1.992-0.634c0.488-0.401,0.727-1.05,0.983-1.602  c0.078-0.167-0.239-0.179-0.301-0.044c-0.218,0.466-0.415,0.945-0.75,1.344c-0.438,0.523-1.127,0.623-1.771,0.681  c-0.062-0.369-0.021-0.732,0.119-1.061c0.626-0.575,1.25-1.152,1.972-1.616c0.066-0.044,0.071-0.088,0.045-0.12  c0.046-0.001,0.118-0.023,0.175-0.05c0.175,0.076,0.37,0.161,0.395,0.177c0.182,0.109,0.334,0.279,0.447,0.453  c0.168,0.257,0.236,0.618,0.336,0.905c0.132,0.383,0.271,0.877,0.731,0.938c0.403,0.055,0.433-0.459,0.42-0.717  c-0.034-0.679-0.133-1.341-0.143-2.01c0.457,0.822,1.122,1.484,1.781,2.163c0.073,0.076,0.298,0.05,0.302-0.08  c0.026-0.801-0.221-1.492-0.586-2.138c0.173,0.076,0.352,0.143,0.522,0.209c0.92,0.354,1.854,0.65,2.808,0.902  c0.062,0.018,0.296-0.008,0.284-0.106c-0.144-1.196-1.146-1.949-2.28-2.272c0.046-0.02,0.092-0.039,0.137-0.065  c1.012-0.598,1.86-1.364,2.945-1.862C69.949,46.271,70.033,46.215,69.987,46.192z M68.053,47.178  c-0.464,0.317-0.927,0.777-1.487,0.957c-0.306-0.066-0.615-0.104-0.917-0.109c-0.041-0.001-0.313,0.101-0.191,0.139  c0.312,0.101,0.646,0.177,0.97,0.15c0.263,0.079,0.52,0.187,0.767,0.289c0.88,0.366,1.418,0.865,1.588,1.762  c-0.707-0.195-1.404-0.415-2.097-0.66c-0.472-0.166-1.087-0.34-1.462-0.708c-0.29-0.438-0.62-0.86-0.938-1.287  c-0.084-0.113-0.383,0.007-0.287,0.136c0.223,0.299,0.454,0.597,0.672,0.899l0,0c0.06,0.129,0.14,0.238,0.233,0.333  c0.443,0.656,0.797,1.351,0.868,2.151c-0.629-0.648-1.24-1.309-1.617-2.14c-0.021-0.046-0.069-0.064-0.122-0.066  c0.011-0.157,0.026-0.314,0.053-0.473c0.026-0.162-0.295-0.125-0.319,0.021c-0.012,0.069-0.019,0.139-0.027,0.207  c-0.554-0.046-1.085,0.364-1.368,0.804c-0.088,0.137,0.231,0.126,0.297,0.024c0.199-0.31,0.586-0.667,0.985-0.622  c0.021,0.002,0.043-0.001,0.063-0.008c-0.066,0.756,0.021,1.501,0.089,2.261c0.005,0.052,0.063,0.966-0.197,0.632  c-0.199-0.257-0.285-0.639-0.388-0.941c-0.166-0.492-0.326-0.828-0.751-1.153c-0.265-0.202-0.839-0.454-1.161-0.282  c-0.021,0.011-0.038,0.025-0.054,0.041c-0.964-0.254-2.018-0.442-2.979-0.268c-0.982,0.18-1.527,0.736-2.162,1.389  c0.296-1.242,0.723-2.121,2.298-2.282c0.021-0.002,0.278-0.077,0.216-0.112c-0.416-0.236-1.032-0.551-1.524-0.543  c-0.095-0.146-0.19-0.292-0.285-0.438c0.176-0.029,0.353-0.049,0.53-0.061c0.222-0.018,0.446-0.019,0.669-0.02  c0.032,0,0.285-0.037,0.26-0.103c-0.141-0.347-0.336-0.661-0.52-0.982c0.203,0.188,0.413,0.363,0.683,0.471  c0.064,0.025,0.296-0.006,0.305-0.094c0.104-1-0.281-1.943-0.38-2.929c0.896,0.376,1.807,1.391,2.491,1.954  c0.053,0.043,0.303-0.019,0.306-0.094c0.041-1.073-0.485-2.262,0.048-3.238c0.221,0.861,0.361,1.721,0.828,2.502  c0.044,0.073,0.275-0.015,0.312-0.069c0.224-0.336,0.339-0.714,0.516-1.063c0.026,0.521-0.048,1.034-0.069,1.561  c-0.001,0.017,0.042,0.021,0.096,0.017c-0.04,0.096-0.084,0.191-0.131,0.287c-0.033,0.066,0.269,0.038,0.312-0.049  c0.315-0.641,0.481-1.313,0.635-1.999c0.252,0.446,0.308,0.997,0.352,1.495c0.007,0.091,0.269-0.01,0.3-0.047  c0.18-0.219,0.285-0.473,0.404-0.727c0.188-0.398,0.527-0.392,0.476,0.143c-0.018,0.183-0.078,0.366-0.133,0.542  c-0.03,0.1,0.264,0.014,0.299-0.029c0.502-0.605,0.971-1.225,1.595-1.705c0.535,1.449-0.92,3.418-2.005,4.154  c-0.138,0.093,0.181,0.068,0.245,0.026c0.982-0.646,2.31-1.771,3.598-1.385C70.219,46.254,68.567,46.827,68.053,47.178z"></path>	<path d="M65.723,45.165c-1.078,0.233-1.916,0.92-2.675,1.676c-0.159-0.521-0.222-1.063-0.337-1.596  c-0.013-0.056-0.22,0.016-0.246,0.027c-0.79,0.357-1.013,1.401-0.501,2.085c0.053,0.069,0.331-0.061,0.314-0.083  c-0.389-0.519-0.382-1.407,0.142-1.835c0.114,0.561,0.181,1.128,0.374,1.669c0.023,0.064,0.267-0.024,0.298-0.058  c0.389-0.4,0.792-0.781,1.235-1.125c0.166-0.127,0.341-0.241,0.522-0.346c0.173-0.139,0.368-0.205,0.585-0.199  c-0.226,0.296-0.499,0.557-0.761,0.82c-0.685,0.69-1.433,1.407-1.592,2.402c-0.003,0.023,0.3,0.006,0.314-0.083  c0.228-1.424,1.627-2.252,2.449-3.335C65.877,45.146,65.731,45.163,65.723,45.165z"></path>	<path d="M62.504,49.041c-0.103-0.034-0.206-0.06-0.31-0.081c0.059-0.026,0.102-0.068,0.084-0.119  c-0.279-0.789-1.187-0.909-1.922-1.017c-0.524-0.076-1.086-0.108-1.553-0.381c-0.252-0.147,1.033-0.556,1.146-0.574  c0.511-0.084,0.986,0.064,1.4,0.352c0.1,0.068,0.382-0.07,0.245-0.165c-0.995-0.689-2.265-0.415-3.182,0.272  c-0.032,0.023-0.087,0.083-0.043,0.124c0.668,0.634,1.999,0.41,2.866,0.752c-0.54-0.007-1.096,0.255-1.39,0.706  c-0.029,0.044,0.005,0.092,0.052,0.099c0.804,0.121,1.636-0.045,2.417,0.214C62.426,49.258,62.685,49.101,62.504,49.041z   M61.27,48.404c0.057,0.008,0.154-0.034,0.21-0.079c0.216,0.132,0.387,0.32,0.484,0.598c-0.58-0.073-1.172-0.014-1.758-0.083  C60.454,48.533,60.874,48.342,61.27,48.404z"></path>	<path d="M2.813,40.028c0.477,0.233,0.999,0.168,1.515,0.133c0.299-0.021-0.264,0.761-0.319,0.886  c-0.167,0.379-0.215,0.785-0.222,1.193c-0.002,0.144,0.226,0.076,0.287,0.02c0.328-0.297,0.672-0.534,1.039-0.751  c-0.298,0.437-0.38,0.912-0.098,1.47c0.046,0.092,0.186,0.064,0.257,0.018c0.261-0.173,0.463-0.388,0.671-0.609  c0.133,0.388,0.411,0.768,0.881,0.558c0.543-0.244,0.803-1.084,1.036-1.618c0.27,0.38,0.515,0.867,0.977,0.623  c0.229-0.121,0.326-0.46,0.283-0.696c-0.05-0.272-0.237-0.891,0.26-0.57c0.224,0.145,0.39,0.262,0.638,0.354  c0.081,0.03,0.269-0.027,0.25-0.136c-0.02-0.229-0.077-0.449-0.171-0.659c-0.11-0.313,1.075-0.164,1.147-0.16  c0.062,0.004,0.251-0.043,0.214-0.142c-0.215-0.571-0.571-0.688-1.11-0.921c-0.378-0.162,0.705-1.198,0.75-1.475  c0.013-0.076-0.088-0.088-0.14-0.085c-0.572,0.028-1.059,0.246-1.565,0.478c0.134-0.567,0.741-1.748-0.087-1.644  c-0.769,0.098-1.475,0.945-2.061,1.496c-0.168-0.676,0.418-1.278,0.246-1.981c-0.018-0.072-0.129-0.063-0.182-0.051  c-0.583,0.139-0.768,0.546-0.951,1.003c-0.003-0.059-0.013-0.126-0.057-0.347c-0.023-0.118-0.235-0.042-0.286,0.005  c-0.387,0.364-0.3,0.813-0.481,1.239c-0.429-0.364-0.904-0.665-1.461-0.799c-0.07-0.018-0.286,0.021-0.25,0.137  c0.13,0.414,1.095,1.795,0.576,1.96c-0.608,0.192-1.132,0.517-1.593,0.953C2.772,39.942,2.762,40.003,2.813,40.028z M3.55,39.577  c0.363-0.265,0.788-0.292,1.14-0.51c0.176,0.035,0.353,0.07,0.528,0.104c0.073,0.015,0.166-0.012,0.222-0.059  c0.051-0.042,0.036-0.09-0.027-0.103c-0.181-0.036-0.361-0.071-0.541-0.106c-0.007-0.002-0.015-0.001-0.022-0.002  c0.204-0.411-0.327-1.255-0.587-1.729c0.434,0.175,0.813,0.454,1.161,0.772c0.083,0.075,0.234,0.03,0.293-0.054  c0.218-0.313,0.197-0.694,0.32-1.029c0.022,0.193,0.045,0.409,0.061,0.525c0.016,0.126,0.267,0.039,0.305-0.03  c0.075-0.138,0.136-0.259,0.19-0.407c0.069-0.204,0.148-0.403,0.236-0.6c0.376-0.151,0.485-0.079,0.328,0.214  c-0.144,0.56-0.419,0.936-0.157,1.5c0.051,0.109,0.217,0.052,0.286-0.005c0.457-0.378,0.873-0.797,1.339-1.164  c0.405-0.317,0.855-0.396,0.661,0.23c-0.104,0.333-0.239,0.665-0.231,1.02c0.002,0.108,0.153,0.095,0.224,0.063  c0.183-0.081,0.364-0.164,0.545-0.25c0.183-0.086,1.041-0.266,0.611,0.142c-0.202,0.191-0.391,0.353-0.518,0.601  c-0.056,0.109-0.025,0.293,0.052,0.385c0.359,0.426,0.807,0.201,1.105,0.776c-0.4-0.029-0.791-0.063-1.196-0.016  c-0.064,0.008-0.195,0.055-0.174,0.142c0.059,0.244,0.133,0.476,0.192,0.714c-0.333-0.183-0.612-0.406-1.024-0.465  c-0.063-0.009-0.214,0.034-0.215,0.116c-0.002,0.218,0.135,1.726-0.264,1.156c-0.184-0.262-0.323-0.521-0.61-0.684  c-0.105-0.06-0.388,0.084-0.246,0.165c0.056,0.031,0.108,0.076,0.159,0.129c-0.035,0.015-0.063,0.036-0.076,0.063  c-0.123,0.257-0.24,0.517-0.364,0.773c-0.218,0.451-0.907,0.868-1.062,0.121c-0.024-0.116-0.235-0.045-0.285,0.006  c-0.219,0.221-0.413,0.455-0.651,0.652c-0.223-0.573-0.038-1.04,0.392-1.492c0.701-0.015,1.27-0.438,1.733-0.937  c0.146,0.178,0.301,0.358,0.492,0.44c0.152,0.066,0.496-0.004,0.546-0.181c0.056-0.195-0.426-0.645-0.283-0.741  c0.429-0.289,0.634-0.729,0.654-1.237c0.001-0.048-0.31-0.009-0.313,0.083c-0.019,0.476-0.208,0.949-0.655,1.184  c-0.014,0.008-0.078,0.035-0.066,0.063c0.052,0.123,0.132,0.233,0.203,0.346c0.036,0.059,0.122,0.341,0.174,0.363  c-0.271-0.117-0.485-0.488-0.686-0.697c-0.055-0.057-0.344,0.055-0.295,0.106c0.036,0.037,0.072,0.079,0.107,0.122  c-0.029,0.01-0.056,0.022-0.069,0.038c-0.378,0.427-0.841,0.852-1.437,0.874c-0.038-0.045-0.162-0.054-0.215-0.026  c-0.505,0.267-0.979,0.544-1.419,0.892c0.063-0.686,0.326-1.301,0.785-1.845c0.056-0.066,0.015-0.136-0.071-0.137  c-0.172-0.003-0.295,0-0.47,0.008c-0.084,0.007-0.169,0.013-0.254,0.018C3.672,40.15,3.486,40.016,3.55,39.577z"></path>	<path d="M7.636,39.531c0.075-0.322,0.184-0.637,0.252-0.961c0.021-0.1-0.292-0.048-0.312,0.045  c-0.069,0.324-0.177,0.639-0.253,0.962C7.301,39.674,7.614,39.624,7.636,39.531z"></path>	<path d="M7.034,39.669c0.126-0.151-0.173-0.196-0.262-0.09c-0.102,0.123-0.454-0.186-0.542-0.257  C6.125,39.236,5.85,39.386,5.988,39.5C6.262,39.723,6.735,40.029,7.034,39.669z"></path>	<path d="M6.988,39.157c-0.07-0.243-0.141-0.485-0.253-0.713c-0.043-0.089-0.347,0.016-0.313,0.083  c0.112,0.228,0.183,0.47,0.252,0.712C6.699,39.326,7.012,39.241,6.988,39.157z"></path>	<path d="M2.195,50.384c-0.408,0.013-0.805-0.059-1.192-0.184c-0.193-0.063-0.369-0.156-0.54-0.263  c-0.224-0.14-0.052-0.281,0.074-0.415c0.432-0.459,1.247-0.554,1.84-0.647c0.161-0.025,0.249-0.234,0.035-0.2  c-0.826,0.129-2.061,0.304-2.402,1.193c-0.008,0.022-0.02,0.055,0.004,0.075c0.585,0.492,1.393,0.664,2.146,0.642  C2.329,50.58,2.41,50.377,2.195,50.384z"></path>	<path d="M10.549,46.97c-0.23-0.251-0.781-0.104-1.055-0.039c-0.185,0.043-0.387,0.098-0.582,0.171  c0.231-0.378,0.386-0.781,0.312-1.253c-0.01-0.063-0.14-0.042-0.177-0.032c-0.335,0.096-0.614,0.255-0.873,0.442  c0.183-0.635,0.262-1.294,0.33-1.951c0.007-0.073-0.084-0.086-0.14-0.081c-0.709,0.065-1.592,0.603-1.882,1.312  c-0.027-0.033-0.052-0.067-0.082-0.099c-0.07-0.073-0.238-0.003-0.291,0.059c-0.424,0.484-0.538,1.061-0.705,1.654  c-0.297-0.179-0.578-0.376-0.87-0.539c0.034-0.03,0.051-0.069,0.025-0.111c-0.335-0.539-0.501-1.423-0.231-2.044  c0.409,0.447,0.791,0.982,0.977,1.546c0.042,0.127,0.354,0.041,0.313-0.083C5.4,45.263,4.932,44.646,4.45,44.153  c-0.079-0.081-0.235-0.027-0.292,0.054c-0.428,0.599-0.321,1.564,0.003,2.227c-0.247-0.101-0.509-0.165-0.803-0.164  c-0.053,0-0.215,0.028-0.218,0.105C3.135,46.49,3.141,46.6,3.15,46.709c-0.445-0.566-0.99-1.066-1.676-1.317  c-0.097-0.034-0.224,0.018-0.249,0.119c-0.271,1.075,0.244,2.202,0.99,2.977c0.101,0.106,0.397-0.022,0.287-0.139  c-0.673-0.699-1.152-1.677-1-2.652c0.735,0.342,1.286,0.99,1.723,1.652c0.02,0.029,0.052,0.044,0.088,0.048  c0.091,0.228,0.216,0.444,0.378,0.654c0.018,0.023,0.056,0.03,0.098,0.028c0,0.093,0,0.187,0,0.28  c-0.863,0.015-2.046,0.906-1.625,1.801c0.027,0.057,0.129,0.032,0.174,0.022c0.058-0.013,0.111-0.022,0.164-0.05  c-0.088,0.046,0.464-0.141,0.841-0.271c-0.153,0.071-0.279,0.162-0.425,0.31c-0.137,0.139-0.276,0.301-0.41,0.479  c-0.002-0.006-0.001-0.012-0.006-0.018c-0.048-0.058-0.152-0.043-0.211-0.015c-0.316,0.146-0.474,0.449-0.623,0.744  c-0.076,0.15,0.241,0.135,0.297,0.024c0.106-0.208,0.219-0.479,0.439-0.596c-0.445,0.629-0.808,1.418-0.781,2.085  c0.004,0.101,0.27-0.015,0.301-0.045c0.379-0.372,0.757-0.719,1.182-1.021c-0.189,0.497-0.225,1.115-0.003,1.6  c0.036,0.079,0.233,0.002,0.278-0.03c0.504-0.365,0.941-0.811,1.379-1.25c0.07,0.19,0.135,0.381,0.218,0.533  c0.051,0.093,0.274,0.007,0.313-0.065c0.319-0.595,0.504-1.243,0.978-1.737c0.23,0.064,0.407,0.226,0.459,0.558  c0.033,0.208,0.045,0.386,0.2,0.537c0.19,0.185,0.608-0.093,0.755-0.181c0.028-0.017,0.069-0.047,0.061-0.085  c-0.085-0.355-0.128-0.718-0.242-1.063c0.313,0.072,0.593,0.078,0.94-0.045c0.039-0.014,0.131-0.069,0.084-0.12  c-0.066-0.073-0.164-0.153-0.26-0.236c0.718,0.067,1.624,0.166,2.184-0.264c0.018-0.014,0.053-0.042,0.025-0.064  c-0.474-0.415-1.044-0.798-1.693-0.828c0.041-0.028,0.083-0.054,0.124-0.083c0.119-0.084,0.528-0.472,0.304-0.643  C9.8,48.12,10.978,47.437,10.549,46.97z M8.177,44.445c-0.076,0.723-0.171,1.447-0.41,2.137c-0.172,0.146-0.343,0.296-0.524,0.44  c-0.181-0.391-0.318-0.8-0.535-1.165C6.792,45.177,7.511,44.578,8.177,44.445z M4.668,51.952c-0.424,0.419-0.839,0.854-1.306,1.229  c-0.164-0.481-0.108-1.053,0.09-1.51c0.011-0.025-0.024-0.036-0.075-0.036c0.052-0.033,0.101-0.069,0.154-0.101  c0.699-0.412,0.965-0.054,1.155,0.406C4.68,51.944,4.672,51.947,4.668,51.952z M7.067,51.502c-0.017-0.113-0.034-0.227-0.052-0.339  c-0.043-0.276-0.257-0.622-0.584-0.617c-0.653,0.011-1.177,0.393-0.869-0.615c0.114-0.297,0.292-0.55,0.532-0.759  c1.047,0.049,1.383,0.289,1.005,0.72c-0.137,0.204-0.214,0.365-0.246,0.612c-0.012,0.093,0.174,0.078,0.265,0.02  c0.138,0.324,0.191,0.659,0.254,1.005C7.165,51.73,7.063,51.721,7.067,51.502z M7.389,50.375c-0.03-0.01-0.134-0.005-0.208,0.021  c0.047-0.211,0.175-0.394,0.283-0.577C7.717,50.076,8.677,50.792,7.389,50.375z M9.694,49.626c0.109,0.07,0.211,0.151,0.313,0.23  c0.241,0.188-0.034,0.202-0.225,0.231c-0.532,0.083-1.091,0.008-1.625-0.029c-0.013-0.001-0.035,0.003-0.058,0.01  c-0.187-0.19-0.285-0.393,0.023-0.58c0.155-0.094,0.309-0.189,0.46-0.287C8.995,49.207,9.36,49.411,9.694,49.626z M8.319,49.167  c-0.255,0.164-0.521,0.308-0.768,0.483c0.068-0.152,0.102-0.313,0.043-0.496c-0.107-0.33-0.704-0.418-0.985-0.382  c-0.961,0.125-1.616,1.22-1.415,2.109c0.015,0.063,0.136,0.043,0.177,0.032c0.213-0.055,0.444-0.097,0.654-0.091  C5.61,51.25,5.401,51.772,5.151,52.3c-0.182-0.378-0.316-0.759-0.4-1.181c-0.009-0.047-0.103-0.034-0.131-0.031  c-1.085,0.111-1.906,0.732-2.667,1.446c0.116-0.938,0.941-2.577,1.856-2.65c0.057-0.006,0.337-0.136,0.163-0.151  c-0.462-0.041-0.79,0.013-1.233,0.153c-0.058,0.019-0.293,0.121-0.298,0.11c-0.322-0.685,0.9-1.582,1.407-1.468  c0.054,0.013,0.249-0.021,0.255-0.098c0.034-0.405,0.035-0.252,0-0.659c-0.004-0.05-0.128-0.045-0.219-0.01  c-0.245-0.438-0.79-1.546,0.152-1.15c0.473,0.198,0.882,0.568,1.336,0.813c0.076,0.041,0.254-0.006,0.282-0.094  c0.175-0.561,0.26-1.13,0.584-1.617c0.055,0.072,0.106,0.146,0.152,0.221c-0.002,0.039-0.006,0.077-0.005,0.115  c0.002,0.06,0.054,0.083,0.116,0.084c0.185,0.361,0.314,0.754,0.498,1.117c0.049,0.095,0.221,0.025,0.282-0.018  c0.237-0.172,0.45-0.355,0.666-0.552c0.001-0.002,0.002-0.004,0.004-0.004c0.056-0.019,0.106-0.05,0.121-0.09  c0.002-0.007,0.004-0.013,0.006-0.019c0.351-0.282,0.992-0.685,0.785,0.058c-0.063,0.229-0.182,0.441-0.321,0.648  c-0.066,0.039-0.129,0.079-0.187,0.124c-0.083,0.066-0.06,0.117-0.001,0.141C8.136,47.824,7.9,48.1,7.731,48.381  C7.684,48.46,7.8,48.475,7.854,48.466c0.147-0.026,0.295-0.052,0.443-0.077c0.198,0.108,0.397,0.216,0.596,0.324  C8.728,48.896,8.536,49.046,8.319,49.167z M9.941,47.69c-0.25,0.202-0.601,0.47-0.929,0.522c-0.021,0.004-0.04,0.011-0.058,0.019  c-0.101-0.032-0.198-0.047-0.344-0.032c-0.623,0.06-0.542,0.074-0.174-0.422c0.089-0.12,0.179-0.24,0.266-0.361  c0.406-0.25,1.071-0.451,1.485-0.352C10.571,47.157,10.046,47.605,9.941,47.69z"></path>	<path d="M13.204,49.079c-0.118,0-0.334,0.177-0.122,0.177C13.199,49.255,13.416,49.079,13.204,49.079z"></path>	<path d="M16.012,53.723c-0.187,0.015-1.601,0.281-1.532,0.062c0.145-0.462,0.13-0.932,0.063-1.401  c-0.013-0.095-0.212-0.039-0.255-0.009c-0.276,0.199-0.501,0.442-0.665,0.726c-0.264-0.485-0.96-0.78-1.486-0.852  c-0.06-0.008-0.288,0.021-0.252,0.128c0.113,0.341,0.273,0.657,0.412,0.988c0.027,0.064,0.049,0.134,0.066,0.203  c-0.461,0.007-0.968-0.063-1.372,0.17c-0.236,0.136-0.137,0.277,0.054,0.407c0.373,0.255,0.777,0.469,0.894,0.938  c0.017,0.07,0.332-0.01,0.313-0.082c-0.078-0.313-0.274-0.514-0.525-0.705c-0.113-0.086-0.625-0.321-0.566-0.486  c0.056-0.157,0.611-0.117,0.743-0.118c0.16-0.003,0.322,0.005,0.481-0.004c0.073,0.428,0.003,0.904,0.039,1.332  c-0.017,0.009-0.032,0.021-0.043,0.035c-0.195,0.253-0.618,0.246-0.945,0.238c-0.057-0.052-0.198-0.028-0.26,0.03  c-0.006,0.004-0.011,0.011-0.016,0.015c0,0.001,0,0.001,0,0.001c-0.043,0.042-0.054,0.1-0.014,0.136c0,0.128,0,0.257,0,0.386  c0,0.104,0.158,0.09,0.223,0.057c0.464-0.242,0.924-0.17,1.354,0.062c0.08,0.274,0.147,0.565,0.249,0.834  c-0.04-0.001-0.081,0.007-0.113,0.026c-0.27,0.166-0.417,0.471-0.696,0.587c0.096-0.227,0.267-0.416,0.31-0.668  c0.023-0.134-0.201-0.113-0.263-0.061c-0.254,0.213-0.613,0.345-0.953,0.314c0.16-0.146,0.335-0.272,0.495-0.42  c0.171-0.158,0.295-0.359,0.46-0.523c0.139-0.139-0.163-0.193-0.263-0.094c-0.207,0.205-0.364,0.446-0.59,0.635  c-0.169,0.141-0.342,0.271-0.492,0.434c-0.047,0.051-0.03,0.133,0.041,0.151c0.372,0.099,0.784,0.045,1.137-0.118  c-0.091,0.17-0.208,0.329-0.25,0.523c-0.017,0.078,0.089,0.106,0.146,0.104c0.565-0.031,0.69-0.439,1.109-0.707  c0.043,0.092,0.09,0.181,0.147,0.262c0.061,0.086,0.279,0.006,0.303-0.08c0.056-0.2,0.104-0.403,0.151-0.606  c0.319,0.164,0.568,0.434,0.791,0.705c0.057,0.069,0.299,0.018,0.302-0.08c0.019-0.558-0.034-0.956-0.486-1.315  c-0.441-0.351,0.66-0.043,0.796-0.013c0.212,0.045,0.351,0.022,0.559-0.006c0.066-0.009,0.218-0.062,0.166-0.152  c-0.13-0.224-0.278-0.393-0.508-0.526c-0.603-0.351-0.451-0.378,0.153-0.688c0.315-0.162,0.641-0.342,0.727-0.701  C16.166,53.723,16.055,53.72,16.012,53.723z M15.455,54.269c-0.356,0.234-0.761,0.355-1.086,0.638  c-0.034,0.028-0.048,0.084,0.002,0.105c0.394,0.166,0.769,0.349,1.022,0.683c-0.529-0.011-1.007-0.244-1.551-0.111  c-0.056,0.013-0.173,0.071-0.123,0.144c0.315,0.459,0.588,0.618,0.679,1.061c-0.219-0.209-0.464-0.381-0.763-0.48  c-0.075-0.024-0.231,0.02-0.252,0.106c-0.029,0.118-0.057,0.235-0.085,0.354c-0.09-0.228-0.155-0.482-0.22-0.723  c0.071-0.037,0.115-0.095,0.044-0.14c-0.032-0.021-0.066-0.037-0.099-0.056c-0.021-0.072-0.043-0.143-0.066-0.208  c-0.034-0.097-0.26-0.047-0.306,0.036c-0.387-0.135-0.794-0.147-1.19-0.005c0-0.056,0-0.111,0-0.167  c0.421-0.001,0.92-0.03,1.181-0.369c0.022-0.029,0.027-0.052,0.024-0.072c0.045-0.024,0.079-0.059,0.075-0.1  c-0.044-0.466-0.011-0.926-0.052-1.392c0.002-0.005,0.002-0.008,0-0.012c-0.001-0.007-0.001-0.014-0.001-0.021  c-0.034-0.352-0.255-0.703-0.406-1.043c0.531,0.162,1.158,0.543,1.138,1.085c-0.005,0.139,0.285,0.063,0.314-0.037  c0.098-0.337,0.272-0.631,0.521-0.873c0.045,0.517-0.026,0.953-0.186,1.462c-0.017,0.053,0.061,0.072,0.097,0.073  c0.333,0.008,0.284,0.013,0.618-0.045c0.116-0.021,0.229-0.051,0.341-0.089C15.404,53.885,15.515,53.951,15.455,54.269z"></path>	<path d="M53.808,49.489c-1.274,1.62-2.917,2.762-4.687,3.804c-1.938,1.142-4.461,2.241-6.737,2.365  c-0.104,0.005-0.337,0.168-0.127,0.157c2.182-0.118,4.452-1.065,6.361-2.063c2.063-1.077,4.037-2.436,5.479-4.267  C54.176,49.385,53.864,49.417,53.808,49.489z"></path>	<path d="M23.964,53.644c-0.946-0.222-1.769-0.729-2.672-1.067c-1.108-0.414-2.157-0.834-3.182-1.432  c-1.893-1.104-3.292-2.83-4.054-4.852c-0.104-0.276-0.728-0.101-0.627,0.166c0.72,1.911,1.975,3.54,3.671,4.72  c0.859,0.598,1.848,1.068,2.822,1.451c1.199,0.47,2.424,1.13,3.679,1.424C23.864,54.116,24.343,53.733,23.964,53.644z"></path></g></svg>