<svg fill= "#795F46" xmlns="http://www.w3.org/2000/svg" xmlns:xlink="http://www.w3.org/1999/xlink" id="Layer_1" x="0px" y="0px" width="70px" height="70px" viewBox="0 0 70 70" xml:space="preserve"><g>	<path d="M68.057,32.87c-1.463-3.816-3.764-7.61-7.199-9.924c-1.641-1.105-3.48-1.904-5.256-2.762  c-2.143-1.036-4.285-2.039-6.479-2.963c-1.979-0.833-4.049-1.947-6.207-2.188c-1.941-0.217-3.752,0.126-5.574,0.796  c-0.531,0.195-0.031,0.324,0.281,0.209c2.619-0.963,5.023-0.872,7.584,0.148c2.027,0.808,4.038,1.668,6.033,2.552  c3.455,1.532,7.257,3.107,10.229,5.483c2.924,2.337,4.841,6.233,6.101,9.687c1.274,3.49,1.714,7.228,1.608,10.927  c-0.043,1.526-0.219,3.107-0.67,4.529c-0.18,0.135-0.389,0.225-0.641,0.236c0-0.08,0-0.16,0-0.24c0-0.091-0.258-0.06-0.356,0.033  c-0.017,0.001-0.033,0.004-0.05,0.007c0.053-0.178,0.097-0.362,0.125-0.563c0.002-0.019-0.191-0.004-0.199,0.054  c-0.034,0.241-0.092,0.461-0.162,0.669c-0.02-0.153-0.393-0.074-0.395,0.06c-0.002,0.117-0.009,0.232-0.018,0.348  c-0.445,0.358-1.039,0.743-1.691,1.083c0.002-0.095,0.002-0.189,0.002-0.284c0.818-0.339,1.547-0.896,2.09-1.716  c0.053-0.079-0.148-0.063-0.186-0.006c-0.5,0.756-1.162,1.274-1.904,1.598c0-0.052,0.001-0.104,0.001-0.155  c0-0.171-0.398-0.087-0.398,0.048c0,0.087-0.002,0.174-0.003,0.261c-0.285,0.094-0.579,0.161-0.88,0.203c0-0.089,0-0.178,0-0.267  c0-0.104-0.397-0.034-0.397,0.106c0,0.067,0,0.135,0,0.202c-0.504,0.034-1.018-0.001-1.525-0.094  c0.895-0.112,1.747-0.399,2.521-0.94c0.111-0.077-0.053-0.145-0.131-0.089c-0.856,0.598-1.816,0.872-2.824,0.936  c-0.064-0.016-0.128-0.03-0.191-0.049c0.021-0.033,0.045-0.066,0.066-0.102c0.104-0.166-0.299-0.138-0.373-0.019  c-0.005,0.007-0.01,0.014-0.014,0.021c-0.215-0.072-0.429-0.15-0.637-0.243c-0.061-0.026-0.242,0.061-0.157,0.099  c0.232,0.104,0.472,0.19,0.714,0.269c-0.008,0.013-0.016,0.025-0.023,0.037c-0.344-0.005-0.692-0.032-1.043-0.075  c0.001-0.144,0-0.286-0.002-0.431c1.636-0.051,3.373-0.678,4.626-1.493c0.083-0.054-0.117-0.028-0.152-0.006  c-1.232,0.802-2.907,1.389-4.476,1.413c-0.001-0.108-0.002-0.217-0.003-0.326c-0.002-0.215-0.405-0.159-0.403,0.027  c0,0.097,0.002,0.194,0.004,0.291c-1.627-0.081-3.082-0.816-3.729-2.617c-0.017-0.048-0.213,0.013-0.198,0.053  c0.673,1.878,2.216,2.609,3.928,2.658c0.003,0.125,0.004,0.249,0.005,0.374c-0.084-0.014-0.17-0.029-0.254-0.045  c0-0.016,0.004-0.032,0.004-0.049c0.002-0.067-0.174-0.06-0.291-0.005c-0.958-0.193-1.915-0.482-2.83-0.784  c0.001-0.002,0.003-0.005,0.003-0.007c0.103-0.116,0.197-0.238,0.28-0.375c0.02-0.034-0.154-0.034-0.28,0.005  c0-0.06,0-0.119,0-0.179c0-0.035-0.198-0.006-0.198,0.053c0,0.105,0,0.212,0,0.317c-0.023,0.032-0.044,0.067-0.068,0.098  c-0.526-0.176-1.038-0.354-1.525-0.516c0.004-0.013,0.008-0.023,0.012-0.035c0.27-1.276-1.334-2.493-2.24-3.068  c-0.268-0.17-0.555-0.259-0.844-0.283c-0.707-0.456-1.482-0.833-2.215-1.244c-0.58-0.711-1.352-1.312-1.997-1.654  c-0.056-0.029-0.239,0.052-0.159,0.095c0.511,0.271,1.111,0.715,1.627,1.248c-0.027-0.017-0.055-0.032-0.081-0.049  c-0.05-0.031-0.218,0.05-0.188,0.068c0.194,0.123,0.396,0.24,0.601,0.354c0.397,0.484,0.703,1.019,0.812,1.555  c-1.06-0.653-2.055-1.401-3.118-2.044c0.055-0.085,0.079-0.174,0.08-0.282c0.001-0.203-0.401-0.138-0.402,0.033  c0,0.02,0,0.038-0.001,0.056c-0.174-0.1-0.349-0.196-0.527-0.288c-0.052-0.026-0.21,0.056-0.188,0.066  c0.225,0.116,0.444,0.24,0.661,0.368c0,0,0,0.001-0.001,0.001c-0.007,0.007-0.008,0.015-0.013,0.021  c0-0.001-0.002-0.002-0.004-0.003c-0.047-0.039-0.229,0.037-0.186,0.072c0.113,0.094,0.228,0.188,0.342,0.28  c-0.047,0.026-0.082,0.062-0.082,0.103c0,0.147,0.002,0.275,0.105,0.389c0.087,0.094,0.465-0.049,0.371-0.15  c-0.016-0.018-0.025-0.036-0.035-0.055c0.886,0.694,1.816,1.325,2.879,1.728c0.008,0.004,0.021,0.003,0.034,0.002  c-0.736,0.824-0.526,2.26,0.134,3.043c0.027,0.033,0.107,0.029,0.187,0.008c-0.008,0.294,0.146,0.496,0.569,0.516  c0.182,0.009,0.412-0.259,0.143-0.271c-0.25-0.012-0.32-0.169-0.281-0.404c0.059,0.092,0.127,0.18,0.211,0.262  c0.079,0.077,0.249,0.046,0.338-0.021c0.132,0.074,0.268,0.142,0.412,0.192c0.08,0.028,0.207-0.019,0.277-0.052  c0.041-0.019,0.131-0.072,0.05-0.101c-0.289-0.103-0.546-0.279-0.8-0.448c-0.025-0.018-0.071-0.017-0.121-0.006  c-0.075-0.12-0.129-0.247-0.165-0.379c0.37-0.742,1.11-1.676,1.271-1.875c0.155-0.194-0.225-0.233-0.33-0.103  c-0.152,0.19-0.609,0.742-0.992,1.335c0.039-0.473,0.223-0.956,0.433-1.352c0.106-0.2-0.298-0.203-0.38-0.047  c-0.314,0.593-0.564,1.374-0.425,2.051c-0.063,0.132-0.114,0.26-0.151,0.381c-0.426-0.61-0.529-1.357-0.341-2.087  c0.04-0.156,0.104-0.309,0.188-0.45c0.051-0.008,0.103-0.035,0.104-0.067c0-0.027-0.004-0.055-0.004-0.082  c0.063-0.085,0.137-0.163,0.216-0.233c0.372-0.047,0.778,0.067,1.122,0.163c0.127,0.035,0.469-0.155,0.242-0.218  c-0.334-0.093-0.676-0.165-1.014-0.171c0.221-0.096,0.471-0.131,0.746-0.075c0.018,0.004,0.034,0.011,0.051,0.015  c0.647,0.439,1.227,0.956,1.643,1.647c0.031,0.052,0.217-0.023,0.199-0.053c-0.193-0.321-0.421-0.604-0.674-0.86  c0.675,0.536,1.369,1.228,1.514,2.101c0.015,0.085,0.02,0.164,0.02,0.237c-0.057-0.018-0.113-0.036-0.17-0.054  c-0.084-0.027-0.234,0.094-0.115,0.132c0.089,0.028,0.179,0.058,0.269,0.087c-0.155,0.875-1.48,0.846-2.241,1.059  c-0.232,0.064-0.195,0.203,0.037,0.139c0.809-0.226,2.182-0.168,2.542-1.087c0.468,0.156,0.958,0.324,1.46,0.491  c-0.359,0.405-0.829,0.688-1.305,0.959c-0.186-0.067-0.371-0.141-0.555-0.223c-0.077-0.034-0.23,0.077-0.115,0.128  c0.379,0.17,0.762,0.305,1.148,0.418c0.002,0.007,0.003,0.013,0.008,0.019c1.172,1.621,3.83,1.911,6.104,1.682  c0.062,0.011,0.125,0.018,0.188,0.025c-0.027,0.069-0.056,0.14-0.084,0.209c-0.021,0.052,0.353,0.02,0.391-0.075  c0.015-0.036,0.029-0.071,0.043-0.107c0.998,0.024,2.086-0.322,3.1-0.825c-0.051,0.031-0.082,0.07-0.061,0.108  c0.055,0.098,0.019,0.197,0.06,0.292c0.05,0.117,0.245,0.052,0.323,0.009c0.199-0.109,0.156-0.459,0.167-0.667  c0.401-0.224,0.786-0.467,1.144-0.717c0.037-0.027,0.078-0.053,0.115-0.082c0.119-0.085,0.236-0.171,0.35-0.258  c-0.036,0.177-0.08,0.352-0.129,0.524c-0.111-0.005-0.271,0.051-0.291,0.137c-0.096,0.393-0.236,0.719-0.184,1.128  c0.02,0.142,0.345,0.037,0.385-0.047c0.328-0.676,0.559-1.375,0.671-2.104c0.146-0.122,0.281-0.242,0.407-0.359  c0.012,0.002,0.022,0.002,0.029,0.002c0.293-0.011,0.492-0.138,0.629-0.386c0.073-0.023,0.143-0.052,0.211-0.083  c-0.768,2.238-2.256,4.039-5.05,4.529c-3.633,0.636-7.151-0.813-10.548-1.847c-1.868-0.568-3.188-1.481-4.477-2.913  c-1.314-1.459-2.957-2.345-4.713-3.171c-1.611-0.758-3.221-1.478-4.66-2.54c-1.229-0.906-2.119-2.178-2.885-3.494  c0.012,0.002,0.021,0.002,0.033,0.004c0.189,0.023,0.922-0.3,0.508-0.353c-0.262-0.033-0.525-0.057-0.787-0.081  c-0.106-0.19-0.211-0.381-0.313-0.57c-1.988-3.68-4.217-7.089-5.055-11.203c0.096,0.01,0.191,0.021,0.288,0.029  c0.042,0.003,0.19-0.052,0.125-0.117c-0.122-0.122-0.244-0.244-0.366-0.366c-0.03-0.03-0.086-0.027-0.132-0.01  c-0.017-0.096-0.037-0.189-0.052-0.286c-0.324-2.05-0.565-4.59,0.365-6.508c0.982-2.024,3.615-4.055,5.871-4.23  c0.222-0.018,0.864-0.387,0.338-0.346c-1.979,0.154-3.821,1.203-5.272,2.563c0.011-0.023,0.01-0.045-0.012-0.062  c-1.017-0.788-2.198-1.058-3.446-1.268c-1.661-0.279-3.322-0.589-5-0.747c-2.854-0.269-5.621,0.29-8.393,0.901  c-4.323,0.953-9.527,3.303-8.767,8.613c0.349,2.438,1.982,4.62,3.576,6.406c1.726,1.935,3.802,3.623,6.053,4.905  c2.703,1.541,5.715,2.37,8.807,2.594c0.347,0.025,0.694,0.041,1.042,0.053c0.469,0.413,1.188,0.611,1.994,0.684  c0.071,0.029,0.143,0.056,0.214,0.084c-1.568-0.009-3.089-0.082-4.606-0.541c-1.018-0.309-1.966-0.75-3.037-0.828  c-0.055-0.004-0.232,0.092-0.124,0.1c1.376,0.1,2.663,0.765,3.998,1.091c1.289,0.314,2.667,0.281,3.983,0.283  c0.01,0,0.022-0.003,0.035-0.008c0.406,0.156,0.816,0.303,1.231,0.435c-0.419-0.052-0.838-0.103-1.256-0.162  c-0.056-0.009-0.233,0.084-0.124,0.1c2.461,0.353,4.938,0.555,7.409,0.823c0.057,0.006,0.233-0.088,0.125-0.1  c-1.487-0.162-2.975-0.303-4.46-0.463c0.169,0.022,0.347-0.03,0.533-0.195c0.013,0.009,0.023,0.02,0.036,0.026  c0.062,0.035,0.244-0.053,0.157-0.101c-0.12-0.067-0.182-0.193-0.215-0.33c0.133,0.057,0.268,0.107,0.403,0.155  c0,0.084,0,0.168,0,0.252c0,0.023,0.046,0.028,0.061,0.028c0.099-0.004,0.188-0.021,0.268-0.084  c0.025-0.02,0.044-0.047,0.061-0.077c0.06,0.017,0.117,0.037,0.177,0.052c0.045,0.011,0.218-0.062,0.164-0.075  c-0.024-0.006-0.047-0.015-0.071-0.021c0.063-0.023,0.126-0.066,0.052-0.08c-0.081-0.015-0.16-0.035-0.238-0.059  c0.013-0.029-0.035-0.037-0.087-0.028c-0.063-0.021-0.126-0.044-0.187-0.069c0-0.063,0-0.126,0-0.189  c0-0.06-0.199-0.022-0.199,0.054c0,0.013,0,0.026,0,0.04c-0.152-0.078-0.299-0.169-0.442-0.267  c-0.004-0.03-0.033-0.044-0.068-0.046c-0.013-0.009-0.025-0.018-0.038-0.026c0.345-0.05,0.649-0.097,0.897-0.13  c0.05,0.027,0.1,0.055,0.149,0.082c0.103,0.057,0.218,0.134,0.336,0.203c0.04,0.157,0.082,0.314,0.146,0.464  c0.03,0.069,0.074,0.154,0.156,0.166c0.049,0.007,0.104-0.004,0.141-0.038c0.029-0.026,0.024-0.067-0.02-0.073  c-0.061-0.009-0.1-0.159-0.118-0.206c-0.024-0.064-0.044-0.13-0.063-0.196c0.044,0.016,0.088,0.034,0.131,0.041  c0.024,0.005,0.077-0.012,0.119-0.031c0.129,0.041,0.261,0.076,0.393,0.11c0.022,0.103,0.054,0.213,0.119,0.29  c0.059,0.069,0.248-0.01,0.182-0.088c-0.039-0.046-0.063-0.106-0.08-0.168c0.075-0.027,0.139-0.107,0.046-0.131  c-0.028-0.007-0.055-0.015-0.083-0.021c0-0.002,0-0.004-0.001-0.005c-0.034-0.151-0.054-0.307-0.056-0.462  c-0.002-0.104-0.203-0.074-0.202,0.016c0,0.044,0.006,0.089,0.009,0.133c-0.004-0.004-0.007-0.009-0.014-0.012  c-0.296-0.15-0.577-0.327-0.854-0.51c0.209-0.001,0.418,0,0.627,0.003c0.13,0.129,0.27,0.247,0.436,0.335  c0.059,0.031,0.241-0.053,0.158-0.097c-0.119-0.063-0.223-0.145-0.322-0.231c0.546,0.012,1.093,0.037,1.64,0.081  c0.249,0.437,0.51,0.864,0.789,1.282c0,0.403,0,0.808,0,1.211c0,0.104,0.201,0.071,0.201-0.016c0-0.3,0-0.599,0-0.898  c0.143,0.204,0.289,0.403,0.441,0.601c-0.025,0.3-0.083,0.595-0.164,0.886c-0.002-0.02-0.002-0.038-0.004-0.058  c-0.01-0.082-0.209-0.034-0.199,0.053c0.016,0.124,0.019,0.247,0.016,0.368c-0.098,0.002-0.239,0.032-0.279,0.073  c-0.188,0.189-0.402,0.379-0.636,0.565c-0.055,0.007-0.109,0.04-0.105,0.082c-0.09,0.069-0.181,0.138-0.275,0.205  c-0.049-0.037-0.193,0.008-0.182,0.078c0.002,0.016,0.003,0.03,0.005,0.046c-0.087,0.059-0.175,0.116-0.265,0.173  c-0.008-0.043-0.196-0.011-0.197,0.056c0,0.024-0.003,0.048-0.004,0.071c-0.182,0.108-0.37,0.21-0.561,0.308  c0.005-0.006,0.009-0.011,0.014-0.016c0.085-0.087-0.109-0.103-0.163-0.047c-0.074,0.075-0.144,0.154-0.21,0.235  c-0.052,0.023-0.104,0.047-0.156,0.068c-0.049-0.158-0.089-0.324-0.093-0.489c0-0.005-0.003-0.009-0.008-0.012  c0.033-0.054,0.069-0.105,0.099-0.161c0.021-0.039-0.169-0.022-0.197,0.031c-0.185,0.354-0.473,0.666-0.802,0.892  c-0.086,0.06,0.115,0.043,0.155,0.016c0.214-0.147,0.408-0.331,0.573-0.535c0.019,0.115,0.048,0.229,0.082,0.34  c-0.38,0.152-0.768,0.273-1.153,0.353c-0.021-0.062-0.039-0.127-0.053-0.191c0.259-0.135,0.417-0.424,0.481-0.72  c0.015-0.065-0.185-0.032-0.198,0.028c-0.039,0.18-0.132,0.459-0.304,0.592c-0.02-0.106-0.034-0.203-0.047-0.267  c-0.008-0.041-0.208,0.007-0.199,0.053c0.016,0.079,0.031,0.181,0.052,0.288c-0.001,0-0.002,0.001-0.004,0.001  c-0.066,0.002-0.214,0.106-0.08,0.102c0.036-0.002,0.069-0.009,0.103-0.015c0.013,0.056,0.028,0.111,0.045,0.165  c-0.376,0.063-0.748,0.089-1.104,0.058c-0.019-0.093-0.037-0.186-0.056-0.278c0.156-0.152,0.295-0.33,0.413-0.528  c0.017-0.028,0.001-0.044-0.026-0.049c0.099-0.046,0.196-0.092,0.29-0.135c0.25-0.115,0.022-0.27-0.163-0.185  c-0.535,0.247-1.166,0.567-1.81,0.763c0.185-0.179,0.357-0.371,0.521-0.574c0.059-0.072-0.143-0.063-0.187-0.009  c-0.192,0.238-0.399,0.46-0.624,0.662c-0.23,0.055-0.46,0.09-0.687,0.097c0.141-0.086,0.276-0.182,0.397-0.299  c0.052-0.051-0.143-0.034-0.183,0.004c-0.122,0.117-0.257,0.214-0.401,0.294c-0.222-0.01-0.439-0.054-0.648-0.134  c0.011-0.014,0.023-0.026,0.035-0.04c0.082-0.097-0.107-0.132-0.167-0.062c-0.009,0.012-0.019,0.022-0.029,0.033  c-0.063-0.031-0.127-0.064-0.188-0.104c-0.12-0.078-0.484,0.093-0.313,0.203c0.091,0.059,0.186,0.108,0.281,0.151  c-0.406,0.444-0.884,0.854-1.488,0.953c-0.11,0.018-0.151,0.17-0.017,0.148c0.682-0.11,1.213-0.544,1.668-1.038  c0.114,0.041,0.229,0.075,0.347,0.098c-0.002,0-0.004,0.001-0.005,0.002c-0.118,0.03-0.096,0.113,0.022,0.082  c0.062-0.016,0.12-0.038,0.18-0.058c0.234,0.025,0.474,0.021,0.715-0.009c0,0.015,0,0.03,0,0.045  c-0.019,0.013-0.036,0.026-0.055,0.038c-0.084,0.052-0.015,0.086,0.055,0.085c0.005,0.512,0.022,1.021,0.091,1.53  c0.013,0.096,0.212,0.046,0.199-0.053c-0.07-0.527-0.085-1.056-0.088-1.586c0.062-0.042,0.125-0.083,0.184-0.128  c0.652-0.143,1.303-0.424,1.884-0.692c-0.072,0.117-0.149,0.229-0.235,0.332c-0.002-0.01-0.004-0.02-0.006-0.029  c-0.02-0.099-0.219-0.047-0.199,0.053c0.011,0.054,0.021,0.107,0.032,0.161c-0.072,0.066-0.15,0.121-0.231,0.17  c-0.055-0.013-0.109-0.027-0.164-0.044c-0.016-0.018-0.043-0.022-0.072-0.02c-0.012-0.004-0.024-0.006-0.036-0.01  c-0.096-0.033-0.454,0.118-0.324,0.163c0.069,0.023,0.141,0.038,0.211,0.058c-0.138,0.024-0.285,0.025-0.445-0.01  c-0.062-0.013-0.234,0.082-0.123,0.106c0.23,0.05,0.442,0.04,0.641-0.008c0.049,0.262,0.104,0.522,0.178,0.778  c0.048,0.167,0.109,0.408,0.263,0.514c0.071,0.047,0.247-0.05,0.154-0.113c-0.165-0.111-0.213-0.432-0.262-0.609  c-0.053-0.194-0.093-0.393-0.129-0.591c0.14,0.026,0.282,0.046,0.427,0.057c0.016,0.081,0.032,0.161,0.048,0.242  c0.037,0.187,0.037,0.492,0.156,0.647c0.044,0.059,0.16,0.034,0.186-0.031c0.014-0.034,0.021-0.152,0-0.145  c0.125-0.05,0.018-0.164-0.086-0.127c-0.028-0.137-0.036-0.295-0.057-0.398c-0.012-0.061-0.024-0.121-0.036-0.181  c0.37,0.01,0.749-0.02,1.133-0.093c0.068,0.125,0.164,0.216,0.308,0.227c0.042,0.004,0.228-0.071,0.129-0.079  c-0.105-0.008-0.18-0.087-0.237-0.192c0.381-0.085,0.763-0.202,1.139-0.349c0.006,0.02,0.013,0.039,0.021,0.058  c-0.056,0.08-0.111,0.16-0.166,0.242c-0.057,0.085,0.146,0.077,0.188,0.014c0.021-0.032,0.043-0.063,0.065-0.095  c0.008,0.01,0.014,0.022,0.022,0.032c0.036,0.041,0.224-0.028,0.187-0.071c-0.035-0.04-0.06-0.09-0.083-0.142  c0.048-0.067,0.098-0.134,0.148-0.198c0.071-0.031,0.142-0.063,0.211-0.095c-0.01,0.012-0.016,0.024-0.013,0.039  c0.004,0.016,0.007,0.032,0.011,0.048c-0.055,0.021-0.108,0.044-0.164,0.063c-0.269,0.093-0.014,0.144,0.138,0.092  c0.019-0.007,0.038-0.015,0.057-0.021c0.076,0.325,0.146,0.652,0.226,0.978c-1.491,0.575-3.05,0.908-4.65,1.063  c-0.146-0.251-0.172-0.734-0.174-0.883c-0.001-0.108-0.203-0.081-0.202,0.013c0.003,0.231,0.032,0.623,0.17,0.889  c-0.603,0.053-1.211,0.082-1.824,0.088c-0.059-0.213-0.091-0.432-0.158-0.643c-0.027-0.085-0.225-0.03-0.199,0.053  c0.062,0.194,0.095,0.396,0.145,0.594c-0.268,0.001-0.538-0.004-0.807-0.011c-0.024-0.12-0.05-0.239-0.054-0.361  c-0.001-0.043-0.201-0.009-0.199,0.053c0.003,0.102,0.022,0.202,0.042,0.302c-4.941-0.169-10.074-1.578-14.613-2.532  c-1.334-0.281-2.664-0.563-3.955-0.978c0-0.019,0-0.036,0-0.054c0.001-0.29-0.408-0.306-0.643-0.166  C6.37,43.85,5.962,43.687,5.562,43.5c-2.162-1.009-3.589-2.973-4.35-5.188c-0.747-2.176-0.55-4.858,0.854-6.718  c1.102-1.459,2.885-2.346,4.216-3.577c0.395-0.365-0.229-0.669-0.534-0.387c-1.486,1.375-3.326,2.35-4.56,3.983  c-1.29,1.708-1.374,4.096-0.985,6.115c0.708,3.68,3.305,5.694,6.417,6.873c0.021,1.617,0.271,2.9,1.606,4.058  c1.567,1.358,3.424,2.21,5.348,2.936c4.082,1.539,8.62,2.58,12.949,3.142c5.786,0.752,13.434,0.272,18.084-3.856  c0,0.032,0,0.064,0,0.098c0,0.093,0.199,0.055,0.199-0.021c0-0.085,0-0.169,0-0.254c0.661-0.613,1.258-1.305,1.775-2.081  c1.215,1.015,2.105,2.339,3.521,3.158c1.406,0.813,3.104,1.078,4.615,1.636c1.418,0.522,2.9,0.842,4.395,1.044  c2.561,0.349,5.385,0.163,7.568-1.335c1.625-1.115,2.428-2.804,2.843-4.624c0.06-0.101,0.114-0.205,0.169-0.312  c0.013-0.025-0.032-0.037-0.096-0.036c0.203-1.017,0.299-2.064,0.354-3.07C70.184,40.923,69.547,36.76,68.057,32.87z   M46.367,44.302c1.048,0.642,2.033,1.382,3.082,2.025c-0.005,0.003-0.01,0.004-0.016,0.007c-0.01,0.005-0.012,0.01-0.02,0.015  c-1.051-0.438-1.977-1.092-2.859-1.802c0-0.012,0-0.023,0-0.036c0-0.037-0.049-0.052-0.109-0.051  c-0.053-0.043-0.104-0.086-0.156-0.129C46.316,44.325,46.343,44.315,46.367,44.302z M49.995,46.146  c-0.067,0.012-0.136,0.027-0.202,0.047c-0.088-0.44-0.301-0.876-0.589-1.283c0.569,0.306,1.151,0.606,1.696,0.948  C50.586,45.881,50.277,45.979,49.995,46.146z M66.803,50.081c-0.012,0.128-0.027,0.254-0.045,0.38  c-0.139,0.182-0.297,0.342-0.469,0.485c-0.17,0.124-0.348,0.246-0.531,0.366c-0.206,0.116-0.426,0.217-0.656,0.299  c0.01-0.168,0.018-0.336,0.02-0.504C65.758,50.783,66.344,50.421,66.803,50.081z M63.193,51.884  c0.508-0.145,1.025-0.347,1.524-0.579c-0.001,0.039,0,0.077-0.001,0.116c-0.002,0.105-0.01,0.21-0.016,0.315  c-0.5,0.134-1.034,0.202-1.574,0.215C63.16,51.933,63.182,51.91,63.193,51.884z M63.445,51.154c0,0.077,0,0.155,0,0.232  c0,0.104,0.397,0.034,0.397-0.106c0-0.057,0-0.113,0-0.17c0.3-0.042,0.593-0.108,0.879-0.198c-0.001,0.112-0.001,0.225-0.003,0.337  c-0.495,0.234-1.012,0.435-1.516,0.575c0-0.08,0-0.16,0-0.24c0-0.169-0.398-0.084-0.398,0.048c0,0.092,0,0.184,0,0.274  c0,0.007,0.004,0.011,0.006,0.017c-0.048,0.01-0.095,0.018-0.143,0.027c-0.11-0.004-0.221-0.007-0.331-0.015  c-0.039-0.002-0.227,0.07-0.13,0.077c0.01,0,0.021,0,0.031,0.001c-0.152,0.016-0.299,0.021-0.441,0.02  c0.044-0.216,0.063-0.437,0.033-0.662c-0.008-0.063-0.408,0.016-0.397,0.107c0.022,0.178,0.014,0.353-0.013,0.524  c-0.117-0.018-0.23-0.042-0.337-0.075c0.069-0.204,0.104-0.423,0.107-0.647c0.001-0.027-0.11-0.025-0.216-0.002  c0.064-0.091,0.129-0.183,0.191-0.276c0.102-0.002,0.202-0.007,0.303-0.014C62.121,51.142,62.791,51.201,63.445,51.154z   M60.964,52.737c-0.136-0.028-0.27-0.065-0.399-0.113c0.02-0.01,0.041-0.016,0.057-0.028c0.193-0.154,0.328-0.344,0.418-0.553  c0.117,0.029,0.238,0.052,0.365,0.064c-0.039,0.204-0.104,0.404-0.177,0.602C61.141,52.719,61.053,52.729,60.964,52.737z   M60,52.336c0.189-0.154,0.363-0.322,0.525-0.501c0.062,0.037,0.125,0.07,0.189,0.1c-0.064,0.228-0.178,0.436-0.353,0.607  C60.237,52.484,60.117,52.414,60,52.336z M60.635,51.713c0.051-0.06,0.102-0.121,0.15-0.184c-0.006,0.086-0.018,0.171-0.033,0.254  C60.712,51.761,60.672,51.739,60.635,51.713z M60.781,51.001c-0.119,0.178-0.243,0.351-0.375,0.517  c-0.129-0.134-0.238-0.292-0.322-0.485c-0.018-0.044-0.211,0.023-0.198,0.054c0.101,0.235,0.239,0.425,0.405,0.574  c-0.156,0.184-0.327,0.354-0.513,0.512c-0.022-0.019-0.044-0.034-0.065-0.053c0.083-0.394,0.109-0.789,0.114-1.188  C60.147,50.97,60.466,50.993,60.781,51.001z M57.875,50.673c-0.096,0.292-0.172,0.591-0.266,0.884  c-0.35-0.047-0.697-0.099-1.043-0.156c0.341-0.217,0.589-0.528,0.6-1.002c0.002-0.018-0.005-0.03-0.012-0.043  c0.271,0.078,0.545,0.153,0.818,0.223C57.927,50.599,57.889,50.63,57.875,50.673z M54.648,50.882  c0.461-0.264,0.918-0.536,1.287-0.905c0.333,0.109,0.672,0.217,1.014,0.318c-0.092,0.019-0.182,0.072-0.184,0.144  c-0.011,0.461-0.253,0.721-0.596,0.891c-0.548-0.104-1.089-0.236-1.621-0.419C54.593,50.902,54.631,50.892,54.648,50.882z   M55.165,51.259c0.251,0.066,0.503,0.124,0.758,0.175c-0.058,0.02-0.116,0.039-0.177,0.057c-0.24,0.07-0.179,0.306,0.063,0.235  c0.189-0.056,0.377-0.125,0.551-0.21c0.417,0.072,0.838,0.133,1.262,0.189c0.047,0.047,0.141,0.054,0.223,0.03  c0.305,0.04,0.609,0.08,0.917,0.124c0.093,0.014,0.204-0.118,0.071-0.137c-0.283-0.041-0.565-0.078-0.846-0.115  c0.096-0.296,0.171-0.598,0.268-0.894c0.008-0.025,0.01-0.048,0.006-0.067c0.173,0.041,0.346,0.079,0.52,0.114  c-0.01,0.271-0.096,0.529-0.182,0.784c-0.039,0.119,0.355,0.065,0.396-0.057c0.072-0.217,0.138-0.432,0.167-0.656  c0.089,0.016,0.179,0.031,0.268,0.045c-0.001,0.515-0.03,1.026-0.183,1.528c-0.027,0.091,0.021,0.144,0.092,0.165  c0.039,0.063,0.223,0.08,0.315,0.02c0.071-0.046,0.14-0.096,0.207-0.146c0.124,0.081,0.253,0.153,0.386,0.212  c-0.009,0.026,0.043,0.032,0.08,0.033c0.074,0.03,0.149,0.059,0.226,0.083C58.515,52.909,56.272,52.595,55.165,51.259z   M61.552,52.808c0.001-0.002,0.001-0.003,0.001-0.004c0.684-0.099,1.314-0.239,1.834-0.399c0.119-0.037,0.087-0.166-0.034-0.129  c-0.496,0.153-1.095,0.288-1.743,0.383c0.066-0.177,0.125-0.356,0.168-0.539c0.259-0.005,0.532-0.036,0.813-0.09  c0.708,0.019,1.434-0.043,2.106-0.214c0,0.017-0.001,0.032-0.002,0.049c0,0.009-0.002,0.037-0.004,0.072  C63.668,52.468,62.559,52.839,61.552,52.808z M64.687,52.063c-0.011,0.004-0.019,0.008-0.028,0.013  c0.01-0.006,0.019-0.011,0.028-0.016C64.687,52.061,64.687,52.062,64.687,52.063z M65.098,51.717c0-0.007,0-0.014,0.001-0.02  c0.024-0.009,0.051-0.016,0.075-0.024C65.148,51.688,65.123,51.702,65.098,51.717z M67.201,50.035  c0.074-0.14,0.139-0.289,0.195-0.447c0.025-0.024,0.051-0.048,0.074-0.071c0,0.152,0,0.305,0,0.457  c-0.092,0.087-0.189,0.176-0.292,0.266C67.188,50.172,67.195,50.104,67.201,50.035z M29.615,40.212  c0.074,0.113,0.162,0.261,0.26,0.417c-0.742,0.071-1.529,0.107-2.245,0.042c-0.416-0.172-0.822-0.362-1.224-0.566  c1.083,0.009,2.165-0.025,3.248-0.063c0.042,0.026,0.083,0.052,0.125,0.078C29.719,40.097,29.577,40.153,29.615,40.212z   M29.781,40.12c0.246,0.152,0.495,0.299,0.748,0.438c-0.145,0.018-0.292,0.034-0.442,0.051c-0.121-0.194-0.22-0.372-0.287-0.474  C29.795,40.129,29.789,40.124,29.781,40.12z M25.799,40.095c0.092,0.002,0.185,0.004,0.277,0.006  c0.344,0.18,0.693,0.349,1.048,0.505C26.604,40.515,26.145,40.354,25.799,40.095z M29.324,41.4  c0.068-0.018,0.149-0.064,0.098-0.081c-0.497-0.156-0.986-0.333-1.47-0.523c0.648,0.023,1.332-0.019,1.976-0.085  c0.25,0.386,0.565,0.796,0.927,0.867C30.344,41.522,29.834,41.463,29.324,41.4z M31.346,41.32c-0.03,0.005-0.058,0.014-0.072,0.026  c-0.392,0.357-0.826-0.172-1.138-0.658c0.178-0.021,0.351-0.041,0.52-0.063c0.171,0.091,0.345,0.177,0.521,0.257  C31.196,41.044,31.241,41.205,31.346,41.32z M31.373,40.82c0-0.002,0-0.005,0-0.007c0.018,0.012,0.037,0.021,0.056,0.032  C31.409,40.838,31.391,40.828,31.373,40.82z M32.002,41.264c0-0.021,0-0.042,0-0.063c0.01,0.003,0.021,0.006,0.031,0.009  C32.024,41.23,32.014,41.247,32.002,41.264z M31.164,40.678c0,0.016,0.001,0.03,0.001,0.046c-0.087-0.043-0.174-0.087-0.261-0.132  c0.039-0.005,0.078-0.011,0.116-0.016C31.067,40.61,31.115,40.645,31.164,40.678z M31.163,40.473  c-0.187-0.138-0.366-0.284-0.539-0.427c-0.047-0.039-0.229,0.037-0.186,0.072c0.157,0.13,0.319,0.262,0.487,0.388  c-0.048,0.007-0.096,0.013-0.145,0.02c-0.287-0.155-0.568-0.32-0.846-0.492c0.479-0.017,0.957-0.03,1.436-0.042  c0.223,0.115,0.444,0.235,0.665,0.356C31.784,40.383,31.489,40.428,31.163,40.473z M33.461,40.54  c0.007,0.073,0.017,0.146,0.029,0.218c-0.273-0.075-0.541-0.163-0.798-0.287c-0.033-0.016-0.074-0.007-0.105,0.013  c-0.033-0.021-0.067-0.042-0.098-0.059c-0.046-0.025-0.092-0.051-0.138-0.076c0.019-0.023,0.008-0.044-0.064-0.035  c-0.203-0.111-0.406-0.221-0.611-0.329c0.229-0.004,0.459-0.007,0.688-0.009c-0.019,0.022-0.022,0.048,0.01,0.069  c0.297,0.197,0.597,0.388,0.915,0.549C33.337,40.618,33.433,40.581,33.461,40.54z M33.127,39.595  c-0.074-0.094-0.146-0.189-0.217-0.283c-0.042-0.056-0.233,0.013-0.185,0.078c0.051,0.067,0.103,0.136,0.156,0.204  c-1.182-0.008-2.365,0.025-3.547,0.063c-0.18-0.114-0.359-0.228-0.539-0.339c-0.047-0.03-0.211,0.052-0.188,0.066  c0.149,0.093,0.299,0.187,0.448,0.281c-0.404,0.014-0.809,0.025-1.213,0.036c-0.824,0.022-1.638,0.014-2.443-0.031  c-0.067-0.105-0.124-0.22-0.166-0.347c-0.018-0.055-0.215,0.004-0.199,0.054c0.033,0.1,0.077,0.19,0.125,0.277  c-2.3-0.149-4.529-0.602-6.722-1.501c-4.3-1.765-8.386-5.328-10.61-9.409c-1.046-1.921-1.467-4.136-0.595-6.198  c1.075-2.542,3.78-3.71,6.265-4.407c2.8-0.786,5.783-1.352,8.691-1.209c1.445,0.071,2.861,0.36,4.284,0.599  c1.557,0.262,3.125,0.379,4.417,1.38c0.126,0.098,0.491-0.015,0.668-0.132c-0.3,0.287-0.583,0.585-0.846,0.892  c-1.834,2.146-1.586,5.354-1.116,8.054c-0.27-0.058-0.521-0.124-0.609-0.141c-0.22-0.043-0.438-0.09-0.657-0.139  c0.013-0.013,0.016-0.023-0.005-0.028c-0.257-0.061-0.523-0.109-0.793-0.155c-0.294-0.069-0.589-0.138-0.885-0.201  c-0.22-0.048-0.442-0.086-0.664-0.121c-0.399-0.118-0.78-0.279-1.121-0.521c-0.007-0.006-0.018-0.008-0.03-0.009  c-0.048-0.16-0.291-0.389-0.421-0.519c-0.001-0.021-0.013-0.04-0.042-0.055c-0.006-0.004-0.013-0.008-0.02-0.011  c-0.255-0.29-0.518-0.592-0.818-0.838c0.533-0.308,1.142-0.386,1.75-0.392c0.082-0.001,0.208-0.126,0.074-0.124  c-0.708,0.006-1.411,0.104-2.021,0.483c-0.035,0.022-0.05,0.06-0.015,0.087c0.198,0.155,0.375,0.341,0.546,0.53  c-0.255-0.135-0.511-0.267-0.778-0.377c-0.089-0.037-0.231,0.091-0.113,0.14c0.421,0.174,0.815,0.401,1.221,0.609  c0.079,0.09,0.157,0.181,0.234,0.273c-0.293-0.021-0.575-0.099-0.86-0.171c-0.051-0.013-0.228,0.066-0.162,0.084  c0.348,0.088,0.685,0.181,1.045,0.187c0.013,0,0.031-0.005,0.05-0.011c0.033,0.041,0.066,0.083,0.097,0.126  c-0.025,0.022-0.034,0.05-0.001,0.073c0.052,0.036,0.093,0.053,0.157,0.037c0.179,0.119,0.368,0.219,0.565,0.303  c-0.311-0.041-0.621-0.08-0.931-0.126c-0.413-0.061-1.897-0.071-1.275-0.692c0.018-0.019,0.025-0.054,0.008-0.074  c-0.402-0.477-0.771-0.869-1.317-1.174c-0.076-0.043,0.237-0.187,0.657-0.347c-0.045,0.055-0.089,0.111-0.139,0.162  c-0.162,0.166,0.229,0.151,0.318,0.061c0.128-0.132,0.242-0.275,0.358-0.418c0.508-0.177,1.014-0.336,1.148-0.366  c0.125-0.028,0.086-0.167-0.037-0.139c-0.302,0.069-0.598,0.151-0.891,0.239c0.053-0.117-0.268-0.1-0.347-0.018  c-0.052,0.054-0.098,0.113-0.146,0.171c-0.467,0.157-0.927,0.336-1.385,0.532c-0.056,0.023-0.084,0.103-0.013,0.127  c0.627,0.219,1.898,0.905,1.163,1.64c-0.046,0.047,0.002,0.094,0.049,0.104c1.339,0.287,2.697,0.42,4.039,0.679  c1.021,0.198,2.02,0.464,3.039,0.638c0.051,0.291,0.104,0.577,0.159,0.854c0.64,3.289,2.439,6.024,4.023,8.902  c-0.209,0.307-0.395,0.63-0.615,0.929c-0.051,0.07,0.107,0.047,0.13,0.038c0.272-0.101,0.478-0.278,0.681-0.48  c0.081-0.081-0.115-0.071-0.158-0.028c-0.112,0.111-0.225,0.215-0.351,0.301c0.136-0.2,0.264-0.405,0.396-0.608  c0.162,0.297,0.322,0.594,0.477,0.894c0.178,0.343,0.357,0.682,0.542,1.018C34.31,39.624,33.719,39.603,33.127,39.595z   M30.202,45.873c0.036-0.023,0.071-0.049,0.105-0.074c0.006,0.03,0.012,0.061,0.019,0.092  C30.285,45.884,30.243,45.881,30.202,45.873z M41.132,45.761c0,1.63,0,3.26,0,4.891c-0.011-0.005-0.025-0.006-0.042-0.005  c-0.012-0.021-0.021-0.042-0.031-0.063c0-0.247,0-0.494,0-0.74c0-0.041-0.199-0.01-0.199,0.053c0,0.088,0,0.177,0,0.265  c-0.63-1.537-0.532-3.506-0.886-5.113c0.404,0.225,0.817,0.436,1.231,0.638C41.165,45.697,41.132,45.724,41.132,45.761z   M36.201,43.634c-0.035,0.424-0.181,0.828-0.447,1.181c-0.074,0.099,0.115,0.113,0.164,0.049c0.26-0.344,0.414-0.729,0.469-1.135  c0.001-0.002,0.004-0.004,0.004-0.006c0.152-0.415,0.275-0.832,0.338-1.259c0.01,0.012,0.02,0.024,0.028,0.036  c0.104,0.129,0.216,0.249,0.327,0.37c-0.056-0.007-0.153,0.023-0.158,0.063c-0.047,0.436-0.093,0.923-0.257,1.342  c-0.001-0.034-0.002-0.067-0.002-0.103c0-0.045-0.198-0.013-0.198,0.053c0,0.134,0.006,0.257,0.037,0.373  c-0.131,0.202-0.305,0.375-0.547,0.494c-0.119,0.06,0.063,0.07,0.119,0.043c0.203-0.101,0.361-0.232,0.489-0.386  c0.024,0.043,0.052,0.085,0.091,0.126c0.037,0.039,0.154-0.007,0.184-0.04c0.126-0.143,0.135-0.386,0.19-0.561  c0.017-0.053-0.179-0.025-0.197,0.031c-0.033,0.104-0.051,0.239-0.088,0.36c-0.019-0.036-0.03-0.075-0.04-0.113  c0.285-0.469,0.354-1.078,0.416-1.64c0.353,0.381,0.735,0.727,1.145,1.038c-1.289,1.115-2.674,1.934-4.125,2.522  c0.04-0.117,0.055-0.232,0.056-0.365c0-0.079-0.161-0.054-0.192,0.004c-0.027-0.12-0.056-0.24-0.083-0.36  c0.173-0.102,0.302-0.235,0.39-0.393c0.047,0.253,0.148,0.511,0.365,0.536c0.058,0.007,0.233-0.089,0.123-0.102  c-0.086-0.01-0.144-0.097-0.185-0.187c0.008-0.005,0.016-0.009,0.021-0.015c0.154-0.169,0.246-0.383,0.287-0.605  c0.004-0.002,0.006-0.005,0.008-0.006c0.002,0,0.002,0.001,0.004,0.002c0.166,0.091,0.252,0.164,0.418,0.113  c-0.004,0.106-0.008,0.213-0.004,0.319c0.004,0.094,0.048,0.186,0.164,0.123c0.111-0.059,0.123-0.234,0.148-0.345  c0.011-0.05-0.053-0.06-0.112-0.045c0.005-0.198,0.019-0.396,0.021-0.596c0-0.052-0.063-0.063-0.117-0.049  c-0.008-0.068-0.02-0.137-0.035-0.204C35.707,44.083,35.97,43.858,36.201,43.634z M35.278,44.978  c-0.067-0.009-0.133-0.07-0.188-0.101c-0.002-0.001-0.005-0.001-0.008-0.002c0.063-0.044,0.127-0.086,0.188-0.133  C35.276,44.82,35.278,44.898,35.278,44.978z M35.267,44.675c-0.028-0.008-0.063-0.009-0.077-0.008  c-0.083,0.007-0.168,0.034-0.239,0.081c0.001-0.037-0.001-0.074-0.003-0.112c0.1-0.065,0.196-0.133,0.291-0.2  C35.252,44.515,35.261,44.595,35.267,44.675z M34.556,45.445c-0.023-0.068-0.038-0.14-0.051-0.212  c0.067-0.035,0.131-0.075,0.196-0.113C34.669,45.236,34.624,45.347,34.556,45.445z M34.744,44.89  c-0.085,0.06-0.171,0.116-0.26,0.17c-0.003-0.042-0.008-0.083-0.009-0.124c0.094-0.056,0.185-0.114,0.276-0.173  C34.75,44.806,34.748,44.848,34.744,44.89z M33.832,45.361c-0.008-0.032-0.05-0.04-0.094-0.033c0.171-0.082,0.338-0.17,0.503-0.262  c-0.012,0.054-0.027,0.105-0.046,0.155c-0.117,0.06-0.235,0.115-0.357,0.166C33.836,45.379,33.834,45.37,33.832,45.361z   M34.091,45.432c-0.052,0.08-0.116,0.151-0.194,0.212c-0.01-0.041-0.019-0.082-0.029-0.123  C33.943,45.491,34.018,45.464,34.091,45.432z M45.885,48.458c-0.324,0.497-0.688,0.953-1.076,1.377c0-0.175,0-0.35,0-0.524  c0-0.036-0.031-0.052-0.068-0.054c0.453-0.349,0.594-0.9,0.525-1.518c-0.009-0.082-0.209-0.034-0.199,0.054  c0.074,0.671-0.091,1.293-0.766,1.567c-0.127,0.053-0.014,0.144,0.084,0.104c0.082-0.033,0.154-0.072,0.225-0.114  c0,0.234,0,0.469,0,0.703c-4.413,4.558-12.373,4.831-18.192,4.076c-3.685-0.479-7.421-1.461-10.961-2.568  c-1.837-0.574-3.633-1.302-5.267-2.326c-0.787-0.493-1.492-1.098-2.07-1.823c-0.597-0.75-0.688-1.627-0.696-2.527  c0.726,0.238,1.473,0.437,2.224,0.604c5.212,1.164,10.661,2.676,16.019,2.849c0.852,0.027,1.704,0.016,2.551-0.038  c0.326,0.642,0.528,1.347,1.032,1.881c0.039,0.041,0.225-0.03,0.187-0.07c-0.489-0.52-0.689-1.2-1-1.824  c0.374-0.027,0.745-0.064,1.116-0.109c0.292,0.992,0.705,1.941,1.063,2.91c0.026,0.069,0.171,0.04,0.193-0.02  c0.084-0.221,0.096-0.42,0.098-0.657c0.001-0.096-0.2-0.06-0.2,0.02c-0.001,0.104-0.002,0.198-0.011,0.292  c-0.326-0.853-0.675-1.695-0.936-2.57c0.349-0.045,0.696-0.097,1.042-0.158c0.105,0.68,0.284,1.362,0.507,2.012  c0.051,0.149,0.273,0.779,0.507,0.424c0.059-0.089-0.144-0.086-0.189-0.019c0.076-0.115-0.062-0.3-0.119-0.459  c-0.08-0.22-0.143-0.446-0.206-0.672c-0.12-0.434-0.229-0.876-0.298-1.321c1.121-0.211,2.219-0.515,3.275-0.924  c-0.003,0.009-0.005,0.018-0.004,0.027c0.106,1.038,0.354,2.047,0.732,3.019c0.031,0.082,0.185,0.038,0.2-0.035  c0.066-0.313,0.013-0.595,0-0.915c-0.005-0.1-0.205-0.064-0.201,0.018c0.006,0.127,0.016,0.253,0.023,0.379  c-0.276-0.816-0.468-1.657-0.556-2.518c-0.002-0.021-0.016-0.033-0.034-0.039c0.611-0.244,1.208-0.527,1.788-0.847  c0.27,1.355,0.534,2.711,0.883,4.049c0.021,0.076,0.188,0.024,0.2-0.037c0.045-0.235,0.022-0.416-0.001-0.656  c-0.005-0.052-0.103-0.045-0.159-0.009c-0.276-1.144-0.505-2.298-0.734-3.452c0.622-0.354,1.225-0.75,1.803-1.199  c0.037,0.004,0.078,0.002,0.125-0.012c0.18-0.055,0.289-0.225,0.367-0.393c0.031-0.026,0.064-0.051,0.095-0.077  c0.3,0.202,0.608,0.39,0.923,0.57c0.449,1.796,0.254,4.077,1.133,5.732c0,0.179,0,0.359,0,0.538c0,0.054,0.18-0.009,0.197-0.042  s0.033-0.062,0.048-0.091c0.013,0.019,0.023,0.038,0.036,0.057c0.048,0.065,0.238-0.007,0.184-0.083  c-0.054-0.074-0.102-0.153-0.148-0.231c-0.002-0.009-0.006-0.02-0.007-0.028c0.058,0.028,0.165-0.005,0.165-0.071  c0-1.646,0-3.292,0-4.938c1.047,0.509,2.106,0.977,3.129,1.52c-0.055,0.006-0.121,0.028-0.127,0.057  c-0.046,0.261-0.045,0.524-0.023,0.787c0.013,0.158,0.02,0.38,0.12,0.512c0.03,0.038,0.22-0.027,0.187-0.069  c-0.094-0.123-0.094-0.35-0.107-0.495c-0.025-0.25-0.023-0.506,0.02-0.754c0.503,0.27,0.998,0.557,1.476,0.88  c0.05,0.034,0.099,0.07,0.147,0.105C46.039,48.323,45.938,48.379,45.885,48.458z"></path>	<path d="M36.645,33.288c-0.152,0-0.422,0.232-0.153,0.232C36.645,33.521,36.913,33.288,36.645,33.288z"></path>	<path d="M37.373,35.526c0,0.006,0,0.011,0,0.016c-0.948-1.066-1.562-2.353-1.712-3.901c-0.007-0.071-0.207-0.027-0.199,0.053  c0.161,1.653,0.842,3.005,1.893,4.113c-0.041,0.674-0.176,1.337-0.257,2.007c-0.022,0.19,0.382,0.128,0.401-0.036  c0.064-0.536,0.165-1.069,0.225-1.605c0.207,0.193,0.426,0.378,0.656,0.556c0,0.241,0,0.482,0,0.724  c0,0.182,0.398,0.104,0.398-0.043c0-0.13,0-0.259,0-0.389c0.09,0.063,0.18,0.125,0.271,0.186c0.057,0.038,0.24-0.045,0.156-0.1  c-0.146-0.097-0.287-0.196-0.428-0.298c0-0.166,0-0.332,0-0.497c0-0.183-0.398-0.104-0.398,0.043c0,0.049,0,0.098,0,0.146  c-0.223-0.18-0.435-0.368-0.634-0.563c0.013-0.149,0.024-0.297,0.027-0.446C37.777,35.295,37.376,35.363,37.373,35.526z"></path>	<path d="M38.928,37.446c0,0.305,0,0.609,0,0.915c0,0.202,0.402,0.137,0.402-0.034c0-0.305,0-0.609,0-0.915  C39.33,37.21,38.928,37.275,38.928,37.446z"></path>	<path d="M39.937,38.306c-0.007,0.559-0.102,1.097-0.272,1.628c-0.026,0.084,0.359,0.034,0.393-0.068  c0.175-0.543,0.271-1.096,0.277-1.666C40.335,38.131,39.938,38.188,39.937,38.306z"></path>	<path d="M40.791,40.028c0-0.091,0-0.183,0-0.274c0-0.094-0.397-0.027-0.397,0.107c0,0.091,0,0.183,0,0.274  C40.394,40.229,40.791,40.163,40.791,40.028z"></path>	<path d="M42.581,39.839c0.182-0.131-0.219-0.133-0.317-0.062c-0.054,0.038-0.105,0.079-0.157,0.121  c-1.211-1.331-2.264-2.801-3.343-4.244c-0.035-0.049-0.228,0.018-0.186,0.074c1.092,1.461,2.158,2.948,3.389,4.292  c-0.372,0.344-0.648,0.787-0.555,1.318c0.09,0.505,0.537,0.887,0.986,1.084c0.006,0.003,0.012,0.008,0.019,0.012  c0.003,0.001,0.009,0.001,0.012,0.002c0.132,0.056,0.269,0.093,0.407,0.115c0.137,0.126,0.295,0.233,0.478,0.317  c0.166,0.077,0.46-0.162,0.229-0.269c-0.035-0.017-0.066-0.037-0.1-0.056c0.174-0.032,0.344-0.09,0.501-0.179  c0.206-0.115,0.353-0.281,0.458-0.471c0.365,0.238,0.723,0.485,1.039,0.79c0.059,0.058,0.248-0.021,0.182-0.084  c-0.348-0.335-0.743-0.604-1.146-0.864c0.136-0.331,0.17-0.717,0.155-1.068c-0.004-0.123-0.403-0.044-0.396,0.106  c0.01,0.242-0.003,0.513-0.065,0.764c-0.163-0.105-0.324-0.211-0.482-0.322c-0.065-0.046-0.243,0.047-0.155,0.109  c0.191,0.134,0.387,0.26,0.584,0.386c-0.082,0.219-0.211,0.412-0.418,0.541c-0.158,0.099-0.341,0.121-0.525,0.103  c-0.35-0.317-0.508-0.784-0.459-1.282c0.021-0.206-0.385-0.15-0.402,0.03c-0.032,0.325,0.019,0.629,0.137,0.898  c-0.318-0.43-0.364-1.112-0.11-1.587c0.264,0.274,0.532,0.544,0.813,0.802c0.047,0.043,0.232-0.031,0.186-0.074  c-0.311-0.285-0.605-0.584-0.895-0.888c0.084-0.107,0.187-0.2,0.313-0.265c0.166-0.085-0.234-0.033-0.302,0.001  c-0.058,0.029-0.111,0.064-0.162,0.104c-0.003-0.004-0.007-0.008-0.011-0.012C42.378,39.993,42.48,39.911,42.581,39.839z   M41.793,41.042c-0.006-0.314,0.146-0.593,0.357-0.825c0.002,0.001,0.004,0.002,0.004,0.004  C41.953,40.438,41.83,40.732,41.793,41.042z"></path>	<path d="M48.364,33.933c0.775,0.421,1.73,0.967,2.649,0.88c0.379-0.036,1.088,1.526,1.395,1.88  c0.021,0.023,0.043,0.044,0.063,0.066c0.032,0.08,0.063,0.161,0.098,0.24c0.017,0.039,0.102,0.027,0.154,0.001  c0.708,0.589,1.578,0.646,2.154-0.242c0.042-0.065-0.327-0.041-0.395,0.063c-0.564,0.871-1.378,0.215-1.986-0.626  c-0.277-0.889-0.475-1.858-0.922-2.61c-0.405-0.68-0.046-0.576,0.003-1.2c0.042-0.539-0.507-1.226-0.64-1.75  c-0.011-0.041-0.105-0.029-0.16,0.001c0.183-0.721,0.564-1.352,1.199-1.799c0.221-0.155-0.101-0.31-0.266-0.192  c-0.295,0.207-0.539,0.454-0.742,0.727c-0.059-0.127-0.106-0.259-0.114-0.401c0.196-0.029,0.256-0.281,0.001-0.281  c-0.035,0-0.065,0.009-0.094,0.021c0.069-0.1,0.142-0.197,0.217-0.294c0.104,0.069,0.207,0.139,0.313,0.208  c0.061,0.041,0.194-0.006,0.254-0.026c0.017-0.006,0.178-0.067,0.121-0.105c-0.274-0.183-0.549-0.366-0.824-0.549  c-0.061-0.041-0.194,0.006-0.254,0.027c-0.017,0.006-0.177,0.067-0.121,0.104c0.021,0.014,0.041,0.027,0.063,0.041  c-0.053,0.011-0.1,0.027-0.124,0.049c-0.306,0.272-0.556,0.582-0.757,0.921c0.138-0.427,0.352-0.819,0.623-1.115  c0.167-0.183-0.217-0.229-0.33-0.105c-0.824,0.898-1.15,2.517-0.566,3.614c0.042,0.08,0.174,0.073,0.27,0.023  c0.014,0.018,0.027,0.034,0.04,0.052c-0.024,0.016-0.044,0.033-0.05,0.054c-0.13,0.472-0.412,0.844-0.686,1.221  c-0.111-0.027-0.305,0.032-0.324,0.14c-0.023,0.131-0.032,0.26-0.026,0.385c-0.099,0.169-0.187,0.347-0.245,0.542  C48.348,33.909,48.352,33.922,48.364,33.933z M50.729,29.739c-0.067-0.065-0.138-0.133-0.149-0.229  c-0.009-0.078-0.147-0.078-0.259-0.037c0.047-0.1,0.098-0.196,0.15-0.292c0.029,0.153,0.098,0.295,0.168,0.436  c0.021,0.041,0.072,0.055,0.133,0.053C50.758,29.693,50.741,29.716,50.729,29.739z M50.669,28.911  c-0.016,0.003-0.03,0.007-0.046,0.012c0.01-0.016,0.02-0.03,0.029-0.046C50.655,28.89,50.662,28.9,50.669,28.911z M49.925,31.836  c0.031,0.027,0.089,0.031,0.151,0.021c0.367,0.257,0.743,0.502,1.033,0.85c0.031,0.037,0.218-0.031,0.188-0.067  c-0.292-0.35-0.67-0.596-1.039-0.854c0.043-0.032,0.064-0.069,0.033-0.102c-0.213-0.22-0.38-0.479-0.549-0.731  c-0.023-0.037-0.09-0.043-0.159-0.031c-0.062-0.209-0.096-0.431-0.104-0.658c0.048-0.021,0.084-0.051,0.094-0.086  c0.197-0.75,0.555-1.42,1.134-1.943c0.041,0.027,0.083,0.056,0.124,0.083c-0.076,0.015-0.149,0.041-0.173,0.071  c-0.339,0.43-0.63,0.886-0.839,1.393c-0.031,0.075,0.35,0.036,0.393-0.068c0,0,0,0,0-0.001c0.039,0.078,0.107,0.144,0.168,0.205  c0.049,0.05,0.168,0.037,0.262-0.001c-0.132,0.271-0.231,0.561-0.297,0.864c-0.057,0.032-0.092,0.075-0.07,0.118  c0.012,0.026,0.022,0.053,0.035,0.079c-0.014,0.082-0.029,0.163-0.039,0.247c-0.012,0.109,0.092,0.147,0.197,0.134  c0.083,0.215,0.163,0.43,0.264,0.638c0.068,0.143,0.457,0.017,0.397-0.106c-0.155-0.322-0.264-0.663-0.409-0.989  c0.01-0.055,0.022-0.109,0.035-0.164c0.174,0.621,0.66,1.237,0.607,1.898c-0.027,0.365-0.387,0.488-0.162,0.866  c0.006,0.01,0.01,0.02,0.016,0.029c-0.61-0.174-1.222-0.342-1.851-0.438c-0.048-0.007-0.22,0.07-0.163,0.078  c0.652,0.1,1.287,0.277,1.921,0.458c0.024,0.007,0.086-0.011,0.129-0.032c0.127,0.225,0.239,0.457,0.341,0.698  c-0.34-0.08-0.66-0.188-0.952-0.397c-0.073-0.054-0.246,0.049-0.153,0.116c0.355,0.256,0.755,0.372,1.176,0.46  c0.114,0.288,0.217,0.583,0.316,0.882c-0.154-0.296-0.262-0.558-0.302-0.722c-0.01-0.041-0.087-0.041-0.116-0.038  c-0.486,0.046-1.587-0.061-2.198-0.426c0.034-0.043,0.04-0.092-0.016-0.138C49.104,33.834,49.008,33.56,49,33.27  c0.026-0.062,0.061-0.125,0.105-0.191C49.411,32.626,49.726,32.309,49.925,31.836z"></path>	<path d="M35.092,19.209c-0.768,0.03-1.356,0.473-1.884,0.994c-0.164,0.161,0.229,0.145,0.316,0.058  c0.386-0.381,0.837-0.813,1.409-0.836C35.075,19.42,35.36,19.199,35.092,19.209z"></path>	<path d="M34.76,20.093c-0.102-0.039-0.208,0.002-0.281,0.075c-0.382,0.382-0.758,0.769-1.098,1.189  c-0.16,0.199,0.216,0.276,0.335,0.128c0.34-0.421,0.716-0.807,1.098-1.189C34.883,20.227,34.842,20.125,34.76,20.093z"></path>	<path d="M33.651,22.242c-0.406,0.213-0.76,0.528-1.02,0.906c-0.055,0.081,0.047,0.131,0.112,0.135  c0.095,0.005,0.206-0.032,0.261-0.113c0.205-0.298,0.489-0.572,0.81-0.74C34.057,22.303,33.834,22.146,33.651,22.242z"></path>	<path d="M33.914,22.973c-0.183,0.274-0.366,0.549-0.549,0.823c-0.102,0.152,0.299,0.114,0.37,0.008  c0.183-0.274,0.366-0.549,0.549-0.823C34.385,22.828,33.985,22.866,33.914,22.973z"></path>	<path d="M33.992,24.104c-0.178,0.346-0.409,0.657-0.625,0.979c-0.093,0.139,0.302,0.089,0.366-0.006  c0.228-0.339,0.468-0.668,0.655-1.031C34.437,23.951,34.051,23.988,33.992,24.104z"></path>	<path d="M33.563,26.692c0.085-0.403,0.243-0.778,0.533-1.078c0.062-0.064-0.055-0.069-0.094-0.065  c-0.084,0.006-0.205,0.031-0.266,0.095c-0.302,0.313-0.475,0.695-0.565,1.118C33.151,26.854,33.542,26.791,33.563,26.692z"></path>	<path d="M33.891,27.59c0.097,0.032,0.212-0.004,0.281-0.076c0.167-0.171,0.291-0.377,0.457-0.549  c0.065-0.066,0.035-0.157-0.049-0.186c-0.098-0.033-0.212,0.003-0.282,0.075c-0.167,0.172-0.291,0.377-0.458,0.549  C33.776,27.47,33.807,27.562,33.891,27.59z"></path>	<path d="M34.846,28.138c0-0.122,0-0.244,0-0.366c0-0.06-0.397-0.004-0.397,0.106c0,0.122,0,0.244,0,0.366  C34.449,28.304,34.846,28.248,34.846,28.138z"></path>	<path d="M35.374,28.934c-0.078,0.007-0.211,0.03-0.266,0.095c-0.107,0.127-0.117,0.29-0.008,0.419  c0.064,0.075,0.435-0.063,0.375-0.136c-0.071-0.083-0.08-0.227-0.008-0.313C35.523,28.933,35.418,28.93,35.374,28.934z"></path>	<path d="M35.762,30c0-0.061,0-0.122,0-0.183c0-0.19-0.4-0.116-0.4,0.039c0,0.062,0,0.122,0,0.184  C35.362,30.229,35.762,30.156,35.762,30z"></path>	<path d="M35.854,30.916c0-0.03,0-0.062,0-0.092c0-0.194-0.4-0.122-0.4,0.038c0,0.03,0,0.061,0,0.092  C35.454,31.147,35.854,31.076,35.854,30.916z"></path>	<path d="M63.587,47.408c-0.438,0.081-0.879,0.086-1.322,0.086c-0.117,0-0.434,0.178-0.168,0.177c0.478,0,0.951-0.01,1.422-0.097  C63.684,47.544,63.865,47.357,63.587,47.408z"></path>	<path d="M57.043,44.408c-0.004,0.021-0.008,0.041-0.012,0.063c-0.105,0.026-0.201,0.089-0.172,0.146  c0.033,0.066,0.072,0.13,0.109,0.193c-0.131,0.753-0.195,1.511-0.201,2.277c0,0.045,0.094,0.054,0.12,0.053  c0.207-0.004,0.429-0.017,0.649-0.047c-0.021,0.042-0.035,0.088-0.039,0.142c-0.014,0.193,0.391,0.128,0.4-0.037  c0.007-0.096,0.07-0.156,0.14-0.213c0.378-0.122,0.711-0.335,0.901-0.71c0.377-0.746-0.331-1.71-0.781-2.244  c-0.084-0.1-0.465,0.04-0.371,0.151c0.472,0.559,1.053,1.379,0.756,2.146c-0.074,0.189-0.249,0.323-0.424,0.413  c-0.01-0.006-0.018-0.013-0.029-0.017c-0.098-0.029-0.209,0.007-0.281,0.075c-0.023,0.022-0.047,0.043-0.072,0.064  c-0.019,0.004-0.037,0.01-0.057,0.013c-0.359,0.071-0.52,0.176-0.508-0.327c0.006-0.191,0.016-0.382,0.03-0.571  c0.062,0.145,0.138,0.281,0.23,0.407c0.074,0.122,0.163,0.231,0.295,0.304c0.09,0.05,0.203,0.037,0.285-0.024  c0.026-0.02,0.048-0.052,0.06-0.085c0.011-0.021,0.016-0.043,0.006-0.065c-0.006-0.021-0.019-0.039-0.043-0.053  c-0.01-0.005-0.017-0.013-0.025-0.019c-0.051-0.038-0.098-0.079-0.139-0.126c-0.006-0.007-0.014-0.014-0.019-0.021  c-0.011-0.013-0.021-0.028-0.03-0.042c-0.047-0.07-0.086-0.146-0.125-0.224c-0.01-0.021-0.025-0.035-0.045-0.046  c-0.046-0.094-0.088-0.189-0.121-0.286c-0.035-0.101-0.189-0.1-0.297-0.049c0.014-0.118,0.027-0.235,0.043-0.352  c0.125,0.049,0.393-0.057,0.346-0.148c-0.078-0.15-0.166-0.294-0.252-0.439c0.021-0.119,0.043-0.238,0.068-0.357  C57.469,44.214,57.07,44.28,57.043,44.408z"></path>	<path d="M61.211,40.982c0.215-0.165-0.114-0.264-0.256-0.154c-0.766,0.59-0.945,1.813-0.599,2.75  c-0.009,0.071-0.019,0.143-0.021,0.216c-0.001,0.022,0.054,0.029,0.124,0.022c0.277,0.559,0.763,0.969,1.443,0.999  c0.854,0.036,1.674-0.508,1.693-1.396c0.023-1.015-0.875-1.923-1.755-2.271c-0.149-0.059-0.465,0.155-0.235,0.245  c0.745,0.295,1.301,0.93,1.531,1.692c0.305,1.005-0.691,1.781-1.635,1.342c-0.352-0.164-0.604-0.497-0.754-0.897  c0.049-0.448,0.219-0.86,0.428-1.257c0.029,0.028,0.061,0.058,0.09,0.087c0.113,0.113,0.49-0.042,0.366-0.166  c-0.09-0.089-0.181-0.172-0.276-0.248c0.066-0.115,0.133-0.23,0.197-0.345c0.029-0.05-0.334-0.028-0.392,0.071  c-0.021,0.034-0.04,0.069-0.061,0.104c-0.056-0.029-0.112-0.057-0.174-0.079c-0.06-0.021-0.147,0.002-0.216,0.042  C60.814,41.429,60.98,41.16,61.211,40.982z M60.69,41.941c0.089,0.032,0.167,0.078,0.243,0.131  c-0.127,0.224-0.246,0.45-0.345,0.685c-0.019-0.283,0.007-0.568,0.071-0.833C60.67,41.93,60.676,41.937,60.69,41.941z"></path>	<path d="M61.534,42.443c-0.259,0.441-0.454,0.906-0.561,1.407c-0.039,0.184,0.366,0.128,0.401-0.036  c0.102-0.478,0.29-0.917,0.537-1.337C62.02,42.294,61.615,42.306,61.534,42.443z"></path>	<path d="M65.092,38.589c-0.16,0-0.42,0.242-0.15,0.242c0.145,0,0.289,0,0.434,0c-0.385,0.501-0.494,1.009-0.344,1.613  c-0.456-0.623-0.468-1.377-0.186-2.137c0.024-0.064-0.354-0.025-0.391,0.073c-0.338,0.907-0.265,1.813,0.465,2.5  c0.038,0.035,0.15,0.013,0.242-0.024c0.034,0.087,0.069,0.173,0.105,0.259c-0.023,0.807-0.185,1.592-0.533,2.326  c-0.1,0.209,0.303,0.216,0.381,0.051c0.229-0.481,0.382-0.987,0.47-1.507c0.077,0.358,0.055,0.722-0.204,1.113  c-0.1,0.15,0.299,0.109,0.369,0.005c0.975-1.472-1.103-2.8-0.003-4.272c0.28,0,0.56,0,0.841,0c0.16,0,0.419-0.242,0.15-0.242  C66.189,38.589,65.641,38.589,65.092,38.589z"></path>	<path d="M63.736,29.468c1.133,1.353,1.791,2.898,2.088,4.631c0.031,0.185,0.43,0.083,0.396-0.107  c-0.301-1.76-0.971-3.326-2.12-4.699C63.983,29.152,63.605,29.312,63.736,29.468z"></path>	<path d="M67.776,36.919c-0.019-1.157-0.271-2.268-0.549-3.385c-0.03-0.12-0.429-0.017-0.397,0.106  c0.279,1.117,0.529,2.228,0.549,3.385C67.381,37.129,67.779,37.059,67.776,36.919z"></path>	<path d="M59.91,25.484c-0.73-1.172-1.551-2.28-2.379-3.385c-0.07-0.093-0.422,0.074-0.398,0.107  c0.828,1.104,1.648,2.212,2.379,3.384C59.57,25.685,59.938,25.528,59.91,25.484z"></path>	<path d="M50.85,33.085c0.055,0.026,0.238-0.055,0.159-0.093c-0.391-0.188-0.796-0.275-1.229-0.281  c-0.07-0.001-0.213,0.104-0.078,0.106C50.107,32.822,50.482,32.907,50.85,33.085z"></path>	<path d="M43.257,44.426c0.055,0.019,0.235-0.063,0.16-0.089c-0.831-0.283-1.639-0.632-2.47-0.915  c-0.055-0.019-0.235,0.064-0.16,0.09C41.618,43.795,42.426,44.143,43.257,44.426z"></path>	<path d="M12.581,20.886c0.417-0.09,0.834-0.319,1.074-0.677c0.226-0.338,0.028-0.66-0.229-0.898  c0.008-0.055-0.04-0.107-0.131-0.111c-0.048-0.038-0.096-0.072-0.142-0.103c-0.055-0.038-0.234,0.042-0.185,0.075  c0.032,0.021,0.063,0.043,0.093,0.066c-0.86,0.176-1.741,0.3-2.449,0.862c-0.022,0.018-0.036,0.035-0.043,0.049  c-0.313-0.141,0.156-0.294,0.373-0.424c0.29-0.174,0.597-0.322,0.899-0.473c0.119-0.06-0.061-0.082-0.122-0.051  c-0.547,0.274-1.084,0.555-1.573,0.927c-0.034,0.026-0.021,0.057,0.017,0.064c0.551,0.106,0.77,0.46,1.224,0.699  C11.778,21.097,12.171,20.974,12.581,20.886z M10.751,20.23c0.071-0.003,0.144-0.019,0.183-0.049  c0.183-0.145,0.385-0.252,0.598-0.339c0.28,0.183,0.599,0.339,0.797,0.618c0.056,0.079,0.244-0.001,0.181-0.09  c-0.192-0.272-0.488-0.434-0.764-0.608c0.493-0.163,1.03-0.228,1.526-0.334c0,0,0.001-0.001,0.002-0.001  c0.189,0.197,0.292,0.421,0.229,0.657c-0.057-0.057-0.114-0.114-0.17-0.17c-0.067-0.067-0.254,0.017-0.182,0.09  c0.089,0.089,0.178,0.178,0.267,0.267c-0.042,0.064-0.097,0.129-0.167,0.194c-0.472,0.432-1.404,0.61-1.906,0.182  C11.15,20.478,10.973,20.337,10.751,20.23z"></path>	<path d="M12.968,20.007c-0.122-0.122-0.244-0.244-0.366-0.366c-0.058-0.058-0.246,0.021-0.183,0.083  c0.122,0.122,0.244,0.244,0.366,0.366C12.842,20.149,13.031,20.071,12.968,20.007z"></path>	<path d="M15.065,23.654c0.095-0.605-0.545-0.922-1.031-1.008c-0.065-0.011-0.235,0.091-0.121,0.11  c0.5,0.089,0.968,0.358,0.953,0.921c-0.021,0.739-0.933,0.878-1.48,0.676c-0.419-0.154-0.804-0.414-1.173-0.661  c-0.144-0.096-0.284-0.196-0.423-0.299c-0.051-0.083-0.083-0.178-0.087-0.287c-0.002-0.052-0.174-0.04-0.292,0.008  c-0.036-0.027-0.072-0.054-0.108-0.081c-0.031-0.022-0.062-0.046-0.092-0.068c-0.285-0.187-0.134-0.244,0.438-0.18  c0.069,0.091,0.139,0.181,0.218,0.263c0.041,0.041,0.157,0.023,0.25-0.014c0.215,0.005,0.417,0.03,0.606,0.149  c0.105,0.065,0.302-0.015,0.349-0.109c0.095,0.04,0.188,0.084,0.275,0.14c0.069,0.044,0.247-0.052,0.155-0.109  c-0.312-0.197-0.671-0.286-1.025-0.375c-0.029-0.007-0.067,0.004-0.1,0.022c-0.053-0.005-0.108-0.009-0.163-0.01  c-0.052-0.018-0.103-0.034-0.154-0.048c-0.09-0.115-0.177-0.232-0.278-0.338c-0.079-0.081-0.45,0.063-0.373,0.143  c0.038,0.038,0.069,0.082,0.104,0.124c-0.221,0.012-0.433,0.083-0.637,0.244c-0.014,0.011-0.032,0.043-0.012,0.057  c0.15,0.109,0.3,0.22,0.449,0.329c0.023,0.232,0.164,0.416,0.371,0.524c0.075,0.039,0.184,0.009,0.257-0.019  c0.004-0.001,0.024-0.011,0.046-0.022c0.195,0.135,0.392,0.267,0.595,0.39c0.437,0.264,1.023,0.581,1.554,0.429  C14.595,24.423,14.987,24.153,15.065,23.654z"></path>	<path d="M12.522,23.57c0.485,0.191,0.979,0.357,1.464,0.549c0.054,0.021,0.236-0.06,0.16-0.09  c-0.485-0.191-0.979-0.357-1.464-0.549C12.627,23.459,12.446,23.54,12.522,23.57z"></path>	<path d="M24.951,23.118c-0.047-0.062-0.239,0.011-0.183,0.082c0.3,0.39,0.694,0.674,1.111,0.927  c0.064,0.038,0.244-0.052,0.156-0.105C25.627,23.774,25.245,23.499,24.951,23.118z"></path>	<path d="M25.37,32.271c0.042,0.001,0.106-0.036,0.126-0.067c0.394,0.392,0.961,0.614,1.523,0.629  c0.09,0.002,0.206-0.132,0.071-0.136c-0.819-0.021-1.642-0.505-1.857-1.331c-0.022-0.086-0.221-0.033-0.199,0.054  c0.076,0.29,0.229,0.537,0.424,0.743c-0.004-0.001-0.006-0.002-0.011-0.002c-0.435-0.01-1.392-0.183-1.489-0.706  c-0.12-0.644,1.435-0.378,1.777-0.373c0.073,0.001,0.212-0.108,0.078-0.11c-0.508-0.008-1.718-0.3-2.004,0.309  C23.478,31.984,24.93,32.261,25.37,32.271z"></path>	<path d="M29.967,38.015c-1.126,0.292-2.271,0.282-3.423,0.271c0.428-0.373,0.824-0.775,1.063-1.302  c0.048-0.105-0.153-0.106-0.19-0.024c-0.247,0.542-0.667,0.945-1.111,1.324c-0.073,0-0.146-0.001-0.22-0.001  c-0.081-0.001-0.209,0.122-0.075,0.122c0.05,0.001,0.1,0.001,0.15,0.001c-0.029,0.024-0.058,0.05-0.087,0.074  c-0.104,0.086,0.055,0.158,0.133,0.094c0.066-0.056,0.131-0.11,0.197-0.166c1.21,0.01,2.411,0.024,3.594-0.283  C30.118,38.094,30.088,37.983,29.967,38.015z"></path>	<path d="M22.472,35.381c-1.365-0.123-2.66-0.609-4.025-0.732c-0.045-0.004-0.21,0.068-0.165,0.073  c1.365,0.122,2.66,0.609,4.025,0.731C22.353,35.457,22.518,35.385,22.472,35.381z"></path>	<path d="M23.803,35.917c-0.843-0.006-1.678-0.104-2.417-0.536c-0.055-0.032-0.228,0.049-0.186,0.072  c0.773,0.453,1.64,0.555,2.522,0.562C23.786,36.015,23.936,35.918,23.803,35.917z"></path>	<path d="M24.084,35.909c-0.504,0.255-0.995,0.536-1.529,0.723c-0.118,0.041-0.085,0.174,0.035,0.132  c0.553-0.192,1.06-0.479,1.581-0.741C24.292,35.961,24.183,35.859,24.084,35.909z"></path>	<path d="M24.34,36.392c-0.627,0.433-1.321,0.704-2.056,0.895c-0.12,0.03-0.092,0.135,0.028,0.104  c0.768-0.198,1.497-0.483,2.152-0.936C24.576,36.379,24.405,36.347,24.34,36.392z"></path>	<path d="M25.052,36.675c-0.535,0.521-1.167,0.897-1.812,1.266c-0.117,0.067,0.054,0.117,0.127,0.075  c0.658-0.376,1.301-0.764,1.847-1.295C25.302,36.636,25.107,36.621,25.052,36.675z"></path>	<path d="M25.696,37.054c-0.546,0.445-1.151,0.802-1.738,1.189c-0.088,0.058,0.113,0.048,0.156,0.019  c0.586-0.387,1.192-0.743,1.738-1.188C25.937,37.005,25.737,37.021,25.696,37.054z"></path>	<path d="M26.149,37.127c-0.442,0.438-0.936,0.912-1.516,1.161c-0.126,0.054-0.014,0.155,0.086,0.112  c0.612-0.263,1.127-0.755,1.595-1.218C26.402,37.096,26.209,37.067,26.149,37.127z"></path>	<path d="M26.863,37.364c0.076-0.1-0.113-0.122-0.165-0.053c-0.164,0.215-0.347,0.417-0.534,0.613  c-0.106,0.111-0.215,0.22-0.331,0.32c-0.046,0.04-0.094,0.077-0.144,0.112c-0.005,0.003-0.004,0.004-0.008,0.007  c0.004-0.009,0.009-0.017,0.011-0.028c0.016-0.097-0.188-0.068-0.201,0.017c-0.055,0.34,0.371,0.063,0.472-0.022  C26.295,38.049,26.6,37.711,26.863,37.364z"></path>	<path d="M27.42,37.881c0.213-0.213,0.427-0.427,0.64-0.64c0.046-0.046-0.146-0.024-0.181,0.011  c-0.213,0.214-0.427,0.427-0.64,0.641C27.193,37.938,27.384,37.917,27.42,37.881z"></path>	<path d="M31.252,37.248c0.275-0.073,0.544-0.179,0.805-0.334c0.116-0.069-0.057-0.107-0.125-0.067  c-0.187,0.111-0.379,0.193-0.575,0.257c0.03-0.043,0.062-0.083,0.091-0.127c0.054-0.081-0.147-0.067-0.187-0.01  c-0.047,0.07-0.098,0.137-0.146,0.204c-0.211,0.05-0.427,0.079-0.645,0.094c0.077-0.131,0.155-0.262,0.245-0.385  c0.05-0.068-0.149-0.047-0.184,0.001c-0.091,0.125-0.171,0.259-0.25,0.394c-0.066,0.002-0.133,0.004-0.2,0.004  c0.06-0.071,0.12-0.143,0.176-0.217c0.049-0.063-0.148-0.041-0.183,0.004c-0.055,0.071-0.112,0.142-0.171,0.211  c-0.112-0.003-0.226-0.007-0.338-0.013c0.07-0.053,0.14-0.104,0.209-0.158c0.106-0.084-0.056-0.143-0.13-0.084  c-0.099,0.079-0.202,0.153-0.303,0.229c-0.09-0.005-0.18-0.012-0.27-0.018c0.056-0.051,0.115-0.1,0.169-0.152  c0.083-0.082-0.113-0.079-0.16-0.033c-0.062,0.061-0.129,0.114-0.193,0.173c-0.234-0.016-0.467-0.029-0.696-0.033  c-0.08-0.002-0.21,0.118-0.076,0.12c0.213,0.004,0.428,0.015,0.643,0.027c-0.234,0.204-0.475,0.402-0.708,0.606  c-0.079,0.069-0.236,0.167-0.271,0.273c-0.037,0.108,0.231-0.01,0.253-0.022c0.054-0.032,0.044-0.055,0.012-0.067  c0.02-0.018,0.038-0.037,0.058-0.055c0.122-0.111,0.248-0.218,0.374-0.325c0.156-0.133,0.314-0.265,0.47-0.399  c0.083,0.006,0.166,0.011,0.249,0.016c-0.133,0.099-0.266,0.198-0.394,0.305c-0.105,0.088-0.346,0.265-0.29,0.432  c0.029,0.086,0.227,0.031,0.199-0.054c-0.049-0.145,0.314-0.371,0.403-0.44c0.101-0.078,0.204-0.153,0.306-0.229  c0.13,0.007,0.259,0.012,0.389,0.015c-0.207,0.236-0.428,0.462-0.649,0.684c-0.053,0.053,0.144,0.036,0.183-0.003  c0.219-0.221,0.438-0.444,0.644-0.679c0.077,0,0.153-0.001,0.229-0.003c-0.123,0.21-0.249,0.416-0.416,0.592  c-0.052,0.055,0.084,0.05,0.104,0.044c0.358-0.102,0.631-0.321,0.89-0.58c0.08-0.08-0.115-0.068-0.158-0.026  c-0.167,0.168-0.342,0.329-0.55,0.436c0.118-0.148,0.222-0.308,0.318-0.472c0.208-0.013,0.415-0.038,0.619-0.078  c-0.313,0.418-0.668,0.801-1.102,1.1c-0.111,0.077,0.058,0.115,0.125,0.068C30.524,38.14,30.911,37.713,31.252,37.248z"></path>	<path d="M31.165,37.447c-0.203,0.31-0.374,0.638-0.632,0.905c-0.04,0.041,0.147,0.016,0.179-0.017  c0.265-0.274,0.441-0.608,0.648-0.925C31.373,37.393,31.196,37.399,31.165,37.447z"></path>	<path d="M32.009,37.604c-0.202,0.154-0.634,0.495-0.382,0.775c0.038,0.042,0.225-0.028,0.186-0.071  c-0.221-0.246,0.178-0.557,0.35-0.688C32.247,37.556,32.048,37.574,32.009,37.604z"></path>	<path d="M32.902,37.444c-0.194,0.377-0.446,0.721-0.641,1.098c-0.022,0.043,0.168,0.025,0.197-0.03  c0.194-0.377,0.446-0.721,0.641-1.098C33.122,37.371,32.931,37.389,32.902,37.444z"></path>	<path d="M35.18,37.704c0.217-0.121,0.207-0.354,0.207-0.576c0-0.026-0.199,0-0.199,0.054c0,0.179,0.023,0.421-0.158,0.521  c-0.033,0.019-0.027,0.038,0.01,0.039C35.086,37.742,35.138,37.728,35.18,37.704z"></path>	<path d="M34.766,40.584c0.049,0.001,0.102-0.011,0.141-0.038c0.031-0.021,0.027-0.049-0.014-0.05  c-0.156-0.007-0.297-0.066-0.435-0.134c0.004-0.035,0.009-0.069,0.015-0.104c0.018-0.101-0.186-0.074-0.202,0.015  c-0.004,0.021-0.006,0.042-0.009,0.063c-0.05,0.02-0.092,0.048-0.075,0.057c0.021,0.011,0.042,0.021,0.063,0.03  c-0.041,0.373,0.013,0.753,0.214,1.076c0.047,0.076,0.237,0.001,0.182-0.088c-0.169-0.271-0.221-0.588-0.202-0.901  C34.547,40.549,34.653,40.579,34.766,40.584z"></path>	<path d="M30.704,45.623c-0.047-0.014-0.224,0.061-0.163,0.078c0.714,0.206,1.128-0.511,1.369-1.063  c0.016-0.035-0.174-0.018-0.196,0.034C31.542,45.063,31.243,45.777,30.704,45.623z"></path>	<path d="M24.603,46.644c0.648-0.132,1.163-0.593,1.62-1.045c0.088-0.087-0.104-0.117-0.166-0.057  c-0.42,0.415-0.894,0.847-1.49,0.968C24.442,46.535,24.48,46.669,24.603,46.644z"></path>	<path d="M24.978,45.803c-0.267,0.173-0.562,0.266-0.867,0.343c-0.123,0.032-0.087,0.161,0.035,0.13  c0.341-0.086,0.666-0.195,0.962-0.388C25.221,45.814,25.055,45.752,24.978,45.803z"></path>	<path d="M22.888,46.441c0.365-0.185,0.701-0.407,1.028-0.652c0.108-0.08-0.058-0.122-0.126-0.071  c-0.314,0.234-0.635,0.451-0.984,0.628C22.684,46.408,22.795,46.489,22.888,46.441z"></path>	<path d="M23.132,45.733c-0.213,0.207-0.47,0.345-0.757,0.422c-0.121,0.031-0.09,0.144,0.03,0.111  c0.335-0.089,0.64-0.25,0.889-0.492C23.38,45.691,23.184,45.682,23.132,45.733z"></path>	<path d="M20.918,45.908c-0.116,0.03-0.101,0.085,0.015,0.056c0.337-0.085,0.669-0.188,1.006-0.274  c0.116-0.029,0.1-0.085-0.015-0.056C21.588,45.72,21.256,45.823,20.918,45.908z"></path>	<path d="M19.973,46.086c0.152,0,0.305,0,0.458,0c0.076,0,0.211-0.115,0.077-0.115c-0.153,0-0.305,0-0.458,0  C19.974,45.971,19.838,46.086,19.973,46.086z"></path>	<path d="M9.909,35.189c-0.831,0.394-1.511,1.052-2.378,1.372c-0.024,0.009-0.069,0.039-0.059,0.071  c0.159,0.505,0.757,1.069,1.411,1.364c0.191,0.223,0.438,0.404,0.725,0.535c0.118,0.053,0.482-0.118,0.316-0.192  c-0.092-0.042-0.178-0.091-0.261-0.143c0.226,0.009,0.44-0.029,0.626-0.136c0.154-0.088,0.25-0.216,0.312-0.36  c0.11,0.348,0.221,0.693,0.346,1.035c0.029,0.079,0.227,0.021,0.199-0.053c-0.168-0.457-0.31-0.923-0.458-1.387  c0.01-0.24-0.03-0.491-0.081-0.704c-0.066-0.276-0.265-1.039-0.598-1.142c-0.068-0.021-0.234,0.079-0.12,0.114  c0.066,0.021,0.127,0.076,0.182,0.153c-0.097-0.004-0.258,0.026-0.304,0.071c-0.408,0.394-0.917,0.671-1.399,0.96  c-0.053,0.032-0.072,0.056-0.072,0.074c-0.025-0.026-0.049-0.053-0.068-0.089c-0.011-0.021,0.005-0.08,0.021-0.111  c0.051-0.014,0.099-0.034,0.145-0.061c0.07,0.027,0.162,0.022,0.227-0.04c0.279-0.27,0.62-0.441,0.963-0.613  c0.242-0.121,0.026-0.359-0.182-0.255c-0.084,0.042-0.168,0.085-0.251,0.128c0.271-0.186,0.546-0.365,0.84-0.505  C10.114,35.22,10,35.146,9.909,35.189z M10.116,35.788c0.106,0.18,0.188,0.437,0.248,0.664c-0.067-0.011-0.168,0.034-0.148,0.089  c0.099,0.27,0.188,0.541,0.274,0.813c-0.014,0.162-0.055,0.319-0.136,0.465c-0.18,0.327-0.602,0.282-0.96,0.17  c-0.298-0.274-0.485-0.637-0.519-1.072c0.301,0.094,0.597,0.203,0.902,0.282c0.017,0.005,0.047-0.001,0.077-0.011c0,0,0,0,0,0  c0.051,0.026,0.208-0.056,0.188-0.067c-0.165-0.085-0.275-0.193-0.36-0.358c-0.024-0.048-0.213,0.024-0.199,0.053  c0.041,0.08,0.089,0.146,0.144,0.204c-0.293-0.092-0.582-0.197-0.879-0.275c-0.001,0-0.003,0-0.004,0  C9.224,36.459,9.711,36.174,10.116,35.788z M8.506,36.858c-0.021,0.022-0.038,0.047-0.037,0.075c0,0.001,0,0.002,0,0.002  c-0.055-0.019-0.106-0.044-0.149-0.082C8.36,36.87,8.438,36.87,8.506,36.858z M8.45,37.15c0.014,0.001,0.028-0.004,0.042-0.004  c0.023,0.153,0.066,0.298,0.126,0.433c-0.226-0.171-0.509-0.404-0.699-0.603c0.051,0.043,0.111,0.079,0.144,0.096  C8.182,37.132,8.318,37.148,8.45,37.15z M8.351,36.323c-0.045,0.044-0.061,0.086-0.06,0.123c-0.042,0.01-0.079,0.026-0.116,0.048  c-0.018,0.005-0.036,0.01-0.054,0.016c-0.059,0.019-0.12,0.039-0.17,0.074C7.857,36.65,7.833,36.73,7.83,36.843  c-0.001,0.019,0.008,0.039,0.021,0.06c-0.13-0.15-0.187-0.271-0.085-0.309c0.227-0.083,0.439-0.196,0.646-0.321  C8.392,36.29,8.37,36.305,8.351,36.323z"></path>	<path d="M11.142,40.974c-0.217-0.054-0.433-0.105-0.647-0.168c-0.205-0.06,0.314-0.496,0.368-0.547  c0.044-0.042-0.145-0.021-0.181,0.013c-0.189,0.178-0.364,0.315-0.465,0.56c-0.005,0.014,0.006,0.02,0.017,0.022  c0.604,0.191,1.24,0.271,1.817,0.544c0.045,0.021,0.168,0,0.191-0.052c0.176-0.396,0.178-0.802,0.001-1.198  c-0.023-0.052-0.216,0.015-0.199,0.053c0.156,0.352,0.172,0.711,0.045,1.066C11.784,41.139,11.465,41.052,11.142,40.974z"></path>	<path d="M18.272,40.537c-0.102,0.209-0.173,0.431-0.274,0.64c-0.042,0.088,0.157,0.065,0.186,0.006  c0.102-0.209,0.173-0.432,0.274-0.641C18.5,40.455,18.301,40.478,18.272,40.537z"></path>	<path d="M18.533,41.763c-0.178-0.092-0.247-0.205-0.25-0.407c-0.002-0.104-0.203-0.074-0.202,0.015  c0.004,0.24,0.083,0.396,0.298,0.507C18.457,41.917,18.631,41.813,18.533,41.763z"></path>	<path d="M3.174,33.697c-0.093,0.259-0.273,0.473-0.366,0.731c-0.011,0.031,0.178,0.012,0.195-0.036  c0.093-0.26,0.273-0.473,0.366-0.732C3.38,33.63,3.191,33.649,3.174,33.697z"></path>	<path d="M3.08,34.51c0,0.214,0,0.427,0,0.641c0,0.104,0.201,0.073,0.201-0.016c0-0.213,0-0.427,0-0.641  C3.281,34.391,3.08,34.421,3.08,34.51z"></path>	<path d="M4.286,35.661c-0.097,0.113-0.108,0.26-0.108,0.403c0,0.105,0.201,0.076,0.201-0.015c0-0.11-0.001-0.239,0.074-0.328  C4.535,35.625,4.345,35.592,4.286,35.661z"></path>	<path d="M4.817,36.612c0,0.123,0,0.246,0,0.369c0,0.063-0.025,0.186,0.024,0.232c0.072,0.067,0.148,0.118,0.248,0.13  c0.064,0.007,0.123-0.018,0.186-0.021c0.114-0.007,0.151-0.159,0.016-0.151C5.25,37.174,5.21,37.184,5.17,37.192  c-0.056,0.013-0.109-0.034-0.151-0.073c0-0.173,0-0.347,0-0.52C5.019,36.492,4.817,36.52,4.817,36.612z"></path>	<path d="M5.936,37.749c0.051,0.027,0.235-0.049,0.16-0.091c-0.164-0.09-0.241-0.249-0.164-0.426  c0.023-0.054-0.172-0.031-0.198,0.028C5.644,37.469,5.75,37.646,5.936,37.749z"></path>	<path d="M7.325,38.494c0.007-0.005-0.019-0.066-0.021-0.085c-0.008-0.072-0.208-0.026-0.199,0.053  c0.022,0.187,0.22,0.193,0.345,0.098C7.557,38.478,7.39,38.445,7.325,38.494z"></path>	<path d="M8.202,38.718c0,0.092,0,0.183,0,0.274c0,0.104,0.201,0.072,0.201-0.016c0-0.092,0-0.183,0-0.274  C8.403,38.599,8.202,38.631,8.202,38.718z"></path>	<path d="M9.501,40.35c0-0.122,0-0.243,0-0.365c0-0.108-0.202-0.08-0.202,0.013c0,0.122,0,0.244,0,0.366  C9.299,40.471,9.501,40.443,9.501,40.35z"></path>	<path d="M9.5,41.303c0.141,0.099,0.334,0.105,0.499,0.106c0.062,0.001,0.216-0.092,0.083-0.093c-0.145-0.001-0.294-0.015-0.416-0.1  c-0.137-0.096-0.164-0.275-0.167-0.43c0-0.046-0.2-0.012-0.199,0.054C9.304,41.021,9.346,41.195,9.5,41.303z"></path>	<path d="M10.588,41.399c0.078,0.077,0.126,0.104,0.236,0.105c0.066,0,0.214-0.101,0.081-0.101c-0.062-0.001-0.088-0.036-0.13-0.078  C10.729,41.281,10.542,41.354,10.588,41.399z"></path>	<path d="M11.586,41.616c0.112,0,0.154-0.141,0.019-0.141C11.493,41.476,11.451,41.616,11.586,41.616z"></path>	<path d="M12.026,41.962c-0.042,0-0.227,0.082-0.128,0.082C11.939,42.044,12.124,41.962,12.026,41.962z"></path>	<path d="M12.198,42.337c0.079,0,0.21-0.119,0.076-0.119C12.195,42.218,12.064,42.337,12.198,42.337z"></path>	<path d="M14.075,42.362c0-0.244,0.011-0.476,0.086-0.711c0.036-0.113-0.162-0.119-0.191-0.028  c-0.079,0.249-0.097,0.492-0.097,0.752C13.873,42.485,14.075,42.459,14.075,42.362z"></path>	<path d="M14.695,42.573c0.034-0.029,0.019-0.069-0.021-0.08c-0.049-0.013-0.104,0.005-0.141,0.037c0-0.001-0.001-0.003-0.002-0.005  c-0.01-0.077-0.21-0.029-0.199,0.053C14.359,42.775,14.611,42.647,14.695,42.573z"></path>	<path d="M15.08,42.8c0-0.03,0-0.062,0-0.092c0-0.053-0.199-0.018-0.199,0.054c0,0.03,0,0.061,0,0.091  C14.881,42.906,15.08,42.871,15.08,42.8z"></path>	<path d="M15.813,42.911c0-0.062,0-0.122,0-0.183c0-0.107-0.202-0.08-0.202,0.013c0,0.062,0,0.122,0,0.184  C15.611,43.032,15.813,43.004,15.813,42.911z"></path>	<path d="M16.253,43.134c0.089-0.09-0.101-0.134-0.168-0.066c-0.053,0.053-0.11,0.105-0.123,0.182  c-0.015,0.09,0.115,0.109,0.173,0.111c0.049,0.003,0.107-0.012,0.129-0.063c0.019-0.043-0.017-0.089-0.063-0.091  c-0.011-0.001-0.017,0-0.023,0.001c0.003-0.002,0.006-0.003,0.01-0.007C16.209,43.177,16.232,43.155,16.253,43.134z"></path>	<path d="M16.527,43.02c0,0.127,0.015,0.217,0.154,0.236c0.086,0.011,0.208-0.108,0.074-0.127c-0.035-0.005-0.028-0.113-0.028-0.13  C16.726,42.906,16.526,42.944,16.527,43.02z"></path>	<path d="M17.276,43.213c-0.112,0-0.154,0.142-0.019,0.142C17.37,43.354,17.412,43.213,17.276,43.213z"></path>	<path d="M17.716,43.386c0,0.101,0.028,0.142,0.099,0.213c0.055,0.055,0.243-0.021,0.184-0.081c-0.05-0.051-0.083-0.079-0.083-0.153  C17.915,43.272,17.715,43.313,17.716,43.386z"></path>	<path d="M18.415,43.512c0.059,0,0.216-0.09,0.083-0.09C18.439,43.422,18.282,43.512,18.415,43.512z"></path>	<path d="M39.504,51.78c0.053-0.211,0.105-0.423,0.158-0.634c0.002,0.01,0.005,0.021,0.008,0.03c0.02,0.072,0.199,0.016,0.199-0.053  c0-0.269,0-0.537,0-0.805c0-0.001,0-0.002,0-0.002c0.001-0.004,0-0.006,0-0.009c0-0.095,0-0.188,0-0.282  c0-0.061-0.199-0.023-0.199,0.053c0,0.084,0,0.167,0,0.251c-0.009-0.012-0.016-0.022-0.025-0.034  c-0.147-0.557-0.274-1.117-0.402-1.678c-0.067-0.298-0.132-0.595-0.197-0.893c0.076-0.003,0.152-0.005,0.226-0.006  c0.044,0,0.118-0.019,0.14-0.061c0.34-0.65,0.108-1.797-0.722-1.534c-0.063-0.285-0.126-0.571-0.192-0.855  c-0.016-0.068-0.215-0.017-0.198,0.053c0.069,0.295,0.134,0.59,0.2,0.885c-0.009,0.007-0.014,0.012-0.014,0.017  c-0.026,0.011-0.051,0.022-0.065,0.039c-0.179,0.187-0.34,0.4-0.454,0.627c-0.248,0.127-0.464,0.304-0.62,0.539  c-0.071-0.534-0.117-1.07-0.129-1.61c-0.001-0.035-0.2-0.004-0.198,0.053c0.043,2.061,0.597,4.052,1.098,6.038  c0.012,0.048,0.191-0.007,0.198-0.054c0.065-0.462,0.089-0.905,0.092-1.372c0-0.033-0.198-0.005-0.198,0.054  c-0.002,0.245,0.161,1.531-0.084,0.564c-0.136-0.535-0.268-1.07-0.394-1.608c-0.149-0.642-0.276-1.288-0.368-1.938  c0.143,0.067,0.291,0.113,0.446,0.142c0.026,0.174,0.097,0.348,0.223,0.517c0.089,0.118,0.472-0.022,0.368-0.162  c-0.076-0.102-0.129-0.205-0.16-0.31c0.199,0.007,0.4,0,0.6-0.008c0.224,1.015,0.457,2.026,0.725,3.03  c-0.086,0.346-0.172,0.691-0.259,1.037C39.282,51.886,39.484,51.857,39.504,51.78z M39.209,47.632  c0.023-0.026,0.04-0.057,0.059-0.086c-0.01,0.031-0.02,0.06-0.029,0.085C39.229,47.632,39.219,47.632,39.209,47.632z M39.33,47.175  c-0.094-0.03-0.211,0.003-0.275,0.076c-0.035,0.039-0.061,0.084-0.086,0.129c-0.076-0.345-0.154-0.689-0.23-1.034  c0.001-0.001,0.002-0.002,0.004-0.003c0.072-0.077,0.035-0.12-0.035-0.138c-0.001,0-0.001-0.001-0.001-0.002  C39.247,45.991,39.373,46.645,39.33,47.175z M37.665,47.231c0.067-0.077,0.149-0.142,0.235-0.2c-0.07,0.177-0.111,0.36-0.104,0.544  C37.627,47.526,37.494,47.429,37.665,47.231z M38.21,47.63c-0.052-0.283,0.031-0.567,0.182-0.828  c0.005-0.001,0.011-0.004,0.016-0.005c0.093-0.026,0.097-0.076,0.036-0.08c0.039-0.062,0.083-0.122,0.129-0.18  c0.082,0.367,0.164,0.734,0.244,1.103C38.615,47.643,38.412,47.642,38.21,47.63z"></path>	<path d="M42.247,50.301c0.007-0.309,0.083-0.607,0.091-0.915c0.002-0.037-0.133-0.021-0.181,0.022  c-0.001-0.099-0.001-0.198-0.001-0.297c0-0.047-0.199-0.014-0.199,0.054c0,0.398,0.002,0.799,0.092,1.188  C42.062,50.412,42.246,50.359,42.247,50.301z"></path>	<path d="M42.706,48.738c0-0.021,0-0.043,0-0.064c0-0.05-0.046-0.069-0.093-0.066c0-0.503,0-1.006,0-1.508  c0-0.06-0.199-0.022-0.199,0.053c0,1.402,0,2.806,0,4.208c0,0.059,0.199,0.021,0.199-0.054c0-0.486,0-0.973,0-1.46  c0.042-0.011,0.083-0.039,0.093-0.075c0.085-0.335,0.177-0.659,0.183-1.007C42.891,48.678,42.755,48.684,42.706,48.738z"></path>	<path d="M43.621,48.372c0-0.418,0-0.836,0-1.254c0-0.104-0.202-0.073-0.202,0.016c0,0.229,0,0.457,0,0.687  c-0.047-0.011-0.182,0.017-0.182,0.063c0,0.519,0,1.037,0,1.556c0,0.035,0.134,0.001,0.182-0.03c0,0.248,0,0.495,0,0.743  c0,0.104,0.202,0.073,0.202-0.016c0-0.403,0-0.807,0-1.209c0.052-0.175,0.084-0.354,0.09-0.548  C43.711,48.365,43.667,48.364,43.621,48.372z"></path>	<path d="M43.986,48.284c0-0.357,0-0.716,0-1.074c0-0.106-0.201-0.077-0.201,0.015c0,0.549,0,1.098,0,1.646  c0,0.101,0.166,0.077,0.195,0.005c0.074-0.18,0.109-0.369,0.184-0.549C44.205,48.229,44.041,48.221,43.986,48.284z"></path>	<path d="M33.451,51.898c-0.036,0.139-0.163,0.64-0.37,0.583c-0.049-0.014-0.227,0.064-0.162,0.082  c0.435,0.119,0.641-0.363,0.728-0.697C33.662,51.814,33.465,51.845,33.451,51.898z"></path>	<path d="M32.451,52.705c-0.04,0.043-0.077,0.127-0.143,0.13c-0.045,0.002-0.103,0.014-0.131,0.053  c-0.027,0.037,0.023,0.056,0.053,0.055c0.091-0.004,0.177-0.017,0.254-0.067c0.064-0.043,0.101-0.113,0.152-0.169  c0.033-0.036-0.028-0.055-0.053-0.055C32.534,52.651,32.484,52.669,32.451,52.705z"></path>	<path d="M29.983,52.712c-0.045,0.045,0.146,0.022,0.181-0.013c0.091-0.092,0.183-0.183,0.274-0.274  c0.044-0.045-0.146-0.022-0.181,0.013C30.166,52.529,30.075,52.62,29.983,52.712z"></path>	<path d="M27.246,52.218c-0.106,0.106-0.206,0.225-0.365,0.23c-0.114,0.004-0.152,0.153-0.017,0.148  c0.238-0.008,0.389-0.158,0.549-0.318C27.501,52.19,27.31,52.153,27.246,52.218z"></path>	<path d="M26.058,52.404c-0.112,0.104-0.253,0.171-0.366,0.274c-0.09,0.084,0.104,0.109,0.165,0.054  c0.112-0.104,0.253-0.171,0.366-0.274C26.313,52.374,26.118,52.349,26.058,52.404z"></path>	<path d="M23.461,52.668c-0.047,0-0.1,0.014-0.141,0.037c-0.032,0.019-0.027,0.038,0.01,0.038c0.152,0,0.305,0,0.458,0  c0.047,0,0.1-0.014,0.141-0.037c0.032-0.019,0.027-0.038-0.01-0.038C23.766,52.668,23.613,52.668,23.461,52.668z"></path>	<path d="M22.517,48.98c-0.522,0-1.039-0.011-1.555-0.092c-0.09-0.015-0.206,0.112-0.072,0.133c0.517,0.081,1.033,0.092,1.555,0.092  C22.533,49.113,22.651,48.98,22.517,48.98z"></path>	<path d="M9.683,46.276c-0.027-0.079-0.225-0.022-0.199,0.053c0.362,1.062,0.892,2.17,2.052,2.502  c0.072,0.021,0.235-0.085,0.119-0.118C10.534,48.392,10.03,47.296,9.683,46.276z"></path>	<path d="M11.859,49.186c-0.938-0.291-1.941-0.773-2.359-1.721c-0.026-0.061-0.221,0.004-0.199,0.054  c0.425,0.962,1.442,1.458,2.397,1.755C11.751,49.29,11.931,49.208,11.859,49.186z"></path>	<path d="M15.023,50.471c-1.145,0.137-2.131-0.264-3.151-0.727c-0.053-0.024-0.209,0.059-0.187,0.068  c1.051,0.477,2.079,0.879,3.252,0.737C14.988,50.544,15.153,50.455,15.023,50.471z"></path>	<path d="M21.875,52.357c-2.25-0.095-4.542-0.21-6.453-1.54c-0.074-0.051-0.247,0.051-0.153,0.117  c1.936,1.346,4.253,1.474,6.537,1.57C21.904,52.509,22.009,52.363,21.875,52.357z"></path>	<path d="M45.354,18.604c-0.176,0.191-0.302,0.387-0.357,0.629c-0.043,0.017-0.082,0.042-0.107,0.079  c-0.052,0.078,0.045,0.121,0.109,0.121c0.022,0,0.045,0,0.067,0c0.729,0.422,1.534,0.681,2.292,1.049  c0.076,0.038,0.35-0.011,0.383-0.103c0.5-1.374-0.79-1.853-1.938-1.776c-0.037,0.002-0.109,0.027-0.17,0.056  c0.026-0.032,0.053-0.063,0.078-0.09C45.789,18.484,45.414,18.537,45.354,18.604z M45.628,18.752  c1.017-0.067,2.022,0.394,1.79,1.457c-0.361-0.162-0.729-0.312-1.093-0.467c-0.24-0.102-0.476-0.215-0.706-0.337  c-0.002-0.001-0.004-0.002-0.006-0.004c0.041-0.017,0.08-0.042,0.104-0.078c0.052-0.078-0.044-0.121-0.108-0.121  c-0.061,0-0.121,0-0.181,0c-0.046-0.143,0.03-0.307,0.133-0.451C45.576,18.753,45.598,18.754,45.628,18.752z"></path>	<path d="M46.557,19.63c0.025,0.003,0.055,0.027,0.073,0.044c0.116,0.111,0.493-0.045,0.366-0.166  c-0.084-0.08-0.178-0.125-0.293-0.138c-0.091-0.01-0.215,0.033-0.262,0.116C46.394,19.573,46.484,19.622,46.557,19.63z"></path>	<path d="M53.318,24.434c-0.385-0.002-0.641-0.513-0.775-0.803c-0.156-0.337-0.262-0.707-0.317-1.074  c-0.013-0.086-0.413,0.001-0.397,0.107c0.135,0.884,0.71,2.45,1.869,1.774c0.553-0.321,0.633-0.911,0.324-1.449  c-0.303-0.526-0.888-0.646-1.424-0.428c-0.262,0.106-0.014,0.16,0.139,0.098c0.459-0.187,0.861,0.309,1.005,0.685  c0.069,0.179,0.085,0.378,0.053,0.566C53.758,24.115,53.557,24.435,53.318,24.434z"></path>	<path d="M52.684,28.777c-0.057-0.09-0.423,0.066-0.398,0.106c0.396,0.648,1.072,1,1.749,1.293c0.104,0.046,0.402-0.119,0.376-0.131  C53.744,29.758,53.073,29.416,52.684,28.777z"></path>	<path d="M54.388,30.313c-0.077,0.544-0.011,1.076,0.185,1.589c0.063,0.164,0.457,0.049,0.398-0.106  c-0.188-0.492-0.258-0.997-0.183-1.521C54.814,30.091,54.41,30.153,54.388,30.313z"></path>	<path d="M55.42,35.876c0.586-0.035,1.455-0.154,1.504-0.889c0.045-0.7-0.598-1.39-0.855-2.002  c-0.049-0.114-0.438,0.013-0.398,0.106c0.27,0.641,1.071,1.694,0.748,2.244c-0.191-0.366-0.436-0.702-0.625-1.07  c-0.045-0.089-0.424,0.057-0.397,0.107c0.194,0.377,0.446,0.72,0.64,1.098c0.029,0.057,0.194,0.018,0.303-0.031  c-0.138,0.137-0.375,0.228-0.752,0.25C55.465,35.697,55.155,35.892,55.42,35.876z"></path>	<path d="M54.135,34.341c-0.098-0.068-0.444,0.091-0.373,0.14c0.279,0.194,0.437,0.465,0.444,0.807  c0.002,0.083,0.401,0.017,0.397-0.106C54.596,34.827,54.422,34.54,54.135,34.341z"></path>	<path d="M10.605,26.033c-0.019-0.169-0.418-0.073-0.398,0.106c0.136,1.217,1.238,1.805,2.148,2.435  c0.133,0.093,0.489-0.094,0.309-0.219C11.791,27.751,10.735,27.202,10.605,26.033z"></path>	<path d="M14.722,29.601c-0.067-0.094-0.424,0.069-0.397,0.106c0.592,0.831,1.538,1.191,2.504,1.394  c0.09,0.02,0.434-0.127,0.328-0.149C16.219,30.755,15.297,30.407,14.722,29.601z"></path>	<path d="M17.946,31.956c-0.094-0.001-0.2,0.027-0.281,0.075c-0.064,0.038-0.054,0.077,0.021,0.078c0.058,0,0.085,0.041,0.125,0.081  c0.07,0.068,0.429-0.08,0.375-0.133C18.108,31.98,18.057,31.956,17.946,31.956z"></path>	<path d="M6.489,38.107c-0.063-0.115-0.443,0.024-0.397,0.107c0.537,0.984,1.651,1.476,2.726,1.595  c0.102,0.012,0.463-0.163,0.251-0.187C8.054,39.511,6.996,39.037,6.489,38.107z"></path>	<path d="M5.754,30.257c0.034-0.056-0.143-0.031-0.156-0.028c-0.242,0.056-0.5,0.141-0.664,0.339  c-0.162,0.198-0.211,0.445-0.215,0.695c0,0.049,0.396-0.001,0.397-0.106c0.004-0.263,0.084-0.725,0.402-0.797  C5.586,30.345,5.714,30.324,5.754,30.257z"></path>	<path d="M23.686,44.87c-1.054,0.009-2.275,0.19-3.156-0.515c-0.145-0.116-0.488,0.089-0.305,0.235  c0.96,0.769,2.281,0.592,3.429,0.583C23.886,45.172,23.956,44.868,23.686,44.87z"></path>	<path d="M23.147,20.054c0.182-0.059,0.366-0.106,0.551-0.148c0.47,0.247,0.979,0.389,1.519,0.399  c0.044,0.001,0.103-0.034,0.109-0.081c0.071-0.506-0.188-0.93-0.573-1.239c-0.069-0.056-0.243,0.043-0.153,0.115  c0.333,0.267,0.556,0.624,0.53,1.052c-0.323-0.019-0.633-0.09-0.939-0.202c-0.076-0.028-0.149-0.062-0.222-0.097  c0.208-0.034,0.417-0.058,0.629-0.061c0.144-0.002,0.425-0.223,0.157-0.219c-0.361,0.005-0.715,0.054-1.065,0.13  c-0.007-0.004-0.015-0.008-0.022-0.012c-0.07-0.041,0.115-0.155,0.206-0.209c0.179-0.022,0.354-0.076,0.535-0.081  c0.086-0.003,0.203-0.035,0.266-0.097c0.066-0.065-0.058-0.073-0.096-0.072c-0.217,0.006-0.424,0.085-0.641,0.092  c-0.085,0.002-0.203,0.035-0.266,0.097c-0.01,0.01-0.015,0.019-0.017,0.026c-0.093,0.054-0.18,0.101-0.251,0.206  c-0.019,0.028-0.028,0.065,0.006,0.087c0.012,0.008,0.023,0.014,0.035,0.021c-0.117,0.031-0.234,0.063-0.35,0.101  C22.864,19.937,22.911,20.129,23.147,20.054z"></path>	<path d="M38.473,26.049c0.016,0.771,0.305,1.468,0.928,1.94c0.051,0.038,0.166,0.018,0.257-0.021  c0.007,0.011,0.013,0.022,0.021,0.033c0.102,0.14,0.481-0.011,0.365-0.172c-0.271-0.375-0.437-0.797-0.532-1.248  c-0.038-0.176-0.437-0.073-0.397,0.106c0.053,0.251,0.131,0.493,0.232,0.726c-0.314-0.416-0.465-0.924-0.475-1.473  C38.868,25.843,38.471,25.913,38.473,26.049z"></path>	<path d="M39.682,26.015c-0.086-0.083-0.455,0.063-0.373,0.144c0.431,0.422,0.918,0.731,1.488,0.929  c0.102,0.034,0.463-0.123,0.322-0.171C40.566,26.726,40.098,26.423,39.682,26.015z"></path>	<path d="M41.578,28.474c-0.09-0.028-0.199,0.009-0.279,0.046c-0.106,0.049-0.234,0.038-0.349,0.038  c-0.085,0-0.205,0.034-0.265,0.099c-0.064,0.069,0.055,0.082,0.098,0.082c0.264,0,0.508-0.034,0.75-0.146  C41.574,28.574,41.664,28.5,41.578,28.474z"></path>	<path d="M49.756,33.809c-0.01-0.127-0.086-0.234-0.092-0.366s-0.404-0.05-0.397,0.106c0.005,0.133,0.081,0.239,0.092,0.366  C49.369,34.05,49.768,33.964,49.756,33.809z"></path>	<path d="M9.551,46.13c0.524,0.069,1.05,0.087,1.578,0.093c1.016,0.588,2.152,0.926,3.314,1.117  c1.082,0.723,2.403,0.857,3.719,0.863c1.098,0.61,2.388,0.61,3.614,0.61c0.042,0,0.227-0.082,0.128-0.082  c-1.157-0.001-2.369-0.001-3.42-0.528c0.504-0.004,1.004-0.021,1.485-0.023c0.063,0,0.215-0.097,0.082-0.096  c-0.568,0.004-1.162,0.026-1.755,0.024c-0.007-0.004-0.014-0.007-0.021-0.011c-0.022-0.013-0.065-0.004-0.105,0.011  c-1.172-0.011-2.341-0.134-3.333-0.709c0.453,0.062,0.908,0.104,1.36,0.131c0.04,0.003,0.227-0.072,0.129-0.078  c-0.563-0.034-1.131-0.092-1.694-0.184c-0.163-0.107-0.322-0.225-0.473-0.362c-0.045-0.041-0.229,0.034-0.186,0.072  c0.087,0.08,0.178,0.151,0.27,0.221c-0.981-0.189-1.937-0.493-2.807-0.976c0.027,0,0.054,0.001,0.081,0.001  c0.138,0,0.427-0.21,0.158-0.21c-0.202,0-0.403-0.002-0.604-0.006c-0.1-0.063-0.199-0.128-0.296-0.197  c-0.045-0.031-0.213,0.049-0.188,0.066c0.062,0.044,0.124,0.083,0.186,0.124c-0.326-0.011-0.65-0.033-0.975-0.076  C9.683,45.911,9.332,46.101,9.551,46.13z"></path>	<path d="M33.33,51.764c0.087,0.011,0.207-0.112,0.073-0.129c-1.671-0.207-3.346-0.326-5.006-0.622  c-1.574-0.281-3.998-0.714-4.719-2.358c-0.035-0.079-0.231-0.02-0.199,0.053c0.668,1.525,2.723,1.979,4.179,2.303  C29.525,51.426,31.437,51.529,33.33,51.764z"></path>	<path d="M26.224,49.896c0.036,0.088,0.233,0.031,0.199-0.053c-0.201-0.487-0.47-0.938-0.74-1.39  c-0.045-0.075-0.235-0.001-0.183,0.087C25.764,48.981,26.027,49.421,26.224,49.896z"></path>	<path d="M27.063,50.026c-0.096-0.288-0.201-0.567-0.366-0.823c-0.036-0.056-0.221,0.019-0.199,0.053  c0.166,0.257,0.27,0.535,0.366,0.823C26.883,50.135,27.08,50.077,27.063,50.026z"></path>	<path d="M27.45,50.193c0.105,0.192,0.229,0.454,0.44,0.547c0.058,0.026,0.24-0.059,0.159-0.095  c-0.23-0.102-0.365-0.438-0.474-0.643c-0.142-0.267-0.268-0.54-0.42-0.8c-0.039-0.066-0.229,0.001-0.199,0.053  C27.134,49.561,27.281,49.883,27.45,50.193z"></path>	<path d="M32.637,50.149c0.094-0.151,0.096-0.297,0.098-0.474c0.001-0.089-0.199-0.05-0.199,0.022c0,0.044-0.001,0.086-0.002,0.128  c-0.219-0.592-0.377-1.201-0.53-1.813c-0.019-0.075-0.218-0.023-0.199,0.054c0.179,0.712,0.359,1.424,0.641,2.104  C32.473,50.241,32.606,50.197,32.637,50.149z"></path>	<path d="M33.07,49.421c0.048,0.227,0.099,0.584,0.332,0.702c0.087,0.045,0.227-0.083,0.113-0.141  c-0.207-0.106-0.246-0.612-0.286-0.81c-0.072-0.356-0.125-0.716-0.22-1.067c-0.027-0.099-0.226-0.045-0.199,0.053  C32.922,48.573,32.981,49,33.07,49.421z"></path>	<path d="M34.563,49.764c0.023-0.04-0.14-0.028-0.188,0.02c-0.006-0.01-0.014-0.023-0.025-0.041  c-0.036-0.062-0.058-0.132-0.081-0.197c-0.065-0.188-0.106-0.385-0.147-0.578c-0.08-0.376-0.137-0.757-0.199-1.136  c-0.009-0.057-0.209-0.011-0.199,0.053c0.094,0.573,0.169,1.159,0.346,1.714C34.15,49.848,34.378,50.09,34.563,49.764z   M34.386,49.8C34.393,49.808,34.397,49.815,34.386,49.8L34.386,49.8z"></path>	<path d="M42.145,50.866c-0.055,0.091-0.115,0.179-0.172,0.268c0-0.095,0-0.189,0-0.284c0-0.01-0.008-0.015-0.02-0.019  c-0.042-1.244-0.152-2.486-0.164-3.731c0-0.051-0.199-0.017-0.198,0.053c0.007,0.773,0.054,1.545,0.099,2.317  C41.65,49.457,41.5,49.483,41.5,49.53c0,0.432,0.011,0.855,0.091,1.281c0.006,0.03,0.104,0.009,0.161-0.019  c0.008,0.218,0.016,0.437,0.02,0.654c-0.153,0.231-0.307,0.463-0.45,0.7c-0.056,0.092,0.146,0.09,0.188,0.019  c0.127-0.208,0.262-0.411,0.396-0.614c0.036-0.014,0.066-0.035,0.066-0.062c0-0.015,0-0.028,0-0.043  c0.123-0.186,0.246-0.371,0.361-0.562C42.39,50.793,42.188,50.796,42.145,50.866z M41.729,50.222c-0.003,0-0.005,0.001-0.007,0.002  c-0.014-0.181-0.021-0.362-0.022-0.545C41.711,49.859,41.721,50.04,41.729,50.222z"></path>	<path d="M40.686,51.523c-0.09,0.111-0.176,0.242-0.261,0.378c0.028-0.199,0.046-0.398,0.059-0.599  c0.046-0.005,0.097-0.028,0.11-0.056c0.082-0.156,0.183-0.293,0.19-0.474c0.003-0.074-0.136-0.06-0.183-0.01  c0-0.058,0-0.115,0-0.173c0-0.043-0.046-0.056-0.094-0.051c0.001-0.136,0.002-0.271,0.002-0.407c0-0.085-0.199-0.043-0.199,0.023  c0,0.471,0,0.942-0.043,1.411c-0.027,0.013-0.049,0.031-0.049,0.053c0,0.122,0,0.244,0,0.365c0,0.053,0.073,0.057,0.131,0.035  c-0.24,0.385-0.495,0.786-0.889,0.937c-0.133,0.051-0.008,0.075,0.068,0.046c0.652-0.249,0.924-0.984,1.336-1.494  C40.906,51.459,40.715,51.486,40.686,51.523z"></path>	<path d="M38.866,52.048c-0.374,0.384-0.653,0.838-0.928,1.295c-0.05,0.082,0.151,0.063,0.186,0.006  c0.268-0.445,0.538-0.891,0.901-1.266C39.108,51.999,38.913,51.999,38.866,52.048z"></path>	<path d="M37.693,52.211c0.053-0.664-0.936-1.537-1.492-1.867c0.005-0.068,0.008-0.137,0.009-0.21  c0.001-0.09-0.198-0.05-0.199,0.021c-0.001,0.053-0.003,0.103-0.005,0.151c-0.006,0.003-0.012,0.005-0.018,0.007  c-0.03,0.001-0.061,0.004-0.09,0.006c-0.373-1-0.517-2.063-0.603-3.129c-0.006-0.072-0.205-0.028-0.199,0.054  c0.086,1.054,0.229,2.104,0.591,3.096c-0.573,0.079-1.117,0.352-1.33,0.929c-0.045,0.123,0.35,0.072,0.397-0.054  c0.166-0.451,0.553-0.653,1.005-0.684c0.033,0.082,0.068,0.163,0.105,0.244c-0.094,0.021-0.186,0.046-0.275,0.077  c0.014-0.012,0.025-0.025,0.039-0.038c0.169-0.154-0.225-0.145-0.318-0.06c-0.15,0.138-0.281,0.302-0.387,0.479  c-0.143,0.126-0.264,0.274-0.348,0.443c-0.095-0.052-0.188-0.106-0.284-0.157c-0.074-0.039-0.149-0.074-0.226-0.106  c-0.158-0.069,0.569-0.629,0.564-0.626c0.082-0.058-0.117-0.029-0.151-0.005c-0.263,0.188-0.474,0.397-0.663,0.66  c-0.009,0.013,0.009,0.019,0.017,0.021c0.238,0.089,0.468,0.204,0.694,0.328c-0.018,0.049-0.033,0.099-0.046,0.15  c-0.072-0.068-0.14-0.146-0.201-0.236c-0.096-0.143-0.477,0.006-0.365,0.172c0.148,0.22,0.332,0.381,0.536,0.498  c0.009,0.048,0.031,0.088,0.082,0.105c0.095,0.033,0.17,0.043,0.246,0.04c0.004,0.001,0.007,0.002,0.011,0.003  c0.023,0.048,0.052,0.095,0.083,0.14c-0.108,0.111-0.217,0.224-0.328,0.332c-0.036,0.034-0.074,0.072-0.114,0.11  c-0.017-0.137-0.048-0.272-0.05-0.41c-0.002-0.095-0.202-0.058-0.2,0.021c0,0.009,0.002,0.019,0.002,0.027  c-0.03,0.004-0.059,0.014-0.075,0.03c-0.04,0.04-0.082,0.082-0.118,0.127c-0.079,0.005-0.158,0.009-0.237,0.013  c0.029-0.066,0.044-0.147,0.071-0.205c0.041-0.088-0.158-0.063-0.186-0.005c-0.006,0.014-0.01,0.028-0.016,0.042  c-0.058-0.024-0.188,0.021-0.173,0.078c0.009,0.035,0.019,0.072,0.031,0.105c-0.786,0.037-1.569,0.042-2.35,0.016  c0.207-0.056,0.37-0.231,0.498-0.42c0.051-0.075-0.149-0.056-0.185-0.004c-0.117,0.174-0.251,0.384-0.487,0.314  c-0.058-0.017-0.209,0.063-0.137,0.1c-0.472-0.021-0.942-0.058-1.413-0.104c0.008-0.012,0.018-0.022,0.025-0.033  c0.049-0.07-0.15-0.048-0.184,0.001c-0.004,0.005-0.008,0.01-0.012,0.015c-0.021-0.002-0.041-0.004-0.062-0.006  c-0.006-0.043-0.009-0.087-0.01-0.128c-0.001-0.055-0.2-0.019-0.199,0.054c0,0.016,0.001,0.034,0.002,0.052  c-0.265-0.031-0.53-0.065-0.794-0.105c0.088-0.06,0.133-0.157,0.168-0.259c0.026-0.073-0.175-0.048-0.199,0.022  c-0.021,0.06-0.042,0.123-0.086,0.17c0.006-0.006-0.08-0.038-0.102-0.049c-0.042-0.021-0.135,0.013-0.167,0.05  c-0.16-0.027-0.321-0.052-0.481-0.082c-0.101-0.019-0.45,0.142-0.324,0.166c0.694,0.131,1.388,0.228,2.082,0.3  c0.011,0.005,0.018,0.014,0.031,0.016c0.025,0.004,0.047-0.002,0.07-0.006c0.006,0.001,0.012,0.001,0.017,0.002  c-0.342,0.264-0.676,0.546-0.941,0.888c-0.049,0.063,0.148,0.041,0.183-0.004c0.259-0.335,0.586-0.609,0.921-0.867  c0.615,0.057,1.23,0.093,1.847,0.108c-0.179,0.135-0.356,0.271-0.524,0.42c-0.095,0.083-0.183,0.173-0.268,0.266  c-0.011,0.013-0.021,0.025-0.032,0.037c0.001-0.029,0-0.058-0.015-0.08c-0.031-0.046-0.212,0.034-0.199,0.054  c0.049,0.073-0.028,0.194,0.013,0.244c0.026,0.031,0.103,0.004,0.133-0.007c0.185-0.064,0.304-0.298,0.437-0.429  c0.186-0.185,0.395-0.343,0.604-0.5c0.268,0.005,0.537,0.006,0.806,0.003c-0.35,0.188-0.67,0.426-0.953,0.703  c-0.096,0.095,0.059,0.174,0.134,0.1c0.292-0.286,0.62-0.531,0.985-0.718c0.048-0.025,0.059-0.059,0.048-0.087  c0.327-0.006,0.655-0.017,0.983-0.033c-0.179,0.219-0.352,0.442-0.536,0.655c-0.162,0.188-0.454,0.55-0.734,0.462  c-0.044-0.015-0.219,0.058-0.164,0.074c0.674,0.212,1.254-0.753,1.609-1.201c0.129-0.006,0.258-0.013,0.387-0.021  c0,0.002-0.001,0.003-0.001,0.005c-0.011,0.093,0.191,0.061,0.2-0.02c0.001-0.007,0.004-0.013,0.006-0.021  c0.034-0.014,0.066-0.031,0.096-0.05c0.007,0.047,0.014,0.094,0.019,0.141c0.002,0.019,0.004,0.037,0.006,0.056  c-0.069-0.009-0.174,0.046-0.136,0.108c0.013,0.021,0.027,0.044,0.043,0.066c-0.145,0.109-0.301,0.195-0.461,0.205  c-0.067,0.005-0.212,0.114-0.079,0.105c0.225-0.015,0.433-0.103,0.626-0.229c0.021,0.009,0.043,0.014,0.068,0.011  c0.048-0.005,0.083-0.023,0.108-0.053c0.101,0.059,0.184,0.133,0.3,0.158c0.125,0.029,0.266-0.038,0.368-0.101  c0.082-0.05,0.061-0.276,0.069-0.365c0.005-0.054,0.009-0.107,0.009-0.161c0.023,0.017,0.045,0.034,0.069,0.05  c0.106,0.065,0.475-0.091,0.317-0.189c-0.087-0.054-0.159-0.115-0.22-0.181c0.198,0.009,0.4-0.007,0.599-0.042  c0.117,0.06,0.245,0.122,0.379,0.176c-0.342,0.312-0.66,0.655-1.052,0.902c-0.113,0.07-0.01,0.188,0.09,0.125  c0.424-0.266,0.763-0.634,1.136-0.965c0.217,0.069,0.436,0.1,0.625,0.031c0.049-0.019,0.094-0.037,0.137-0.058  c-0.218,0.271-0.436,0.544-0.652,0.815c-0.076,0.095,0.114,0.104,0.162,0.044c0.366-0.458,0.732-0.915,1.098-1.372  C37.907,52.184,37.759,52.169,37.693,52.211z M35.992,50.478c-0.002,0.021-0.004,0.042-0.007,0.063  c-0.007-0.016-0.015-0.031-0.021-0.048C35.975,50.487,35.982,50.482,35.992,50.478z M34.544,53.302  c-0.021-0.012-0.066-0.004-0.105,0.011c0-0.003,0.001-0.005,0.001-0.008c0-0.006,0-0.012,0-0.018  c0.179-0.147,0.345-0.319,0.5-0.487c0.022,0.21-0.017,0.42-0.024,0.633C34.773,53.492,34.674,53.373,34.544,53.302z M35.198,52.303  c0.006-0.059-0.023-0.108-0.1-0.118c-0.005-0.023-0.01-0.048-0.014-0.072c0.127,0.075,0.252,0.148,0.379,0.22  C35.374,52.329,35.284,52.318,35.198,52.303z M36.728,52.745c-0.047-0.012-0.093-0.027-0.14-0.041  c0.016-0.014,0.031-0.027,0.047-0.041c0.104-0.085-0.054-0.164-0.135-0.098c-0.03,0.025-0.059,0.053-0.089,0.079  c-0.095-0.035-0.19-0.074-0.284-0.117c0.318-0.078,0.626-0.2,0.893-0.351c0.012-0.007,0.018-0.014,0.026-0.021  c0.01,0.01,0.021,0.019,0.038,0.022c0.089,0.018,0.179-0.034,0.255-0.072c0.124-0.062,0.009-0.126-0.079-0.082  c-0.014,0.007-0.027,0.014-0.041,0.021c-0.004-0.032-0.002-0.068-0.002-0.098c-0.001-0.045-0.104-0.037-0.161-0.001  c-0.054-0.029-0.132-0.035-0.208,0.008c-0.115,0.064-0.236,0.123-0.363,0.174c0-0.329,0-0.658,0-0.987  c0-0.096-0.199-0.06-0.199,0.02c0,0.347,0,0.694,0,1.041c-0.185,0.061-0.375,0.103-0.563,0.121  c-0.222-0.121-0.437-0.249-0.648-0.368c0.004-0.171,0.047-0.347,0.116-0.514c0.274-0.26,0.676-0.4,1.086-0.409  c0.234-0.006,0.301-0.316,0.031-0.311c-0.053,0.001-0.106,0.005-0.16,0.01c0.016-0.072,0.027-0.144,0.037-0.214  c0.326,0.211,0.623,0.473,0.885,0.758c0.213,0.231,0.379,0.504,0.429,0.817C37.568,52.534,37.119,52.841,36.728,52.745z"></path>	<path d="M30.177,53.333c-0.244,0.243-0.487,0.487-0.731,0.731c-0.081,0.08,0.115,0.069,0.158,0.026  c0.244-0.244,0.488-0.487,0.732-0.731C30.416,53.278,30.22,53.29,30.177,53.333z"></path>	<path d="M29.101,53.788c-0.184,0.095-0.311,0.214-0.406,0.397c-0.017,0.032,0.169,0.019,0.196-0.033  c0.078-0.15,0.174-0.256,0.325-0.334C29.333,53.758,29.149,53.764,29.101,53.788z"></path>	<path d="M28.478,53.117c-0.355,0.185-0.652,0.456-1.006,0.641c-0.122,0.063-0.01,0.139,0.081,0.091  c0.354-0.184,0.652-0.456,1.006-0.64C28.681,53.146,28.569,53.069,28.478,53.117z"></path>	<path d="M27.187,53.662c-0.152,0.007-0.398,0.058-0.414,0.247c-0.006,0.069,0.193,0.028,0.198-0.029  c0.007-0.081,0.048-0.115,0.135-0.119c0.044-0.001,0.103-0.015,0.132-0.051C27.267,53.674,27.212,53.661,27.187,53.662z"></path>	<path d="M35.098,40.648c-0.069,0.391-0.092,0.977,0.188,1.298c0.033,0.038,0.219-0.031,0.188-0.069  c-0.266-0.305-0.244-0.896-0.18-1.263C35.303,40.564,35.106,40.599,35.098,40.648z"></path>	<path d="M27.794,47.648c-0.191-0.403-0.269-0.837-0.274-1.281c0-0.041-0.2-0.009-0.199,0.053c0.006,0.445,0.083,0.878,0.274,1.281  C27.622,47.756,27.814,47.688,27.794,47.648z"></path>	<path d="M37.535,44.347c0.227,0.008,0.254-0.381,0.321-0.526c0.028-0.061-0.169-0.039-0.198,0.024  c-0.052,0.11-0.071,0.248-0.126,0.359c-0.05-0.045-0.042-0.137-0.042-0.215c0-0.063-0.199-0.024-0.199,0.053  C37.291,44.232,37.326,44.339,37.535,44.347z"></path>	<path d="M60.012,48.447c1.891-0.008,4.799,0.012,6.799-0.997c-0.148,0.342-0.311,0.679-0.49,1.013  c-0.255,0.123-0.538,0.206-0.852,0.233c-0.098,0.009-0.436,0.175-0.174,0.152c0.332-0.029,0.642-0.101,0.93-0.207  c-0.008,0.013-0.014,0.024-0.021,0.037c-0.091,0.16,0.308,0.112,0.368,0.004c0.052-0.092,0.1-0.184,0.148-0.276  c0.719-0.42,1.229-1.11,1.443-1.987c0.086-0.102,0.168-0.206,0.243-0.317c0.015-0.021-0.136-0.014-0.185,0.025  c0.004-0.021,0.008-0.04,0.012-0.061c0.005-0.04-0.381-0.011-0.398,0.106c-0.026,0.181-0.066,0.358-0.119,0.531  c-0.109,0.104-0.225,0.201-0.348,0.292c0.801-2.033,1.129-4.198,1.412-6.392c0.021-0.151-0.379-0.077-0.396,0.053  c-0.297,2.289-0.631,4.551-1.518,6.662c-1.91,1.059-4.814,1.038-6.727,1.046C60.099,48.365,59.914,48.448,60.012,48.447z   M67.646,46.919c-0.165,0.444-0.417,0.843-0.751,1.15c0.147-0.298,0.283-0.599,0.408-0.902  C67.422,47.089,67.536,47.007,67.646,46.919z"></path>	<path d="M44.724,41.235c0.451,0.361,0.897,0.728,1.267,1.177c0.055,0.067,0.244-0.01,0.182-0.086  c-0.375-0.459-0.833-0.833-1.295-1.202C44.813,41.071,44.636,41.165,44.724,41.235z"></path>	<path d="M52.289,45.159c-0.053-0.027-0.236,0.051-0.158,0.091c1.262,0.659,2.14,1.737,2.267,3.183  c0.005,0.059,0.205,0.018,0.198-0.053C54.467,46.91,53.569,45.827,52.289,45.159z"></path>	<path d="M54.58,46.694c0.377,0.781,0.625,1.61,0.732,2.471c0.01,0.085,0.209,0.036,0.198-0.054c-0.107-0.86-0.354-1.689-0.731-2.47  C54.74,46.56,54.544,46.619,54.58,46.694z"></path>	<path d="M56.244,50.411c0-0.12-0.02-0.218-0.102-0.311c-0.061-0.069-0.249,0.012-0.182,0.088c0.065,0.074,0.081,0.141,0.082,0.237  C56.043,50.531,56.244,50.502,56.244,50.411z"></path></g></svg>