<svg xmlns="http://www.w3.org/2000/svg" xmlns:xlink="http://www.w3.org/1999/xlink" id="Layer_1" x="0px" y="0px" width="70px" height="70px" viewBox="0 0 70 70" xml:space="preserve"><g>	<path d="M21.987,51.258c-0.19,0.006-1.129,0.393-0.656,0.379c2.686-0.076,2.602,2.629,2.451,4.602  c-0.014,0.182-0.028,0.361-0.043,0.541c-0.267-0.609-0.908-1.131-1.427-1.451c-0.188-0.115-0.626,0.141-0.385,0.289  c0.758,0.467,1.693,1.219,1.319,2.223c-0.182,0.488-0.623,0.791-1.125,0.977c-0.053-0.326-0.062-0.668-0.078-0.947  c-0.008-0.146-1.014,0.018-1,0.268c0.016,0.285,0.044,0.605,0.105,0.91c-0.135,0.018-0.267,0.029-0.388,0.039  c-0.283,0.018-0.385,0.389-0.044,0.365c0.172-0.01,0.346-0.031,0.521-0.057c0.194,0.617,0.585,1.072,1.401,0.844  c1.126-0.316,1.751-1.32,1.958-2.443C25.048,55.332,25.51,51.158,21.987,51.258z M22.446,59.646  c-0.114-0.139-0.19-0.311-0.246-0.494c0.525-0.193,0.995-0.5,1.335-0.957c-0.092,0.381-0.225,0.754-0.424,1.119  C22.848,59.795,22.767,60.039,22.446,59.646z"></path>	<path d="M30.266,48.469c-0.289,0-1.09,0.438-0.423,0.438C30.132,48.906,30.933,48.469,30.266,48.469z"></path>	<path d="M69.146,42.639c-0.641-1.521-0.045-3.922-2.097-3.717c-0.507-2.219-0.057-4.448-0.844-6.652  c-0.67-1.879-1.64-4.296-3.179-5.618c-0.738-0.635-1.55-1.159-2.343-1.722c-1.107-0.783-1.879-1.934-2.692-2.995  c-1.412-1.841-3.285-3.036-5.305-4.119c-2.066-1.107-4.203-2.119-5.827-3.858c-0.976-1.045-1.949-3.04-3.655-3.027  c-1.361,0.011-2.363-0.154-3.65-0.57c-0.922-0.298-1.833-0.348-2.789-0.234c-1.025,0.122-1.722,0.472-2.273,1.082  c-0.122-0.535-0.328-1.015-0.859-1.339c-0.433-0.265-1.127-0.222-1.458,0.197c-1.219,1.547-3.741,0.086-5.485,1.141  c-0.108,0.007-0.216,0.037-0.304,0.1c-2.257,1.595-5.003,5.71-4.438,8.71c-2.611-0.684-5.819,0.029-8.137,0.989  c-3.31,1.37-5.768,4.19-7.642,7.147c-2.226,3.512-3.802,7.543-5.379,11.374c-1.897,4.606-0.017,8.685,1.85,12.937  c-0.495,1.766-2.36,5.76,0.707,6.041c1.292,0.117,2.577,0.705,3.876,0.582c0.463-0.043,1.099-0.457,1.31-0.967  c0.935,0.646,2.094,0.879,3.313,0.998c1.743,0.168,3.502,0.381,5.252,0.443c0.91,0.033,2.168,0.002,2.941-0.568  c1.793-1.322,1.694-5.738,0.97-7.563c-0.555-1.4-2.519-1.629-3.782-1.869c-2.576-0.488-5.097-1.217-7.69-1.633  c-0.227-0.035-1.075,0.33-0.826,0.371c1.81,0.289,3.588,0.709,5.373,1.119c1.528,0.352,3.172,0.537,4.636,1.107  c2.42,0.943,1.777,5.059,1.298,6.986c-0.13,0.52-0.34,1.055-0.712,1.451c-0.502,0.535-2.67,0.156-3.29,0.096  c-1.448-0.141-2.919-0.236-4.36-0.428c-3.448-0.459-4.939-4.303-4.45-7.412c0.376-0.717,0.813-1.383,1.187-1.922  C8.755,48.773,7.817,48.619,7.555,49c-1.103,1.592-2.035,3.352-2.19,5.313c-0.056,0.705,0.142,1.459,0.563,2.025  c0.189,0.254,0.545,0.43,0.805,0.596c0.247,0.148,0.473,0.322,0.679,0.525c-0.272,0.873-0.754,1.113-1.445,0.721  c-0.774-0.213-1.465-0.361-2.274-0.406c-0.541-0.029-0.83-0.256-0.969-0.58c0.113-0.018,0.244-0.064,0.271-0.088  c0.048-0.039,0.091-0.084,0.138-0.125c-0.041,0.084-0.084,0.168-0.121,0.256c-0.058,0.135,0.428,0.037,0.496-0.076  c0.206-0.346,0.408-0.693,0.618-1.035c-0.03,0.26-0.085,0.516-0.194,0.766c-0.052,0.119,0.434,0.066,0.496-0.076  c0.213-0.488,0.231-0.998,0.232-1.523c0-0.08-0.138-0.064-0.268-0.025c-0.106-0.035-0.409,0.033-0.46,0.131  c-0.19,0.365-0.414,0.697-0.67,1.002c0.285-0.74,0.69-1.432,1.147-2.082c0.114-0.162-0.38-0.098-0.458,0.016  c-0.242,0.344-0.47,0.701-0.676,1.068c-0.012,0.002-0.023,0.004-0.036,0.006c0.272-0.678,0.575-1.342,0.919-1.984  c0.841,0.723,0.544,3.367,0.235,4.045c-0.051,0.113,0.432,0.063,0.496-0.078c0.493-1.08,0.632-3.678-0.579-4.252  c0.001-0.002,0.002-0.004,0.003-0.006c0.017-0.029-0.038-0.043-0.117-0.041c-0.199-0.068-0.432-0.086-0.701-0.041  c0.025-0.104,0.052-0.207,0.079-0.309c0.14-0.078,0.23-0.178,0.187-0.275c-0.023-0.055-0.047-0.107-0.071-0.162  c0.469-1.693,1.148-3.094,3.438-3.246c0.565-0.039,0.77-0.783,0.088-0.736c-2.14,0.145-3.358,1.059-4.091,2.713  c-1.346-3.016-2.671-6.158-2.019-9.496c0.362-1.856,1.316-3.596,2.085-5.305c0.666-1.479,1.25-2.988,1.943-4.456  c1.407-2.98,3.168-5.853,5.597-8.11c1.321-1.228,2.894-2.149,4.604-2.714c1.987-0.655,4.864-1.007,6.878-0.104  c0.298,0.661,0.81,1.237,1.585,1.679c-0.279,0.349-0.5,0.74-0.633,1.198c-0.429,1.485,0.836,1.804,1.678,2.507  c-1.294,1.107-0.773,2.072,0.365,3.32c0.93,1.02,1.482,2.353,2.161,3.538c0.663,1.159,1.649,2.111,2.601,3.033  c1.989,1.927,4.399,3.329,6.933,4.408c2.059,0.877,3.699,2.43,5.322,3.965c-0.277,0.039-0.594,0.195-0.592,0.416  c0.01,2.82-1.244,5.422-3.274,7.303c0.208-1,0.138-2.148,0.134-3.086c-0.001-0.082-0.402-0.057-0.695,0.039  c0.463-1.268,0.367-2.764,0.215-4.113c-0.012-0.109-0.516-0.008-0.5,0.135c0.043,0.379,0.082,0.77,0.105,1.164  c-0.152-0.023-0.258-0.271-0.311-0.387c-0.112-0.25-0.168-0.527-0.215-0.797c-0.016-0.088-0.145-0.102-0.268-0.072  c-0.135-0.438-0.277-0.873-0.422-1.307c-0.05-0.148-0.547-0.004-0.5,0.133c0.209,0.627,0.412,1.254,0.597,1.887  c-0.136,0.029-0.271,0.104-0.251,0.182c-0.163-0.221-0.313-0.449-0.422-0.707c-0.064-0.15-0.554,0.008-0.5,0.135  c0.019,0.043,0.044,0.082,0.064,0.123c-0.317-0.328-0.639-0.652-0.962-0.977c-0.119-0.119-0.591,0.066-0.465,0.193  c0.317,0.316,0.634,0.633,0.946,0.955c0.098,0.102,0.668,0.6,0.654,0.703c0.002,0,0.004-0.004,0.006-0.004  c0.003,0.078,0.184,0.129,0.334,0.07c0.002-0.002,0.004-0.002,0.006-0.004c0.021-0.008,0.049-0.021,0.075-0.037  c0.132,0.164,0.265,0.328,0.393,0.496c0.043,0.057,0.159,0.053,0.269,0.02c0.172,0.275,0.32,0.557,0.405,0.877  c0.063,0.236,0.563,0.102,0.5-0.135c-0.067-0.25-0.172-0.479-0.294-0.701c0.042-0.029,0.068-0.066,0.064-0.104  c-0.012-0.1-0.035-0.193-0.059-0.287c0.055,0.02,0.109,0.035,0.172,0.041c0.061,0.004,0.131-0.02,0.193-0.055  c0.053,1.264-0.08,2.543-0.789,3.551c-0.033-0.006-0.072-0.008-0.113-0.008c0.016-0.025,0.025-0.055,0.023-0.088  c-0.016-0.346-0.121-0.645-0.233-0.969c-0.058-0.166-0.316-0.146-0.44-0.041c-0.246-0.383-0.48-0.773-0.731-1.156  c-0.13-0.197-0.604,0-0.457,0.225c0.457,0.695,0.854,1.424,1.38,2.07c0.013,0.018,0.03,0.029,0.05,0.041  c-0.178,0.07-0.32,0.186-0.321,0.326c-0.005,1.266-0.054,2.531-0.044,3.797c-0.053,0.039-0.045,0.07,0,0.09  c0.002,0.121,0.007,0.24,0.01,0.361c-0.105,0.051-0.182,0.115-0.191,0.184c-0.4,2.863-9.24,6.367-9.815,2.66  c-0.038-0.242-1.044-0.02-1,0.27c0.581,3.74,8.994,1.029,11.258-1.928c0.299,0.025,0.797-0.15,0.781-0.41  c-0.024-0.439-0.037-0.879-0.043-1.318c0.418-0.207,0.721-0.504,0.945-0.855c2.818-2.008,4.661-5.033,4.727-8.523  c0.455,0.43,0.912,0.852,1.379,1.252c2.02,1.734,3.851,4.012,6.248,5.209c2.26,1.127,4.595,2.393,7.064,2.98  c3.906,0.932,7.418-0.646,9.74-3.621c0.588,1.977-0.102,3.459-1.717,4.771c-0.764,0.619-1.593,1.154-2.447,1.637  c-1.822,1.029-0.584-1.76-0.373-2.525c0.049-0.178-0.918-0.053-0.983,0.186c-0.296,1.072-0.81,2.016-0.583,3.146  c0.018,0.086,0.232,0.057,0.279,0.053c1.627-0.135,3.133-1.221,4.414-2.137c1.545-1.105,2.592-2.328,2.623-3.965  c0.136-0.072,0.238-0.186,0.246-0.33c0.094-1.625,0.999-2.938,1.35-4.49C70.238,45.381,69.789,44.162,69.146,42.639z M6.346,54.467  c0.085,0.348,0.194,0.688,0.326,1.023c-0.094-0.141-0.173-0.297-0.227-0.479C6.393,54.836,6.364,54.652,6.346,54.467z   M2.673,56.033c0.108-0.008,0.249-0.049,0.271-0.061c0.018-0.01,0.032-0.021,0.049-0.031c-0.141,0.297-0.262,0.6-0.362,0.914  C2.599,56.604,2.622,56.322,2.673,56.033z M3.797,53.252c-0.319,0.57-0.6,1.162-0.856,1.764c0.083-0.262,0.164-0.496,0.217-0.682  c0.103-0.357,0.193-0.717,0.281-1.072C3.57,53.234,3.689,53.232,3.797,53.252z M37.246,53.119c-0.009,0.006-0.018,0.014-0.026,0.02  c-0.21,0.148-0.217,0.258-0.128,0.326c-0.043,0.078-0.088,0.154-0.14,0.223c0.001-1.064,0.031-2.129,0.04-3.193  c0.2-0.215,0.367-0.447,0.508-0.691C37.529,50.736,37.605,52.127,37.246,53.119z M67.844,49.986  c-0.07-0.018-0.172-0.014-0.283,0.008c0.121-0.18,0.24-0.359,0.352-0.547c0.297-0.494-0.722-0.539-0.961-0.139  c-2.563,4.271-6.883,5.352-11.398,3.566c-0.942-0.373-1.805-0.914-2.715-1.355c-1.119-0.541-2.267-0.943-3.311-1.637  c-0.962-0.639-1.722-1.654-2.539-2.471c-0.943-0.943-2.043-1.715-3.039-2.604c-1.619-1.441-3.105-2.99-4.936-4.176  c-1.832-1.187-3.939-1.848-5.771-3.076c-1.913-1.282-3.735-2.966-4.965-4.92c-0.599-0.951-1.061-1.979-1.678-2.922  c-0.6-0.919-2.126-1.768-1.227-2.825c0.013,0.027,0.029,0.052,0.041,0.08c0.11,0.277,1.092-0.037,1-0.268  c-0.483-1.207-2.086-1.192-2.298-2.536c-0.079-0.498,0.044-0.942,0.286-1.346c0.428,0.129,1.088-0.441,0.554-0.687  c0.821-0.815,2.03-1.455,2.728-2.047c0.075-0.063,0.102-0.111,0.096-0.146c0.035-0.022,0.069-0.046,0.104-0.069  c0.05-0.023,0.088-0.049,0.106-0.073c0.157-0.11,0.309-0.22,0.453-0.326c0.161-0.118,0.326-0.246,0.492-0.377  c0.112-0.043,0.226-0.118,0.2-0.16c0.606-0.498,1.195-1.08,1.594-1.735c1.015-0.856,1.943-1.802,2.793-2.83  c0.02-0.023-0.399-0.019-0.492,0.093c-0.636,0.771-1.321,1.488-2.05,2.161c-0.011-0.013-0.025-0.024-0.037-0.033  c-0.531-0.397-1.138-0.706-1.769-0.876c1.483-0.598,2.682-2.183,2.743-3.742c0.008-0.22-0.495-0.122-0.501,0.058  c-0.058,1.49-1.278,3.229-2.793,3.571c-0.826-0.108-1.666,0.043-2.404,0.572c-0.276,0.197,0.148,0.285,0.315,0.166  c0.501-0.358,1.033-0.486,1.568-0.465c0.009,0.05,0.067,0.085,0.198,0.07c0.062-0.008,0.122-0.021,0.183-0.032  c0.457,0.074,0.91,0.242,1.344,0.457c0.638,0.315,0.591,0.586,0.283,1.015c-0.206,0.171-0.41,0.343-0.624,0.506  c-0.054,0.041,0.066,0.042,0.198,0.023c-0.322,0.365-0.682,0.704-1.064,1.018c-0.27,0.035-0.494,0.112-0.677,0.258  c-0.021-0.156-0.041-0.312-0.052-0.47c-0.01-0.141-0.453,0.025-0.497,0.107c-0.136,0.253-0.286,0.497-0.439,0.739  c-0.031-0.241-0.077-0.481-0.099-0.731c-0.013-0.151-0.45,0.037-0.498,0.107c-0.072,0.106-0.156,0.203-0.243,0.298  c-0.025-0.173-0.052-0.345-0.065-0.521c-0.001-0.023-0.02-0.035-0.043-0.044c0.687-0.111,1.336-0.415,1.998-0.62  c0.286-0.089,0.25-0.237-0.039-0.147c-0.611,0.189-1.202,0.463-1.832,0.586c-0.957,0.188-0.962-0.668-0.777-1.362  c0.026-0.099-0.46-0.032-0.492,0.09c-0.071,0.266-0.114,0.539-0.098,0.779c-0.006,0.008-0.015,0.014-0.019,0.021  c-0.222,0.483-0.352,0.976-0.46,1.495c-0.023,0.114,0.223,0.064,0.272,0.05c0.116-0.034,0.225-0.086,0.334-0.136  c0.031,0.152,0.019,0.306,0.082,0.457c0.057,0.138,0.452-0.005,0.498-0.107c0.046-0.103,0.1-0.201,0.156-0.298  c0.014,0.097,0.029,0.192,0.036,0.291c0.01,0.134,0.432-0.02,0.479-0.08c0.083-0.108,0.175-0.21,0.268-0.31  c0.048,0.292,0.094,0.579,0.063,0.886c-1.019,0.332-2.281,0.204-2.448-1.072c-0.146-1.11,0.875-2.366,1.7-2.974  c0.273-0.2-0.149-0.288-0.315-0.166c-1.577,1.159-3.131,4.452-0.052,4.719c0.188,0.017,0.375,0.007,0.562-0.021  c-0.509,0.355-1.03,0.709-1.489,1.113c-0.385-0.225-0.69-0.49-0.925-0.787c0.207-0.098,0.345-0.227,0.228-0.302  c-0.195-0.126-0.4-0.235-0.609-0.336c-1.104-2.556,1.456-6.625,3.522-8.354c0.146-0.017,0.287-0.068,0.377-0.162  c1.309-1.359,3.468,0.202,4.979-0.539c0.33-0.162,0.532-0.332,0.75-0.637c0.522-0.731,0.873,1.511,0.94,1.842  c0.092,0.454,0.837,0.22,0.98-0.069c1.281-2.604,3.925-1.552,6.121-0.871c0.444,0.138,0.884,0.216,1.349,0.125  c1.561-0.306,2.41,0.837,3.229,1.915c2.225,2.924,5.761,4.093,8.768,5.996c1.771,1.12,2.909,2.723,4.2,4.321  c1.171,1.452,2.881,2.209,4.191,3.501c1.402,1.38,2.205,3.71,2.85,5.52c0.613,1.719,0.332,3.544,0.531,5.322  c-0.063,0.032-0.111,0.076-0.113,0.127c-0.068,2.69-1.296,6.532-3.875,7.798c-0.311,0.152-0.025,0.328,0.201,0.217  c2.373-1.166,3.707-4.207,4.072-6.865c0.125,0.129,0.36,0.14,0.523,0.099c1.262-0.317,1.074,1.337,1.143,2.095  c0.09,1.006,0.687,1.916,1.004,2.859C69.477,46.488,68.426,48.227,67.844,49.986z M27.458,19.468  c0.012,0.094,0.022,0.188,0.031,0.281c-0.075,0.049-0.151,0.094-0.227,0.141c-0.029,0.005-0.057,0.011-0.084,0.018  C27.271,19.761,27.365,19.614,27.458,19.468z M25.36,19.184c0-0.002,0-0.003-0.001-0.005c-0.034-0.083-0.216-0.04-0.274-0.023  c-0.091,0.027-0.178,0.065-0.264,0.104c0.053-0.24,0.114-0.476,0.188-0.706c0.134,0.111,0.33,0.175,0.609,0.164  c0.048-0.002,0.096-0.009,0.144-0.014c-0.1,0.034-0.193,0.083-0.21,0.122C25.496,18.95,25.429,19.067,25.36,19.184z"></path>	<path d="M28.052,13.396c-0.847,0.727-1.664,1.467-2.145,2.495c-0.116,0.246,0.389,0.223,0.474,0.041  c0.449-0.961,1.203-1.656,1.995-2.336C28.634,13.375,28.229,13.244,28.052,13.396z"></path>	<path d="M35.261,16.951c0.147,0.065,0.605-0.149,0.398-0.24c-1.391-0.615-0.413-2.249-0.064-3.247  c0.059-0.168-0.442-0.103-0.5,0.063C34.71,14.631,33.757,16.287,35.261,16.951z"></path>	<path d="M31.224,21.042c4.488-1.135,7.372-3.854,10.232-7.362c0.024-0.029-0.399-0.021-0.492,0.092  c-2.735,3.355-5.446,6.033-9.778,7.128C30.894,20.974,30.933,21.115,31.224,21.042z"></path>	<path d="M30.56,22.52c1.681-0.485,3.355-1.057,4.649-2.281c0.226-0.215-0.259-0.294-0.417-0.145  c-1.194,1.132-2.774,1.642-4.322,2.089C30.164,22.271,30.252,22.608,30.56,22.52z"></path>	<path d="M28.202,26.15c0.797-0.335,1.623-0.597,2.356-1.065c0.286-0.184-0.142-0.289-0.318-0.177  c-0.695,0.444-1.488,0.687-2.244,1.005C27.677,26.047,27.966,26.25,28.202,26.15z"></path>	<path d="M29.846,26.518c1.992-0.363,3.815-1.288,5.381-2.57c0.117-0.096-0.358-0.051-0.455,0.028  c-1.133,0.928-2.41,1.661-3.798,2.089c1.85-0.878,3.72-2.353,4.57-2.985c0.227-0.168-0.276-0.169-0.4-0.076  c-1.451,1.079-6.088,4.745-7.733,2.932c-0.114-0.126-0.591,0.055-0.464,0.193C27.632,26.883,28.69,26.885,29.846,26.518z"></path>	<path d="M39.633,19.409c1.535-0.936,3.231-1.92,5.099-1.658c0.126,0.018,0.583-0.193,0.317-0.23  c-2.073-0.289-3.998,0.747-5.712,1.792C39.051,19.486,39.501,19.49,39.633,19.409z"></path>	<path d="M45.155,18.915c1.237-0.27,2.515-0.687,3.148,0.653c0.349,0.738,0.7,1.415,1.185,2.077c0.08,0.107,0.303,0.026,0.389-0.021  c0.203-0.112,1.758,2.456,1.973,2.715c0.529,0.641,1.193,1.102,2.03,1.148c0.195,0.011,0.53-0.272,0.192-0.292  c-1.748-0.097-2.928-2.585-3.526-3.946c-0.046-0.104-0.197-0.085-0.285-0.063c-1.044,0.261-1.289-1.75-1.892-2.48  c-0.688-0.833-2.473-0.227-3.283-0.05C44.779,18.723,44.854,18.981,45.155,18.915z"></path>	<path d="M52.223,33.36c-0.297,0.145,0.171,0.119,0.287,0.063c4.097-1.998,3.919-6.67,3.211-10.563  c-0.018-0.102-0.521,0.013-0.5,0.134C55.896,26.704,56.199,31.42,52.223,33.36z"></path>	<path d="M65.727,43.561c-0.006-0.178-0.506-0.074-0.5,0.135c0.074,2.361-0.627,5.027-3.072,5.912  c-0.328,0.117-0.031,0.316,0.205,0.232C64.984,48.889,65.807,46.133,65.727,43.561z"></path>	<path d="M66.609,47.693c-0.283,1.742-1.998,2.184-3.457,2.629c-0.289,0.088-0.244,0.27,0.049,0.182  c1.58-0.482,3.594-0.99,3.902-2.891C67.127,47.469,66.631,47.561,66.609,47.693z"></path>	<path d="M59.457,52.223c-0.848,0.283-1.777-0.131-2.126-0.957c-0.083-0.197-0.577-0.049-0.5,0.135  c0.442,1.049,1.657,1.463,2.704,1.113C59.83,52.416,59.758,52.121,59.457,52.223z"></path>	<path d="M37.624,28.289c1.437-0.07,2.663-0.664,3.928-1.302c0.307-0.153,0.033-0.424-0.224-0.303  c-0.17,0.068-0.34,0.138-0.51,0.206c-0.08,0.028-0.131,0.074-0.158,0.124c-0.569,0.275-1.143,0.521-1.743,0.688  c1.102-0.597,2.093-1.359,2.964-2.285c0.191-0.203-0.176-0.304-0.322-0.229c-1.006,0.514-1.979,1.069-3.01,1.502  c0.982-0.698,1.864-1.638,1.88-2.748c0.003-0.224-0.298-0.182-0.421-0.1c-0.404,0.269-0.813,0.532-1.224,0.787  c0.854-0.598,1.604-1.266,2.175-1.979c0.197-0.247-0.278-0.316-0.418-0.143c-0.463,0.579-1.061,1.132-1.74,1.641  c-0.09-0.029-0.205-0.025-0.287,0.038c-0.515,0.394-1.039,0.77-1.572,1.131c-1.944,1.021-4.169,1.654-5.994,1.568  c-0.238-0.011-0.514,0.341-0.175,0.357c1.375,0.064,2.944-0.237,4.469-0.789c-0.06,0.137,0.064,0.282,0.266,0.211  c0.022-0.008,0.043-0.017,0.065-0.024l0,0c0,0,0.001-0.001,0.002-0.001c1.537-0.555,2.93-1.364,4.291-2.25  c-0.307,1.316-1.926,2.334-3.022,2.868c-0.271,0.132-0.09,0.385,0.159,0.328c1.258-0.29,2.389-0.846,3.516-1.435  c-0.893,0.749-1.89,1.348-2.984,1.797C37.3,28.046,37.395,28.3,37.624,28.289z"></path>	<path d="M37.784,29.302c1.378,0.205,2.714-0.543,3.877-1.186c0.299-0.166,0.025-0.391-0.212-0.259  c-1.043,0.577-2.246,1.298-3.483,1.114C37.741,28.938,37.447,29.252,37.784,29.302z"></path>	<path d="M43.197,28.723c0.293-0.162-0.164-0.164-0.295-0.093c-0.994,0.551-2.034,1.155-3.197,1.198  c-0.148,0.005-0.543,0.239-0.21,0.227C40.841,30.006,42.045,29.361,43.197,28.723z"></path>	<path d="M41.998,31.305c1.729-0.658,3.146-1.854,4.39-3.2c0.143-0.154-0.358-0.12-0.464-0.006  c-0.964,1.043-2.045,1.991-3.306,2.639c0.601-0.626,1.114-1.32,1.585-2.058c0.121-0.192-0.38-0.14-0.465-0.006  c-0.583,0.915-1.225,1.769-2.037,2.495C41.496,31.352,41.902,31.341,41.998,31.305z"></path>	<path d="M44.92,34.118c1.469-0.78,2.666-1.859,3.668-3.185c0.038-0.052-0.404-0.034-0.494,0.086  c-0.804,1.063-1.742,1.971-2.86,2.673c0.104-0.151,0.216-0.297,0.344-0.432c0.032-0.037,0.03-0.069-0.022-0.083  c-0.309-0.082,0.934-0.908,1.06-1.003c0.378-0.287,0.677-0.62,0.938-1.011c0.065-0.099-0.313-0.026-0.335-0.019  c-0.419,0.155-0.807,0.35-1.181,0.563c0.193-0.264,0.356-0.556,0.48-0.889c0.051-0.137-0.398,0.007-0.439,0.032  c-0.217,0.13-0.433,0.264-0.648,0.396c0.891-0.913,1.658-1.934,2.008-3.188c0.031-0.112-0.457-0.044-0.494,0.086  c-0.088,0.315-0.208,0.612-0.344,0.899c-0.105-0.042-0.372-0.003-0.447,0.085c-0.465,0.541-0.941,1.083-1.473,1.56  c0.114-0.205,0.223-0.413,0.329-0.624c0.11-0.221-0.392-0.167-0.467-0.016c-0.24,0.479-0.49,0.944-0.806,1.38  c-0.143,0.197,0.316,0.134,0.391,0.086c0.906-0.586,1.634-1.378,2.335-2.188c-0.555,1.033-1.385,1.9-2.259,2.702  c-0.126,0.116,0.352,0.038,0.42-0.007c0.416-0.273,0.838-0.536,1.263-0.797c-0.233,0.481-0.56,0.872-0.958,1.219  c-0.166,0.126-0.331,0.253-0.494,0.39c-0.121,0.102,0.342,0.049,0.419-0.006c0.196-0.142,0.382-0.286,0.554-0.439  c0.463-0.35,0.944-0.65,1.472-0.896c-0.558,0.696-1.336,1.152-2.065,1.66c-0.016,0.011-0.096,0.073-0.043,0.097  c0.395,0.175-0.103,0.635-0.24,0.876C44.465,34.234,44.888,34.136,44.92,34.118z"></path>	<path d="M54.529,33.993c-0.066,0.184-0.131,0.366-0.196,0.55c-0.128,0.101-0.256,0.199-0.394,0.285  c-0.251,0.157,0.063,0.198,0.24,0.144c-0.001,0.002-0.002,0.003-0.002,0.004c-0.047,0.019-0.086,0.041-0.104,0.07  c-0.534,0.858-1.135,1.664-1.775,2.442c0.275-0.736,0.617-1.444,0.889-2.185c0.047-0.126-0.355-0.008-0.391,0.008  c-0.485,0.225-0.941,0.499-1.4,0.77c0.48-0.645,0.973-1.279,1.445-1.928c0.066-0.09-0.391,0.005-0.438,0.034  c-0.527,0.326-1.01,0.692-1.475,1.087c0.132-0.262,0.263-0.524,0.418-0.776c0.063-0.104-0.395,0.007-0.439,0.035  c-0.32,0.203-0.633,0.418-0.947,0.632c0.161-0.254,0.309-0.517,0.467-0.782c0.049-0.083-0.199-0.034-0.344,0.004  c0.652-0.847,1.203-1.768,1.608-2.764c0.037-0.091-0.44-0.043-0.493,0.087c-0.049,0.119-0.105,0.233-0.158,0.351  c-0.116-0.006-0.336,0.031-0.397,0.082c-0.964,0.791-1.991,1.484-3.059,2.12c0.786-0.817,1.292-1.845,1.577-2.983  c0.03-0.119-0.461-0.045-0.494,0.085c-0.365,1.461-1.091,2.767-2.359,3.626c-0.213,0.144,0.259,0.093,0.338,0.05  c0.016-0.009,0.031-0.018,0.047-0.026l0,0c0,0,0,0,0-0.001c1.506-0.82,2.948-1.729,4.283-2.808  c-0.459,0.982-1.059,1.887-1.754,2.715c-0.683,0.514-1.262,1.138-1.799,1.824c-0.111,0.143,0.381,0.028,0.453-0.034  c0.643-0.562,1.248-1.17,1.799-1.822c0.009-0.006,0.018-0.012,0.026-0.019c-0.167,0.289-0.337,0.573-0.554,0.841  c-0.117,0.146,0.361,0.027,0.419-0.009c0.357-0.228,0.706-0.466,1.056-0.704c-0.189,0.361-0.359,0.732-0.574,1.083  c-0.055,0.09,0.408,0.003,0.474-0.061c0.449-0.437,0.911-0.842,1.403-1.215c-0.435,0.578-0.875,1.151-1.302,1.735  c-0.065,0.091,0.356,0.011,0.392-0.009c0.537-0.287,1.052-0.617,1.588-0.906c-0.357,0.92-0.801,1.799-1.06,2.756  c-0.036,0.133,0.419,0,0.474-0.062c0.608-0.693,1.187-1.405,1.725-2.147c-0.48,1.275-1.027,2.515-1.842,3.646  c-0.138,0.19,0.262,0.17,0.339,0.137c1.169-0.503,2.126-1.317,2.96-2.252c-0.693,1.164-1.578,2.213-2.57,3.136  c-0.213,0.197,0.258,0.139,0.348,0.09c0.615-0.318,1.202-0.686,1.791-1.049c-0.212,0.303-0.428,0.602-0.678,0.877  c-0.104,0.115,0.109,0.113,0.259,0.09C54.3,40.924,54.248,41,54.199,41.078c-0.121,0.199,0.248,0.197,0.342,0.148  c0.154-0.076,0.307-0.152,0.461-0.229c0.245-0.123,0.117-0.289-0.067-0.291c0.077-0.123,0.156-0.244,0.235-0.367  c0.294-0.217,0.575-0.449,0.844-0.708c0.168-0.163-0.143-0.165-0.313-0.104c0.776-1.152,1.582-2.285,2.307-3.472  c0.137-0.226-0.371-0.206-0.473-0.039c-0.678,1.11-1.426,2.174-2.156,3.25c-0.078,0.011-0.152,0.03-0.174,0.044  c-0.504,0.294-0.995,0.604-1.494,0.905c1.12-1.164,2.07-2.49,2.699-3.985c0.057-0.137-0.435-0.08-0.498,0.07  c-0.012,0.029-0.027,0.057-0.039,0.086c-0.076,0.019-0.145,0.05-0.178,0.094c-0.836,1.123-1.797,2.195-3.013,2.897  c0.972-1.507,1.544-3.175,2.143-4.859c1.161-0.974,1.885-2.427,1.931-3.955c0.004-0.125-0.494-0.043-0.5,0.134  c-0.034,1.147-0.486,2.29-1.232,3.172C54.953,33.771,54.586,33.837,54.529,33.993z"></path>	<path d="M57.537,42.926c-0.467,0.688-0.996,1.324-1.579,1.916c-0.161,0.164,0.114,0.232,0.24,0.189  c1.062-0.371,1.953-0.967,2.696-1.813c0.199-0.229-0.286-0.238-0.406-0.102c-0.481,0.549-1.028,1-1.658,1.33  c0.424-0.471,0.818-0.971,1.176-1.498C58.143,42.748,57.637,42.779,57.537,42.926z"></path>	<path d="M57.789,44.65c-0.2,0.143-0.701,0.564-0.971,0.463c-0.158-0.061-0.611,0.168-0.396,0.25  c0.394,0.148,0.819-0.029,1.165-0.225c0.553-0.313,1.049-0.715,1.535-1.119c0.225-0.186-0.272-0.203-0.404-0.094  C58.416,44.178,58.109,44.424,57.789,44.65z"></path>	<path d="M27.729,27.313c-0.112-0.042-0.562,0.139-0.41,0.196c3.48,1.321,6.84,2.233,8.235,6.064c0.045,0.12,0.537-0.033,0.5-0.135  C34.65,29.586,31.235,28.646,27.729,27.313z"></path>	<path d="M46.703,42.139c-2.427-0.834-3.707-2.832-5.014-4.904c-0.091-0.145-0.561,0.038-0.5,0.135  c0.578,0.916,1.155,1.82,1.826,2.619c-1.572-0.144-2.4-1.153-3.055-2.404c0.025-0.031,0.052-0.063,0.078-0.094  c0.027-0.032,0.063-0.095,0.041-0.141c-1.689-3.585-3.546-7.028-6.728-9.507c-0.174-0.136-0.612,0.111-0.386,0.287  c1.536,1.196,2.775,2.6,3.859,4.207c0.171,0.253,0.331,0.512,0.488,0.772c-0.191-0.161-0.397-0.307-0.625-0.432  c-0.18-0.098-0.625,0.148-0.389,0.277c1.631,0.891,2.244,2.715,2.996,4.327c-0.156,0.062-0.273,0.195-0.119,0.278  c0.105,0.058,0.211,0.115,0.316,0.173c0.008,0.004,0.017,0.005,0.025,0.008c0.721,1.43,1.65,2.593,3.672,2.608  c0.037,0,0.077-0.012,0.115-0.027c0.807,0.883,1.755,1.609,2.992,2.035C46.43,42.402,46.883,42.201,46.703,42.139z"></path>	<path d="M46.232,42.561c-0.176-0.152-0.606,0.102-0.384,0.295c2.505,2.164,5.706,3.297,8.165,5.52  c0.172,0.154,0.603-0.098,0.384-0.295C51.938,45.857,48.737,44.725,46.232,42.561z"></path>	<path d="M56.852,49.621c-0.012-0.016-0.025-0.031-0.038-0.049c0.03-0.027,0.054-0.059,0.061-0.098c0.2-1.176-1.029-2.057-1.86-2.65  c-1.203-0.857-2.557-1.461-3.836-2.189c-0.188-0.109-0.628,0.148-0.385,0.287c1.05,0.598,2.139,1.121,3.17,1.754  c0.787,0.482,2.166,1.293,2.391,2.328c-0.231-0.281-0.459-0.564-0.651-0.877c-0.095-0.154-0.579,0.012-0.462,0.201  c0.332,0.539,0.768,0.994,1.149,1.496C56.502,49.973,56.984,49.795,56.852,49.621z"></path>	<path d="M62.276,31.944c-0.028-0.242-0.529-0.117-0.5,0.134c0.299,2.546,0.855,5.298-0.938,7.431  c-0.784,0.935-1.902,1.54-3.11,2.001c-0.104-0.002-0.222,0.035-0.282,0.105c-0.105,0.037-0.209,0.072-0.314,0.107  c0.299-0.445,0.563-0.918,0.854-1.367c0.041-0.012,0.078-0.025,0.098-0.041c1.598-1.29,2.841-3.188,3.157-5.236  c0.024-0.156-0.475-0.063-0.496,0.077c-0.298,1.93-1.418,3.734-2.903,4.989c-0.117,0.002-0.254,0.043-0.307,0.123  c-0.063,0.096-0.123,0.191-0.184,0.287c-0.094-0.006-0.238,0.014-0.299,0.045c-0.245,0.129-0.478,0.311-0.723,0.457  c0.266-0.418,0.479-0.865,0.77-1.268c0.056-0.076-0.187-0.056-0.201-0.054c-0.102,0.018-0.229,0.053-0.293,0.14  c-0.344,0.475-0.574,1.02-0.92,1.496c-0.063,0.086,0.253,0.043,0.27,0.037c0.484-0.137,0.861-0.438,1.29-0.678  c-0.241,0.398-0.478,0.801-0.753,1.174c-0.025,0.012-0.049,0.027-0.067,0.045c-0.981,0.295-1.968,0.537-2.841,0.809  c-0.305,0.094-0.211,0.457,0.098,0.361c0.75-0.234,1.559-0.445,2.372-0.684c-0.155,0.203,0.29,0.254,0.432,0.109  c0.102-0.105,0.195-0.217,0.286-0.33c0.129-0.041,0.256-0.082,0.383-0.125c-0.139,0.215-0.286,0.426-0.422,0.643  c-0.117,0.188-0.265,0.455-0.108,0.66c0.134,0.176,0.611-0.018,0.458-0.219c-0.105-0.139,0.199-0.504,0.272-0.613  c0.154-0.23,0.308-0.461,0.446-0.701c1.183-0.445,2.293-1.021,3.155-1.884C63.159,37.771,62.607,34.763,62.276,31.944z"></path>	<path d="M26.034,44.535c0.008,0.008,0.013,0.016,0.027,0.021c0.194,0.082,0.389,0.133,0.585,0.172  c0.711,0.699,1.542,1.209,2.806,1.131c0.108-0.008,0.304-0.09,0.278-0.229c-0.646-3.453-3.335-6.183-6.679-7.004  c-2.498-1.328-5.141-2.023-8.104-1.483c-0.315,0.058-0.222,0.373,0.085,0.316c0.276-0.05,0.548-0.085,0.818-0.112  c-0.089,0.067-0.178,0.134-0.268,0.201c-2.154-0.326-4.475,0.141-6.549,0.594c-2.187,0.479-4.281,1.029-5.574,2.943  c-0.472,0.369-0.965,0.826-1.028,1.295c-0.005,0.037,0.003,0.066,0.018,0.09c-0.216,0.268-0.415,0.551-0.588,0.85  c-0.059,0.102,0.417,0.063,0.496-0.074c0.63-1.086,1.604-1.949,2.593-2.699c0.078-0.059,0.061-0.092,0.003-0.105  c0.558-0.412,1.162-0.802,1.802-1.015c0.3-0.099,0.214-0.442-0.091-0.341c-0.628,0.209-1.214,0.558-1.768,0.941  c1.281-1.037,2.979-1.384,4.652-1.75c1.797-0.393,3.811-0.732,5.678-0.471c-0.219,0.153-0.444,0.297-0.682,0.419  c-0.307,0.158-0.025,0.34,0.202,0.223c0.322-0.165,0.622-0.361,0.915-0.569c0.187,0.037,0.372,0.077,0.555,0.128  c0.149,0.041,0.587-0.184,0.309-0.26c-0.169-0.047-0.341-0.086-0.513-0.121c0.057-0.042,0.114-0.084,0.17-0.127  c0.111-0.083,0.103-0.145,0.047-0.182c1.936-0.124,3.734,0.319,5.444,1.094c-0.157,0.033-0.307,0.188-0.231,0.269  c-0.049,0.078-0.033,0.156,0.127,0.169c0.485,0.036,0.979,0.123,1.469,0.254c0.597,0.336,1.184,0.704,1.763,1.099  c0.129,0.088,0.418-0.029,0.447-0.16c1.24,0.742,2.284,1.791,2.833,3.078c0.034,0.082,0.132,0.105,0.233,0.096  c0.396,0.721,0.688,1.504,0.865,2.324c-0.763-0.025-1.355-0.316-1.866-0.736c0.077,0.004,0.153,0.008,0.231,0.008  c0.077,0,0.41-0.07,0.346-0.215c-0.595-1.344-1.645-2.428-2.185-3.795c-0.072-0.182-0.566-0.033-0.5,0.135  c0.508,1.287,1.462,2.324,2.069,3.559c-0.119-0.01-0.238-0.027-0.355-0.051c-0.966-0.971-1.705-2.322-2.994-2.904  c-0.171-0.078-0.622,0.162-0.391,0.266c1.182,0.533,1.908,1.605,2.723,2.516c-0.004,0-0.008,0.002-0.012,0.004  c-4.038-4.131-9.306-5.487-14.948-5.417c-0.157,0.002-0.542,0.243-0.207,0.239c5.565-0.069,10.733,1.303,14.705,5.377  C25.837,44.566,25.936,44.563,26.034,44.535z"></path>	<path d="M18.281,45.93c1.433,0.172,2.579,1.123,3.719,1.93c0.127,0.09,0.571-0.109,0.468-0.182  c-1.191-0.842-2.376-1.803-3.871-1.982C18.468,45.68,18.014,45.898,18.281,45.93z"></path>	<path d="M22.312,49.084c-0.065,0.033-0.155,0.135-0.048,0.18c0.111,0.047,0.253,0.002,0.353-0.051  c0.283-0.146,0.581-0.338,0.73-0.631c0.169-0.332,0.095-0.674-0.058-0.996c-0.077-0.162-0.563-0.002-0.5,0.135  c0.115,0.24,0.193,0.486,0.132,0.754C22.853,48.773,22.563,48.951,22.312,49.084z"></path>	<path d="M10.782,51.709c-0.612,0.131-1.12,0.596-1.447,1.184c-0.297-0.01-0.591-0.014-0.877-0.006  c-0.275,0.006-0.392,0.352-0.05,0.342c0.256-0.006,0.511-0.002,0.765,0.008C8.8,54.156,8.849,55.258,9.577,55.9  c0.069,0.063,0.316-0.023,0.425-0.096c-0.017,0.154-0.029,0.305-0.031,0.449c-0.021,1.332,1.283,0.689,1.879,0.166  c0.209-0.182-0.289-0.146-0.394-0.053c-0.228,0.197-0.689,0.703-0.903,0.26c-0.149-0.307-0.082-0.721-0.032-1.043  c0.105-0.678,0.353-1.523,0.815-2.082c0.555,0.117,1.104,0.271,1.646,0.463c0.753,0.266,1.436,0.666,2.073,1.139  c0.406,0.303,0.709,0.676,1.004,1.076c0.058,0.078,0.13,0.109,0.176,0.123c0,0.002-0.001,0.004-0.002,0.004  c0,0.004-0.001,0.006-0.001,0.01c-0.036,0.002-0.091,0.006-0.183,0.02c-0.265,0.041-0.392,0.395-0.051,0.344  c0.073-0.012,0.131-0.016,0.185-0.021c-0.015,0.197-0.008,0.41,0.045,0.594c-0.14,0.047-0.269,0.125-0.181,0.158  c0.092,0.033,0.191,0.059,0.292,0.076c0.009,0.014,0.017,0.029,0.027,0.043c0.066,0.08,0.247,0.055,0.369-0.01  c0.459-0.01,0.916-0.184,1.145-0.596c0.036-0.064-0.424-0.035-0.493,0.09c-0.143,0.258-0.342,0.322-0.568,0.297  c-0.16-0.211-0.158-0.584-0.118-0.871c0.029-0.037,0.034-0.078,0.02-0.121c0.005-0.023,0.009-0.047,0.014-0.068  c0.017-0.074-0.043-0.111-0.126-0.117c-1.454-2.223-4.309-3.08-6.921-3.227c0.19-0.518,0.519-0.926,0.997-1.029  c0.134-0.029,0.3-0.139,0.261-0.172c2.554,0.559,5.9,1.727,6.513,4.133c-0.026,0-0.053,0-0.079,0  c-0.117-0.021-0.547,0.168-0.411,0.191c0.317,0.057,0.326,0.049,0.672,0.004c0.06-0.01,0.38-0.059,0.359-0.166  c-0.605-3.061-5.513-4.213-8.095-4.631c-0.117-0.018-0.546,0.17-0.412,0.193c0.417,0.066,0.896,0.154,1.408,0.266  C10.873,51.695,10.837,51.697,10.782,51.709z M10.959,53.43c-0.526,0.592-0.835,1.461-0.942,2.27  c-0.491-0.475-0.643-1.549-0.435-2.445C10.045,53.287,10.504,53.348,10.959,53.43z"></path>	<path d="M12.708,55.176c-0.069-0.195-0.566-0.053-0.5,0.135c0.138,0.389,0.422,0.652,0.847,0.664  c0.115,0.004,0.265-0.035,0.328-0.143c0.061-0.102-0.052-0.168-0.142-0.172C12.957,55.652,12.796,55.426,12.708,55.176z"></path>	<path d="M26.739,52.07c-0.069-0.193-0.565-0.051-0.5,0.135c0.441,1.25,0.403,2.605,1.035,3.795c0.078,0.146,0.294,0.09,0.409,0.021  c1.955-1.146,0.27-4.186-0.848-5.365c-0.133-0.141-0.609,0.049-0.462,0.205c0.884,0.934,2.492,3.586,1.288,4.758  C27.152,54.492,27.15,53.236,26.739,52.07z"></path>	<path d="M3.925,38.01c-0.041,0.222,0.321,0.179,0.42,0.101c0.202-0.159,0.407-0.318,0.614-0.476  c-0.392,0.416-0.71,0.896-0.906,1.477c-0.094,0.278,0.406,0.279,0.479,0.063c0.592-1.757,2.387-2.539,3.838-3.479  c0.226-0.146-0.023-0.356-0.214-0.295c-1.309,0.42-2.459,1.184-3.548,2.011c0.773-1.822,3.422-2.586,4.913-3.671  c0.265-0.192-0.088-0.345-0.279-0.271c-0.691,0.267-1.36,0.564-2.013,0.903c0.765-0.847,1.77-1.457,2.565-2.284  c0.219-0.229-0.261-0.32-0.42-0.155c-1.026,1.065-2.337,1.76-3.135,3.037c-0.063,0.102,0.001,0.164,0.094,0.193  C5.179,35.861,4.165,36.703,3.925,38.01z"></path>	<path d="M6.472,33.144c-0.136,0.217,0.343,0.203,0.441,0.078c0.396-0.507,0.833-0.962,1.291-1.396  C8.11,32,8.023,32.183,7.952,32.381c-0.073,0.202,0.435,0.142,0.504-0.049c0.344-0.954,0.992-1.54,1.678-2.216  c0.046-0.046,0.057-0.081,0.051-0.11c0.271-0.186,0.545-0.367,0.825-0.543c0.083-0.053,0.102-0.104,0.086-0.148  c0.716-0.33,1.434-0.656,2.158-0.971c0.23-0.099,0.147-0.298-0.078-0.291c-1.266,0.038-2.48,0.26-3.687,0.596  c1.511-1.154,3.51-1.493,5.31-2.006c0.303-0.087,0.223-0.39-0.081-0.303c-2.142,0.61-4.493,1.008-6.145,2.622  c-0.17,0.166,0.117,0.251,0.246,0.211c1.124-0.355,2.944-0.53,3.684-0.851c-0.854,0.37-1.7,0.76-2.54,1.16  c-0.671,0.238-1.306,0.536-1.92,0.938c-0.262,0.171,0.088,0.313,0.267,0.225c0.371-0.184,0.746-0.358,1.119-0.538  c-0.28,0.204-0.554,0.416-0.825,0.632C7.75,31.418,7.049,32.223,6.472,33.144z"></path>	<path d="M10.426,27.13c1.147-0.698,2.23-1.478,3.508-1.928c0.114-0.04,0.149-0.083,0.142-0.119  c0.193-0.037,0.386-0.076,0.566-0.158c0.097-0.044,0.188-0.169,0.114-0.272c-0.077-0.107-0.237-0.093-0.342-0.045  c-0.263,0.119-0.58,0.119-0.855,0.205c-0.103,0.032-0.235,0.123-0.201,0.251c0.01,0.036,0.033,0.063,0.062,0.082  c-1.18,0.475-2.213,1.197-3.299,1.857C9.833,27.179,10.277,27.221,10.426,27.13z"></path>	<path d="M15.56,23.88c0.221-0.102,0.467-0.127,0.69-0.229c0.091-0.042,0.193-0.159,0.118-0.26c-0.076-0.103-0.239-0.085-0.34-0.038  c-0.221,0.102-0.467,0.127-0.69,0.229c-0.091,0.042-0.193,0.158-0.118,0.26C15.296,23.944,15.459,23.927,15.56,23.88z"></path>	<path d="M22.608,36.672c-0.217-0.06-0.591,0.255-0.288,0.34c1.405,0.389,2.465,1.364,3.366,2.471  c0.145,0.179,0.62-0.021,0.458-0.221C25.201,38.104,24.076,37.078,22.608,36.672z"></path>	<path d="M25.456,36.494c0.623,0.629,1.2,1.302,1.876,1.875c0.117,0.1,0.454,0.019,0.446-0.165c-0.019-0.391-0.215-0.62-0.349-0.97  c-0.083-0.217-0.513-0.109-0.504,0.089c-0.34-0.349-0.67-0.707-1.013-1.053C25.748,36.104,25.275,36.312,25.456,36.494z"></path>	<path d="M27.985,37.085c-0.603-0.492-1.114-1.08-1.759-1.521c-0.149-0.103-0.606,0.111-0.394,0.257  c0.62,0.425,1.111,0.995,1.691,1.468C27.672,37.41,28.139,37.21,27.985,37.085z"></path>	<path d="M28.444,36.025c0.753,0.683,1.002,1.576,1.014,2.567c0.003,0.235,0.505,0.14,0.503-0.052  c-0.013-1.048-0.257-1.999-1.056-2.723C28.758,35.685,28.286,35.883,28.444,36.025z"></path>	<path d="M32.929,44.555c-0.123-0.176-0.602,0.012-0.459,0.217c0.572,0.82,0.982,1.746,1.61,2.529  c0.136,0.168,0.613-0.023,0.459-0.217C33.912,46.303,33.501,45.375,32.929,44.555z"></path>	<path d="M32.24,50.75c0.158,0.168,0.325,0.438,0.222,0.674c-0.112,0.256,0.392,0.242,0.476,0.049  c0.144-0.33-0.004-0.689-0.238-0.938C32.55,50.377,32.075,50.576,32.24,50.75z"></path>	<path d="M13.459,38.016c0.01-0.009,0.013-0.014,0.014-0.017c0.002,0.002,0.01,0.004,0.037,0.002  c0.075-0.006,0.151-0.004,0.226-0.004c0.109-0.001,0.259-0.042,0.333-0.128c0.078-0.09-0.066-0.112-0.126-0.112  c-0.295,0-0.637,0.011-0.874,0.212c-0.073,0.063-0.067,0.129,0.038,0.141C13.217,38.123,13.372,38.089,13.459,38.016z"></path>	<path d="M11.356,38.743c0.468-0.126,0.87-0.367,1.27-0.633c0.091-0.061,0.124-0.195,0.025-0.266  c-0.109-0.076-0.257-0.039-0.359,0.029c-0.325,0.216-0.649,0.415-1.03,0.517C10.952,38.474,11.046,38.826,11.356,38.743z"></path>	<path d="M9.167,39.536c0.592-0.163,1.125-0.499,1.615-0.861c0.273-0.202-0.136-0.358-0.328-0.216  c-0.418,0.309-0.869,0.609-1.375,0.749C8.773,39.292,8.86,39.621,9.167,39.536z"></path>	<path d="M6.509,40.061c0.701-0.19,1.349-0.553,2.02-0.826c0.325-0.132,0.025-0.272-0.192-0.185  c-0.626,0.255-1.235,0.604-1.89,0.783C6.15,39.913,6.211,40.143,6.509,40.061z"></path>	<path d="M3.854,43.781c0.106,0.016,0.234-0.004,0.304-0.076c1.343-1.365,3.826-1.414,5.617-1.592  c2.222-0.223,4.385-0.49,6.623-0.254c0.187,0.02,0.526-0.279,0.229-0.359c-4.147-1.117-8.792-1.935-12.271,1.203  c-0.153,0.139-0.066,0.26,0.068,0.295c-0.172,0.111-0.337,0.234-0.492,0.371c-0.109-0.012-0.245,0.018-0.304,0.086  c-0.783,0.912-1.847,2.041-1.54,3.346c0.04,0.168,0.321,0.076,0.41,0.025c0.305-0.176,0.535-0.396,0.742-0.654  c0.043,0.053,0.11,0.096,0.211,0.127c0.03,0.008,0.069,0.006,0.109-0.002c-0.064,0.123-0.13,0.244-0.206,0.361  c-0.044,0.068,0.12,0.074,0.143,0.074c0.004-0.002,0.007-0.002,0.011-0.002c-0.152,0.254-0.263,0.525-0.271,0.836  c-0.005,0.172,0.256,0.115,0.351,0.08c0.176-0.064,0.331-0.158,0.483-0.256c-0.01,0.057-0.023,0.111-0.031,0.168  c-0.032,0.244,0.477,0.17,0.505-0.043c0.372-2.836,4.566-2.787,6.747-1.867C9.46,45.986,7.59,46.037,5.91,46.941  c-0.301,0.162-0.028,0.404,0.216,0.273c1.797-0.967,3.851-0.92,5.8-1.355c0.104-0.023,0.325-0.205,0.151-0.301  c-2.136-1.154-6.958-1.396-7.904,1.422c-0.012,0.006-0.026,0.012-0.037,0.018c-0.125,0.066-0.24,0.146-0.356,0.223  c0.063-0.258,0.194-0.486,0.347-0.705c0.057-0.041,0.111-0.086,0.164-0.139c0.04-0.039,0.025-0.064-0.006-0.08  c0.004-0.006,0.008-0.01,0.011-0.016c0.073-0.098-0.062-0.152-0.138-0.156c-0.019,0-0.038,0.002-0.057,0.004  c0.102-0.199,0.202-0.398,0.323-0.586c0.056-0.086-0.184-0.07-0.205-0.066c-0.104,0.016-0.23,0.053-0.29,0.146  c-0.078,0.121-0.146,0.246-0.212,0.373c-0.195-0.152,0.493-0.873,0.579-0.979c0.078-0.098-0.065-0.154-0.138-0.158  C4.036,44.855,3.907,44.902,3.83,45c-0.115,0.143-0.389,0.416-0.543,0.68c-0.107,0.012-0.221,0.051-0.264,0.117  c-0.148,0.219-0.297,0.406-0.476,0.568C2.482,45.383,3.223,44.51,3.854,43.781z M14.498,41.385  c-1.961,0.002-3.916,0.254-5.871,0.479c-1.18,0.135-2.52,0.297-3.64,0.824C7.745,40.428,11.2,40.646,14.498,41.385z"></path>	<path d="M5.541,46.313c-0.215,0.529-0.454,1.047-0.575,1.609c-0.032,0.146,0.465,0.064,0.496-0.078  c0.121-0.563,0.36-1.08,0.575-1.609C6.085,46.113,5.598,46.17,5.541,46.313z"></path>	<path d="M29.459,50.596c0.145,1.439,0.57,2.828,0.805,4.254c0.019,0.113,0.522,0.002,0.5-0.133  c-0.235-1.426-0.661-2.816-0.805-4.256C29.949,50.355,29.445,50.453,29.459,50.596z"></path>	<path d="M30.725,52.895c0.016,0.559,0.218,1.113,0.46,1.611c0.026,0.053,0.115,0.053,0.21,0.031  c-0.017,0.549-0.212,1.064-0.757,1.492c-0.534,0.42,0.263,0.82,0.674,0.498c1.665-1.311,1.022-3.01,0.508-4.754  c-0.144-0.488-1.143-0.217-1,0.27c0.066,0.225,0.143,0.455,0.218,0.691C30.895,52.752,30.722,52.813,30.725,52.895z"></path>	<path d="M32.943,53.406c-0.011,0.004-0.013,0.006-0.02,0.01c-0.048-0.047-0.068-0.117-0.086-0.18  c-0.059-0.191-0.08-0.395-0.118-0.59c-0.037-0.188-0.538-0.063-0.5,0.133c0.052,0.266,0.065,0.568,0.213,0.803  c0.148,0.236,0.514,0.143,0.713,0.049c0.066-0.031,0.21-0.125,0.13-0.213C33.2,53.334,33.031,53.363,32.943,53.406z"></path>	<path d="M35.595,51.727c-0.218-0.566-0.357-1.16-0.575-1.727c-0.022-0.055-0.108-0.066-0.203-0.053  c-0.009-0.02-0.019-0.041-0.027-0.063c-0.059-0.145-0.55,0.012-0.5,0.135c0.132,0.324,0.277,0.645,0.422,0.963  c-0.149,0.02-0.326,0.1-0.307,0.188c0.012,0.055,0.018,0.107,0.027,0.162c-0.09-0.285-0.165-0.574-0.217-0.871  c-0.023-0.133-0.527-0.016-0.5,0.135c0.063,0.352,0.151,0.697,0.268,1.031c-0.151-0.051-0.39,0.031-0.386,0.186  c0.009,0.377,0.115,0.727,0.233,1.082c0.068,0.203,0.503,0.123,0.503-0.086c0-0.133,0-0.266,0-0.398  c0.025,0.047,0.045,0.094,0.072,0.141c0.071,0.123,0.468,0.025,0.498-0.105c0.065-0.291,0.086-0.574,0.073-0.857  c0.039,0.09,0.082,0.18,0.119,0.271C35.154,52.004,35.644,51.852,35.595,51.727z"></path>	<path d="M38.545,44.73c0.006,0.121,0.508,0.029,0.5-0.135c-0.006-0.113-0.111-0.152-0.207-0.166  c-0.116-0.014-0.26,0.025-0.354,0.096c-0.081,0.061-0.061,0.127,0.037,0.139C38.541,44.668,38.545,44.715,38.545,44.73z"></path>	<path d="M17.193,23.303c1.037,0.017,2.041,0.229,3.049,0.453c0.165,0.037,0.591-0.215,0.304-0.279  c-1.044-0.231-2.087-0.449-3.161-0.467C17.191,23.007,16.854,23.297,17.193,23.303z"></path>	<path d="M21.05,22.963c0.184,0.063,0.588-0.203,0.298-0.303c-1.01-0.347-1.97-0.811-2.943-1.246  c-0.17-0.076-0.621,0.162-0.392,0.264C19.018,22.127,20.008,22.604,21.05,22.963z"></path></g></svg>